<svg width="16" height="9" viewBox="0 0 16 9" fill="none" xmlns="http://www.w3.org/2000/svg">
<path d="M7.34994 8.34112C6.93758 7.94743 6.93758 7.2891 7.34994 6.89542L13.8626 0.677626C14.2488 0.308905 14.8567 0.308906 15.2429 0.677627C15.6552 1.07132 15.6552 1.72965 15.2429 2.12334L8.73019 8.34112C8.34398 8.70985 7.73615 8.70984 7.34994 8.34112Z" fill="#9A9A9A"/>
<path d="M0.757136 0.658877C1.14334 0.290156 1.75118 0.290156 2.13738 0.658876L8.65006 6.87667C9.06242 7.27036 9.06242 7.92868 8.65006 8.32237C8.26385 8.69109 7.65602 8.69109 7.26981 8.32237L0.757135 2.10458C0.344774 1.71089 0.344776 1.05257 0.757136 0.658877Z" fill="#9A9A9A"/>
</svg>
