<svg width="21" height="15" viewBox="0 0 21 15" fill="none" xmlns="http://www.w3.org/2000/svg">
<path d="M1.5 6.5C0.947715 6.5 0.5 6.94772 0.5 7.5C0.5 8.05228 0.947715 8.5 1.5 8.5L1.5 6.5ZM19.5 7.5L20.2071 8.20711L20.9142 7.5L20.2071 6.79289L19.5 7.5ZM14.2071 0.792893C13.8166 0.402369 13.1834 0.402369 12.7929 0.792893C12.4024 1.18342 12.4024 1.81658 12.7929 2.20711L14.2071 0.792893ZM12.7929 12.7929C12.4024 13.1834 12.4024 13.8166 12.7929 14.2071C13.1834 14.5976 13.8166 14.5976 14.2071 14.2071L12.7929 12.7929ZM1.5 8.5H19.5V6.5L1.5 6.5L1.5 8.5ZM20.2071 6.79289L14.2071 0.792893L12.7929 2.20711L18.7929 8.20711L20.2071 6.79289ZM18.7929 6.79289L12.7929 12.7929L14.2071 14.2071L20.2071 8.20711L18.7929 6.79289Z" fill="black"/>
</svg>
