<svg xmlns="http://www.w3.org/2000/svg" xmlns:xlink="http://www.w3.org/1999/xlink" width="777" height="468" viewBox="0 0 777 468" fill="none"><style>.b{stroke-miterlimit:10}.c{fill:#000}.d{stroke:#000}.e{stroke-width:3}</style><path fill="#fff" d="M0 0h776.5v468H0z"/><g class="c"><path d="M493.02 120v-11.37H497c1.38 0 2.43.27 3.14.8a2.7 2.7 0 0 1 1.07 2.32c0 .56-.14 1.05-.43 1.48s-.7.73-1.2.93c.58.15 1.04.44 1.38.88a2.6 2.6 0 0 1 .51 1.63 3 3 0 0 1-1.05 2.48c-.7.56-1.7.85-2.98.86h-4.42zm2.34-4.95v3.07h2c.55 0 .98-.13 1.3-.4.3-.27.47-.63.47-1.1 0-1.04-.54-1.57-1.62-1.6h-2.15zm0-1.66h1.74c1.18-.02 1.77-.5 1.77-1.4 0-.52-.15-.9-.45-1.1-.3-.23-.77-.34-1.4-.34h-1.64v2.87zm11.62 6.77a4.16 4.16 0 0 1-3.03-1.14 4.04 4.04 0 0 1-1.16-3.04v-.22a5.1 5.1 0 0 1 .49-2.27 3.6 3.6 0 0 1 1.39-1.55 3.9 3.9 0 0 1 2.06-.55c1.16 0 2.06.36 2.73 1.1.67.73 1 1.76 1 3.1v.92h-5.38a2.1 2.1 0 0 0 .66 1.33c.37.33.84.5 1.4.5.87 0 1.55-.3 2.04-.94l1.1 1.24a3.4 3.4 0 0 1-1.37 1.13 4.5 4.5 0 0 1-1.92.4zm-.26-6.94c-.45 0-.8.15-1.1.45s-.45.73-.53 1.3h3.14v-.18c-.01-.5-.14-.9-.4-1.16s-.63-.4-1.1-.4zm9.6 4.45c0-.28-.14-.5-.4-.65-.27-.16-.7-.3-1.3-.43-2-.42-3.02-1.28-3.02-2.56 0-.75.3-1.37.93-1.87s1.44-.76 2.44-.76c1.07 0 1.93.25 2.57.76.65.5.97 1.16.97 1.97h-2.26c0-.32-.1-.6-.3-.8s-.53-.32-.98-.32c-.38 0-.67.1-.88.26s-.3.4-.3.66c0 .25.12.45.35.6s.64.28 1.2.4c.56.1 1.04.23 1.42.38 1.2.44 1.8 1.2 1.8 2.27 0 .77-.33 1.4-1 1.88a4.3 4.3 0 0 1-2.56.71c-.7 0-1.34-.12-1.9-.37a3.2 3.2 0 0 1-1.29-1.04c-.3-.44-.47-.92-.47-1.43h2.14c.02.4.17.7.45.92s.65.32 1.1.32c.43 0 .76-.08.98-.24a.79.79 0 0 0 .34-.65zm6.36-8.2v2.08h1.45v1.66h-1.45v4.22c0 .3.06.54.18.67s.35.2.7.2c.25 0 .47-.02.66-.05v1.7c-.44.14-.9.2-1.37.2-1.58 0-2.4-.8-2.42-2.4v-4.55h-1.23v-1.66h1.23v-2.08h2.26zm13.26 8.2h-4.1l-.78 2.34h-2.5l4.23-11.37h2.17l4.26 11.38h-2.5l-.8-2.34zm-3.48-1.9h2.84l-1.43-4.26-1.4 4.26zm7.34-.05c0-1.3.3-2.34.92-3.13a3 3 0 0 1 2.5-1.19c.93 0 1.65.32 2.16.95l.1-.8h2.05v8.17c0 .74-.17 1.38-.5 1.93a3.2 3.2 0 0 1-1.41 1.25c-.6.3-1.32.43-2.14.43a4.6 4.6 0 0 1-1.81-.37 3.2 3.2 0 0 1-1.34-.95l1-1.37c.56.63 1.25.94 2.05.94.6 0 1.07-.16 1.4-.48.33-.32.5-.77.5-1.36v-.45a2.6 2.6 0 0 1-2.05.88 3 3 0 0 1-2.47-1.19 5.01 5.01 0 0 1-.94-3.16v-.1zm2.26.16a3.1 3.1 0 0 0 .46 1.81c.3.43.73.65 1.27.65.7 0 1.18-.26 1.48-.77V114c-.3-.52-.8-.77-1.46-.77-.54 0-.97.22-1.28.66-.3.44-.46 1.1-.46 1.98zm11.1 4.28c-1.24 0-2.25-.38-3.03-1.14s-1.16-1.77-1.16-3.04v-.22a5.1 5.1 0 0 1 .49-2.27 3.6 3.6 0 0 1 1.39-1.55 3.9 3.9 0 0 1 2.06-.55 3.5 3.5 0 0 1 2.73 1.09c.67.73 1 1.76 1 3.1v.92h-5.38a2.1 2.1 0 0 0 .66 1.33c.37.33.84.5 1.4.5.87 0 1.55-.3 2.04-.94l1.1 1.24c-.34.48-.8.85-1.37 1.13a4.5 4.5 0 0 1-1.92.4zm-.26-6.94c-.45 0-.8.15-1.1.45-.28.3-.45.73-.53 1.3h3.14v-.18c-.01-.5-.15-.9-.4-1.16s-.63-.4-1.1-.4zm7.1-1.67l.07.98c.6-.75 1.4-1.13 2.43-1.13.9 0 1.56.26 2 .8s.66 1.3.67 2.36V120h-2.26v-5.4c0-.48-.1-.83-.3-1.04-.2-.22-.55-.33-1.04-.33-.64 0-1.1.27-1.43.8V120h-2.26v-8.45H560zm9.6-2.08v2.08h1.45v1.66h-1.45v4.22c0 .3.06.54.18.67s.35.2.7.2c.25 0 .47-.02.66-.05v1.7c-.44.14-.9.2-1.37.2-1.58 0-2.4-.8-2.42-2.4v-4.55h-1.24v-1.66h1.24v-2.08h2.26zm7.28 8.2c0-.28-.14-.5-.4-.65a4.5 4.5 0 0 0-1.31-.43c-2-.42-3-1.28-3-2.56 0-.75.3-1.37.93-1.87.63-.5 1.44-.76 2.45-.76 1.07 0 1.93.25 2.57.76s.97 1.16.97 1.97h-2.26c0-.32-.1-.6-.3-.8s-.53-.32-.98-.32c-.38 0-.68.1-.88.26s-.3.4-.3.66c0 .25.12.45.35.6.24.15.64.28 1.2.4a9.4 9.4 0 0 1 1.42.38c1.2.44 1.8 1.2 1.8 2.27 0 .77-.33 1.4-1 1.88a4.3 4.3 0 0 1-2.56.71c-.7 0-1.34-.12-1.9-.37a3.2 3.2 0 0 1-1.29-1.04c-.3-.44-.47-.92-.47-1.43h2.14c.02.4.17.7.45.92s.65.32 1.1.32c.43 0 .76-.08.98-.24s.34-.38.34-.65zM493.32 139v-11.37h3.2c1 0 1.87.22 2.63.66a4.4 4.4 0 0 1 1.76 1.87c.42.8.63 1.74.63 2.78v.73c0 1.07-.2 2-.62 2.82s-1 1.43-1.77 1.86c-.77.43-1.66.65-2.68.66h-3.15zm1.5-10.14v8.9h1.58c1.16 0 2.05-.36 2.7-1.08s.97-1.74.97-3.07v-.66c0-1.3-.3-2.3-.9-3-.6-.72-1.46-1.08-2.58-1.1h-1.75zm12.28 10.3a3.7 3.7 0 0 1-2.8-1.12 4.2 4.2 0 0 1-1.08-3.02v-.27c0-.84.16-1.6.48-2.24.32-.66.77-1.18 1.34-1.55s1.2-.56 1.88-.56c1.1 0 1.95.36 2.56 1.1s.9 1.76.9 3.1v.6h-5.73a3 3 0 0 0 .73 2.02c.47.5 1.06.77 1.78.77.5 0 .94-.1 1.3-.3s.66-.48.93-.83l.88.7c-.7 1.1-1.77 1.63-3.2 1.63zm-.18-7.58c-.58 0-1.07.2-1.47.64s-.64 1.02-.73 1.78h4.23v-.1a2.7 2.7 0 0 0-.6-1.7c-.35-.4-.83-.6-1.44-.6zm4.8 3.13c0-1.3.3-2.34.92-3.12a2.9 2.9 0 0 1 2.41-1.19c1 0 1.77.34 2.35 1.02V127h1.45v12h-1.33l-.07-.9a2.96 2.96 0 0 1-2.4 1.06 2.9 2.9 0 0 1-2.4-1.2c-.6-.8-.92-1.85-.92-3.14v-.1zm1.45.16c0 .96.2 1.7.6 2.25s.94.8 1.64.8a2.1 2.1 0 0 0 2.01-1.24v-3.88c-.43-.8-1.1-1.2-2-1.2-.7 0-1.26.27-1.66.82s-.6 1.36-.6 2.43zm9.5 4.13h-1.45v-8.45h1.45V139zm-1.56-10.7c0-.24.07-.43.2-.6.15-.16.36-.24.64-.24s.5.08.64.24.22.36.22.6-.07.43-.22.6-.36.23-.64.23-.5-.08-.64-.23a.86.86 0 0 1-.2-.6zm7.27 9.67c.5 0 .97-.16 1.35-.47s.6-.7.64-1.17h1.37c-.03.48-.2.94-.5 1.38a3.3 3.3 0 0 1-1.23 1.05c-.5.26-1.05.4-1.62.4a3.5 3.5 0 0 1-2.75-1.15 4.6 4.6 0 0 1-1.02-3.16v-.24a5.1 5.1 0 0 1 .45-2.2c.3-.64.73-1.14 1.3-1.5s1.24-.53 2-.53c.95 0 1.73.28 2.36.85s.97 1.3 1 2.2h-1.37c-.04-.55-.25-1-.62-1.34a1.93 1.93 0 0 0-1.37-.53c-.74 0-1.3.27-1.7.8s-.6 1.3-.6 2.3v.27c0 .97.2 1.72.6 2.25s.97.8 1.72.8zm10.2 1.02a3.1 3.1 0 0 1-.2-.9 3.2 3.2 0 0 1-2.4 1.05 3 3 0 0 1-2.05-.7 2.3 2.3 0 0 1-.8-1.8c0-.88.33-1.56 1-2.05s1.6-.73 2.83-.73h1.4v-.66c0-.5-.15-.9-.45-1.2-.3-.3-.75-.45-1.34-.45-.52 0-.95.13-1.3.4s-.52.58-.52.95h-1.45c0-.42.15-.83.45-1.22a3.1 3.1 0 0 1 1.22-.94c.5-.23 1.08-.34 1.7-.34.97 0 1.74.24 2.3.73.55.48.84 1.15.86 2v3.9c0 .78.1 1.4.3 1.85v.13h-1.5zm-2.4-1.1c.45 0 .88-.12 1.3-.35s.7-.54.88-.9v-1.74h-1.13c-1.77 0-2.66.52-2.66 1.56 0 .45.15.8.45 1.06s.7.38 1.16.38zm7.84-9.4v2.05h1.58v1.12h-1.58v5.24c0 .34.07.6.2.77s.38.25.72.25c.17 0 .4-.03.7-.1V139a4.2 4.2 0 0 1-1.11.16c-.65 0-1.13-.2-1.46-.6s-.5-.94-.5-1.66v-5.24h-1.54v-1.12h1.54v-2.05h1.44zm6.78 10.66a3.7 3.7 0 0 1-2.8-1.12 4.2 4.2 0 0 1-1.08-3.02v-.27c0-.84.16-1.6.48-2.24s.77-1.18 1.34-1.55c.58-.37 1.2-.56 1.88-.56 1.1 0 1.95.36 2.56 1.1a4.7 4.7 0 0 1 .91 3.11v.6h-5.73a3 3 0 0 0 .73 2.02c.47.5 1.06.77 1.78.77.5 0 .94-.1 1.3-.3s.66-.48.93-.83l.88.7c-.7 1.1-1.77 1.63-3.2 1.63zm-.18-7.58c-.58 0-1.07.2-1.47.64s-.64 1.02-.73 1.78h4.23v-.1a2.7 2.7 0 0 0-.6-1.7c-.35-.4-.83-.6-1.44-.6zm4.8 3.13c0-1.3.3-2.34.92-3.12a2.9 2.9 0 0 1 2.41-1.19c1 0 1.77.34 2.35 1.02V127h1.44v12h-1.33l-.07-.9a2.96 2.96 0 0 1-2.4 1.06 2.9 2.9 0 0 1-2.4-1.2c-.6-.8-.92-1.85-.92-3.14v-.1zm1.45.16c0 .96.2 1.7.6 2.25s.94.8 1.64.8a2.1 2.1 0 0 0 2.01-1.24v-3.88c-.43-.8-1.1-1.2-2-1.2-.7 0-1.26.27-1.66.82s-.6 1.36-.6 2.43zm20.88 4.13h-1.5v-5.26h-5.74V139h-1.5v-11.37h1.5v4.9h5.74v-4.9h1.5V139zm7.66 0a3.1 3.1 0 0 1-.2-.9 3.2 3.2 0 0 1-2.4 1.05 3 3 0 0 1-2.05-.7 2.3 2.3 0 0 1-.8-1.8c0-.88.33-1.56 1-2.05s1.62-.73 2.83-.73h1.4v-.66c0-.5-.15-.9-.45-1.2-.3-.3-.75-.45-1.34-.45-.5 0-.95.13-1.3.4s-.52.58-.52.95h-1.45c0-.42.15-.83.44-1.22a3.1 3.1 0 0 1 1.22-.94c.5-.23 1.08-.34 1.7-.34.97 0 1.74.24 2.3.73.55.48.84 1.15.86 2v3.9c0 .78.1 1.4.3 1.85v.13h-1.52zm-2.4-1.1c.45 0 .88-.12 1.3-.35s.7-.54.88-.9v-1.74h-1.13c-1.77 0-2.66.52-2.66 1.56 0 .45.15.8.45 1.06s.7.38 1.16.38zm9.97-6.05a3.97 3.97 0 0 0-.7-.06c-.95 0-1.6.4-1.93 1.2v6h-1.45v-8.45h1.4l.02.98a2.26 2.26 0 0 1 2.02-1.13c.28 0 .5.04.64.1v1.34zm.83 2.86c0-1.3.3-2.34.92-3.12a2.9 2.9 0 0 1 2.41-1.19c1 0 1.77.34 2.35 1.02V127h1.44v12h-1.33l-.07-.9a2.96 2.96 0 0 1-2.4 1.06 2.9 2.9 0 0 1-2.4-1.2c-.6-.8-.92-1.85-.92-3.14v-.1zm1.45.16c0 .96.2 1.7.6 2.25s.94.8 1.64.8a2.1 2.1 0 0 0 2.01-1.24v-3.88c-.43-.8-1.1-1.2-2-1.2-.7 0-1.26.27-1.66.82s-.6 1.36-.6 2.43zM610.7 137l1.62-6.46h1.45L611.3 139h-1.17l-2.05-6.4-2 6.4h-1.17l-2.45-8.45h1.44l1.66 6.33 1.97-6.33h1.16l2 6.46zm9.76 2a3.1 3.1 0 0 1-.2-.9 3.2 3.2 0 0 1-2.4 1.05 3 3 0 0 1-2.06-.7 2.3 2.3 0 0 1-.8-1.8c0-.88.33-1.56 1-2.05.67-.5 1.62-.73 2.83-.73h1.4v-.66c0-.5-.15-.9-.45-1.2-.3-.3-.75-.45-1.34-.45-.52 0-.95.13-1.3.4s-.52.58-.52.95h-1.45c0-.42.15-.83.45-1.22a3.1 3.1 0 0 1 1.22-.94 4.13 4.13 0 0 1 1.7-.34c.97 0 1.74.24 2.3.73.55.48.84 1.15.86 2v3.9c0 .78.1 1.4.3 1.85v.13h-1.52zm-2.4-1.1c.45 0 .88-.12 1.3-.35s.7-.54.88-.9v-1.74h-1.13c-1.77 0-2.66.52-2.66 1.56 0 .45.15.8.45 1.06s.7.38 1.16.38zm9.97-6.05a3.97 3.97 0 0 0-.7-.06c-.95 0-1.6.4-1.93 1.2v6h-1.45v-8.45h1.4l.02.98a2.26 2.26 0 0 1 2.02-1.13c.28 0 .5.04.64.1v1.34zm4.7 7.3a3.7 3.7 0 0 1-2.8-1.12 4.2 4.2 0 0 1-1.08-3.02v-.27a5.1 5.1 0 0 1 .48-2.24c.32-.66.77-1.18 1.34-1.55.58-.37 1.2-.56 1.88-.56 1.1 0 1.95.36 2.56 1.1a4.7 4.7 0 0 1 .91 3.11v.6h-5.73a3 3 0 0 0 .73 2.02c.47.5 1.06.77 1.78.77.5 0 .94-.1 1.3-.3s.66-.48.93-.83l.88.7c-.7 1.1-1.77 1.63-3.2 1.63zm-.18-7.58c-.58 0-1.07.2-1.47.64s-.64 1.02-.73 1.78h4.23v-.1a2.7 2.7 0 0 0-.6-1.7c-.35-.4-.83-.6-1.44-.6zM204.02 120v-11.37H208c1.38 0 2.43.27 3.14.8a2.7 2.7 0 0 1 1.07 2.32c0 .56-.14 1.05-.43 1.48s-.7.73-1.2.93c.58.15 1.04.44 1.38.88a2.6 2.6 0 0 1 .51 1.63 3 3 0 0 1-1.05 2.48c-.7.56-1.7.85-2.98.86h-4.42zm2.34-4.95v3.07h2c.55 0 .98-.13 1.3-.4.3-.27.47-.63.47-1.1 0-1.04-.54-1.57-1.62-1.6h-2.15zm0-1.66h1.73c1.18-.02 1.77-.5 1.77-1.4 0-.52-.15-.9-.45-1.1-.3-.23-.77-.34-1.4-.34h-1.64v2.87zm11.62 6.77a4.16 4.16 0 0 1-3.03-1.14 4.04 4.04 0 0 1-1.16-3.04v-.22a5.1 5.1 0 0 1 .49-2.27 3.6 3.6 0 0 1 1.39-1.55 3.9 3.9 0 0 1 2.06-.55c1.16 0 2.06.36 2.73 1.1.67.73 1 1.76 1 3.1v.92h-5.38a2.1 2.1 0 0 0 .66 1.33c.37.33.84.5 1.4.5.87 0 1.55-.3 2.04-.94l1.1 1.24a3.4 3.4 0 0 1-1.37 1.13 4.5 4.5 0 0 1-1.92.4zm-.26-6.94c-.45 0-.8.15-1.1.45s-.45.73-.53 1.3h3.14v-.18c-.01-.5-.15-.9-.4-1.16s-.63-.4-1.1-.4zm9.6 4.45c0-.28-.14-.5-.4-.65-.27-.16-.7-.3-1.3-.43-2-.42-3.02-1.28-3.02-2.56 0-.75.3-1.37.93-1.87s1.44-.76 2.44-.76c1.07 0 1.93.25 2.57.76.65.5.97 1.16.97 1.97h-2.26c0-.32-.1-.6-.3-.8s-.53-.32-.98-.32c-.38 0-.67.1-.88.26s-.3.4-.3.66c0 .25.12.45.35.6s.64.28 1.2.4c.56.1 1.04.23 1.42.38 1.2.44 1.8 1.2 1.8 2.27 0 .77-.33 1.4-1 1.88a4.3 4.3 0 0 1-2.56.71c-.7 0-1.34-.12-1.9-.37a3.2 3.2 0 0 1-1.29-1.04c-.3-.44-.47-.92-.47-1.43h2.14c.02.4.17.7.44.92s.65.32 1.1.32c.43 0 .76-.08.98-.24a.79.79 0 0 0 .34-.65zm6.36-8.2v2.08h1.44v1.66h-1.44v4.22c0 .3.06.54.18.67s.35.2.7.2c.25 0 .47-.02.66-.05v1.7c-.44.14-.9.2-1.37.2-1.58 0-2.4-.8-2.42-2.4v-4.55h-1.23v-1.66h1.23v-2.08h2.26zm16.1 10.53h-2.34v-4.87h-4.57V120h-2.34v-11.37h2.34v4.6h4.57v-4.6h2.34V120zm6.97-.86a2.82 2.82 0 0 1-2.3 1.02c-.9 0-1.6-.26-2.08-.78s-.72-1.28-.73-2.3v-5.54h2.26V117c0 .88.4 1.32 1.2 1.32.77 0 1.3-.27 1.58-.8v-5.98h2.27V120h-2.12l-.06-.86zm11.5-3.3c0 1.35-.3 2.4-.87 3.17s-1.4 1.13-2.42 1.13c-.92 0-1.65-.35-2.2-1.05l-.1.9h-2.03v-12h2.26v4.3c.52-.6 1.2-.9 2.05-.9 1.03 0 1.84.38 2.42 1.14.6.75.88 1.82.88 3.2v.13zm-2.26-.16c0-.86-.13-1.48-.4-1.87s-.68-.6-1.2-.6c-.72 0-1.2.3-1.48.88v3.34c.28.6.78.9 1.5.9s1.2-.36 1.44-1.08c.1-.34.16-.87.16-1.57zm-58.32 18.24a6.87 6.87 0 0 1-2.8-1.36 2.61 2.61 0 0 1-.87-2c0-.9.36-1.63 1.07-2.22.72-.6 1.65-.88 2.8-.88.78 0 1.48.15 2.1.45a3.4 3.4 0 0 1 1.42 1.25c.34.53.5 1.1.5 1.74h-1.5c0-.7-.22-1.23-.66-1.62s-1.06-.6-1.85-.6c-.74 0-1.32.16-1.74.5-.4.32-.62.77-.62 1.35 0 .46.2.86.6 1.18.4.32 1.06.6 2 .88.95.26 1.7.56 2.22.88.54.32.93.7 1.2 1.12s.4.93.4 1.5c0 .92-.36 1.66-1.08 2.22a4.6 4.6 0 0 1-2.88.83 5.4 5.4 0 0 1-2.19-.44c-.68-.3-1.2-.7-1.57-1.23s-.55-1.1-.55-1.77h1.5c0 .7.25 1.23.76 1.63.5.4 1.2.6 2.04.6.8 0 1.4-.16 1.82-.5s.63-.76.63-1.32-.2-1-.6-1.3a6.7 6.7 0 0 0-2.12-.91zm7.37-2.36a3.03 3.03 0 0 1 2.5-1.18c1.8 0 2.7 1 2.7 3.02v5.6h-1.44v-5.6c0-.6-.15-1.06-.42-1.35-.27-.3-.7-.44-1.27-.44-.47 0-.88.13-1.24.38s-.63.58-.83 1V139h-1.44v-12h1.44v4.57zm12.6 7.43a3.1 3.1 0 0 1-.2-.9 3.2 3.2 0 0 1-2.4 1.05 3 3 0 0 1-2.05-.7 2.3 2.3 0 0 1-.8-1.8c0-.88.33-1.56 1-2.05.67-.5 1.62-.73 2.83-.73h1.4v-.66c0-.5-.15-.9-.45-1.2-.3-.3-.75-.45-1.34-.45-.52 0-.95.13-1.3.4s-.52.58-.52.95h-1.45c0-.42.15-.83.44-1.22a3.1 3.1 0 0 1 1.22-.94 4.13 4.13 0 0 1 1.7-.34c.97 0 1.74.24 2.3.73.55.48.84 1.15.86 2v3.9c0 .78.1 1.4.3 1.85v.13h-1.52zm-2.4-1.1c.45 0 .88-.12 1.3-.35s.7-.54.88-.9v-1.74h-1.13c-1.77 0-2.66.52-2.66 1.56 0 .45.15.8.45 1.06s.7.38 1.16.38zm9.97-6.05a3.88 3.88 0 0 0-.7-.06c-.95 0-1.6.4-1.93 1.2v6h-1.45v-8.45h1.4l.02.98a2.26 2.26 0 0 1 2.02-1.13c.28 0 .5.04.64.1v1.34zm4.7 7.3a3.7 3.7 0 0 1-2.8-1.12 4.2 4.2 0 0 1-1.08-3.02v-.27a5.1 5.1 0 0 1 .48-2.24c.32-.66.77-1.18 1.34-1.55s1.2-.56 1.88-.56c1.1 0 1.95.36 2.56 1.1a4.7 4.7 0 0 1 .91 3.11v.6h-5.73a3 3 0 0 0 .73 2.02c.47.5 1.06.77 1.78.77.5 0 .94-.1 1.3-.3s.66-.48.93-.83l.88.7c-.7 1.1-1.77 1.63-3.2 1.63zm-.18-7.58c-.58 0-1.07.2-1.47.64s-.64 1.02-.73 1.78h4.23v-.1a2.7 2.7 0 0 0-.6-1.7c-.35-.4-.83-.6-1.44-.6zm4.8 3.13c0-1.3.3-2.34.92-3.12a2.9 2.9 0 0 1 2.41-1.19c1 0 1.77.34 2.35 1.02V127h1.45v12h-1.33l-.07-.9a2.96 2.96 0 0 1-2.4 1.06 2.9 2.9 0 0 1-2.4-1.2 4.99 4.99 0 0 1-.92-3.14v-.1zm1.44.16c0 .96.2 1.7.6 2.25s.94.8 1.64.8a2.1 2.1 0 0 0 2.01-1.24v-3.88c-.43-.8-1.1-1.2-2-1.2-.7 0-1.26.27-1.66.82s-.6 1.36-.6 2.43zM258.1 139v-11.37h3.72c1.23 0 2.16.25 2.78.77s.94 1.27.94 2.27c0 .53-.15 1-.45 1.4s-.7.72-1.23.95a2.6 2.6 0 0 1 1.45.98c.36.48.54 1.05.54 1.72 0 1.02-.33 1.82-1 2.4s-1.6.88-2.8.88h-3.94zm1.5-5.32v4.1h2.48c.7 0 1.25-.18 1.65-.54s.6-.86.6-1.5c0-1.37-.74-2.05-2.23-2.05h-2.5zm0-1.2h2.27c.66 0 1.18-.16 1.57-.5s.6-.77.6-1.34c0-.62-.18-1.08-.55-1.36s-.92-.43-1.66-.43h-2.22v3.62zm11 4.4l1.97-6.34h1.55l-3.4 9.76c-.53 1.4-1.36 2.1-2.5 2.1h-.27l-.54-.1v-1.17l.4.03c.5 0 .87-.1 1.14-.3s.5-.56.68-1.1l.32-.86-3.02-8.36h1.58l2.1 6.34zm17.76-3.2c0 1.1-.2 2.1-.56 2.92a4.18 4.18 0 0 1-4 2.56c-.9 0-1.7-.22-2.38-.66a4.4 4.4 0 0 1-1.62-1.88 7.15 7.15 0 0 1-.6-2.84v-.82c0-1.1.2-2.06.57-2.9s.92-1.48 1.6-1.92c.7-.45 1.5-.67 2.4-.67.9 0 1.7.22 2.4.66a4.2 4.2 0 0 1 1.61 1.91c.38.83.56 1.8.56 2.9v.72zm-1.5-.74c0-1.35-.27-2.38-.8-3.1a2.7 2.7 0 0 0-2.27-1.1c-.95 0-1.7.36-2.24 1.1a5 5 0 0 0-.84 3v.84c0 1.3.27 2.34.82 3.1.55.74 1.3 1.12 2.27 1.12s1.72-.35 2.25-1.06.8-1.72.82-3.04v-.84zm7.6-1.1a3.97 3.97 0 0 0-.7-.06 1.9 1.9 0 0 0-1.93 1.21v6h-1.44v-8.45h1.4l.02.98a2.25 2.25 0 0 1 2-1.13c.28 0 .5.04.64.1v1.34zm.84 2.86c0-1.32.3-2.36.9-3.14s1.42-1.17 2.42-1.17a2.9 2.9 0 0 1 2.41 1.09l.07-.94h1.32v8.25c0 1.1-.33 1.96-.98 2.6s-1.52.94-2.6.94c-.6 0-1.2-.13-1.8-.4s-1.03-.62-1.34-1.07l.75-.87a2.82 2.82 0 0 0 2.27 1.15 2.2 2.2 0 0 0 1.64-.59c.4-.4.6-.95.6-1.67v-.73c-.58.67-1.37 1-2.37 1a2.9 2.9 0 0 1-2.41-1.19 5.3 5.3 0 0 1-.9-3.26zm1.45.16a3.8 3.8 0 0 0 .59 2.25 1.9 1.9 0 0 0 1.64.81c.9 0 1.58-.4 2-1.24v-3.86c-.44-.8-1.1-1.2-2-1.2-.7 0-1.25.27-1.65.82s-.6 1.36-.6 2.43z"/></g><g fill="#f0a30a" stroke="#bd7000" class="b"><use xlink:href="#b"/><use y="59" xlink:href="#b"/><use xlink:href="#c"/></g><use y="57" fill="#00188d" class="b d" xlink:href="#c"/><g class="c"><path d="M686.48 243.26a5.5 5.5 0 0 1-1.75 3.66 5.74 5.74 0 0 1-3.9 1.28 5.28 5.28 0 0 1-4.25-1.9c-1.06-1.26-1.6-2.96-1.6-5.08v-1.44c0-1.4.25-2.6.74-3.66a5.6 5.6 0 0 1 2.1-2.42 5.8 5.8 0 0 1 3.16-.85c1.6 0 2.86.44 3.8 1.33.96.88 1.5 2.1 1.67 3.67h-1.98c-.17-1.2-.54-2.05-1.12-2.58a3.38 3.38 0 0 0-2.4-.8 3.5 3.5 0 0 0-2.96 1.4c-.7.93-1.07 2.25-1.07 3.97v1.45c0 1.62.34 2.9 1.02 3.87s1.62 1.44 2.84 1.44c1.1 0 1.93-.25 2.5-.74.6-.5.98-1.36 1.17-2.6h1.98zm4.3-5a4.03 4.03 0 0 1 3.28-1.55c2.34 0 3.53 1.32 3.55 3.97V248h-1.9v-7.34c-.01-.8-.2-1.4-.55-1.77-.36-.38-.9-.57-1.67-.57-.62 0-1.16.16-1.62.5s-.83.76-1.1 1.3v7.9h-1.9v-15.75h1.9v6zm15.03.36a5.8 5.8 0 0 0-.93-.07c-1.25 0-2.1.53-2.53 1.6V248h-1.9v-11.1h1.85l.03 1.28c.62-1 1.5-1.5 2.65-1.5.37 0 .65.05.84.14v1.76zm1.05 3.74a6.6 6.6 0 0 1 .63-2.93 4.76 4.76 0 0 1 1.78-2c.76-.47 1.64-.7 2.6-.7 1.5 0 2.73.52 3.66 1.57a6.01 6.01 0 0 1 1.4 4.17v.13a6.6 6.6 0 0 1-.63 2.91c-.4.85-1 1.52-1.77 2a4.9 4.9 0 0 1-2.65.72c-1.5 0-2.72-.52-3.66-1.57a6.02 6.02 0 0 1-1.4-4.15v-.13zm1.9.23c0 1.23.28 2.22.85 2.96.57.75 1.34 1.12 2.3 1.12s1.73-.38 2.3-1.13a5.2 5.2 0 0 0 .85-3.18 4.7 4.7 0 0 0-.87-2.95 2.73 2.73 0 0 0-2.3-1.14 2.7 2.7 0 0 0-2.27 1.12c-.57.75-.86 1.8-.86 3.2zm12.36-5.67l.05 1.23a4.1 4.1 0 0 1 3.29-1.44c1.55 0 2.6.6 3.17 1.78a4.4 4.4 0 0 1 1.44-1.3 4.3 4.3 0 0 1 2.1-.5c2.43 0 3.67 1.3 3.7 3.87V248h-1.9v-7.32c0-.8-.18-1.38-.54-1.77-.36-.4-.97-.6-1.82-.6a2.5 2.5 0 0 0-1.75.64c-.46.42-.73.98-.8 1.7V248h-1.9v-7.27a2.1 2.1 0 0 0-2.37-2.42c-1.25 0-2.1.53-2.55 1.6v8.1h-1.9v-11.1h1.8zm21.24 11.3c-1.5 0-2.73-.5-3.67-1.48-.94-1-1.4-2.3-1.4-3.97v-.35a6.5 6.5 0 0 1 .63-2.94c.42-.87 1-1.54 1.76-2.03a4.4 4.4 0 0 1 2.46-.74c1.44 0 2.56.48 3.36 1.43s1.2 2.3 1.2 4.08v.8h-7.52c.03 1.1.35 1.98.95 2.66.62.67 1.4 1 2.34 1a3.3 3.3 0 0 0 1.7-.41 4.3 4.3 0 0 0 1.22-1.09l1.16.9a4.65 4.65 0 0 1-4.18 2.14zm-.24-9.95c-.77 0-1.4.28-1.93.84a4 4 0 0 0-.96 2.34h5.56v-.14c-.05-.96-.3-1.7-.78-2.24a2.4 2.4 0 0 0-1.9-.8zm21.42-4.12l-6.2 13.85h-2l6.16-13.37h-8.08v-1.56h10.1v1.07zm3.02 6.38l.76-7.44h7.65v1.75h-6.04l-.45 4.07a4.8 4.8 0 0 1 2.49-.65 4.1 4.1 0 0 1 3.24 1.35c.8.9 1.2 2.1 1.2 3.64a5.1 5.1 0 0 1-1.25 3.64c-.83.88-2 1.32-3.48 1.32-1.32 0-2.4-.37-3.23-1.1s-1.3-1.74-1.43-3.03h1.8c.12.85.42 1.5.9 1.94.5.43 1.14.65 1.95.65.88 0 1.57-.3 2.07-.9s.76-1.43.76-2.5c0-1-.27-1.8-.82-2.4-.54-.6-1.26-.9-2.16-.9-.83 0-1.48.18-1.95.54l-.5.4-1.52-.4zm-80.34 61.73a5.5 5.5 0 0 1-1.75 3.66 5.7 5.7 0 0 1-3.9 1.28 5.28 5.28 0 0 1-4.25-1.9c-1.06-1.26-1.6-2.96-1.6-5.08v-1.44c0-1.4.25-2.6.74-3.66a5.6 5.6 0 0 1 2.1-2.42 5.8 5.8 0 0 1 3.16-.85c1.6 0 2.86.44 3.8 1.33.96.88 1.5 2.1 1.67 3.67h-1.98c-.17-1.2-.54-2.05-1.12-2.58a3.38 3.38 0 0 0-2.4-.8 3.5 3.5 0 0 0-2.96 1.4c-.7.93-1.07 2.25-1.07 3.97v1.45c0 1.62.34 2.9 1.02 3.87s1.62 1.44 2.84 1.44c1.1 0 1.93-.25 2.5-.74.6-.5.98-1.36 1.17-2.6h1.98zm4.3-5a4.05 4.05 0 0 1 3.28-1.55c2.34 0 3.53 1.32 3.55 3.97V307h-1.9v-7.34c-.01-.8-.2-1.4-.55-1.77-.36-.38-.9-.57-1.67-.57-.62 0-1.15.16-1.62.5s-.83.76-1.1 1.3v7.9h-1.9v-15.75h1.9v6zm15.03.36a5.8 5.8 0 0 0-.93-.07c-1.24 0-2.1.53-2.53 1.6V307h-1.9v-11.1h1.84l.03 1.28c.62-1 1.5-1.5 2.65-1.5.37 0 .65.05.84.14v1.76zm1.05 3.74a6.6 6.6 0 0 1 .64-2.93 4.7 4.7 0 0 1 1.78-2 4.9 4.9 0 0 1 2.62-.71c1.5 0 2.73.52 3.66 1.57a6.01 6.01 0 0 1 1.4 4.17v.13a6.6 6.6 0 0 1-.62 2.91c-.4.85-1 1.52-1.77 2a4.9 4.9 0 0 1-2.64.72c-1.5 0-2.73-.52-3.66-1.57s-1.4-2.43-1.4-4.15v-.13zm1.9.23c0 1.23.28 2.22.85 2.96.57.75 1.34 1.12 2.3 1.12s1.73-.38 2.3-1.13a5.2 5.2 0 0 0 .85-3.18 4.7 4.7 0 0 0-.87-2.95 2.73 2.73 0 0 0-2.3-1.14 2.7 2.7 0 0 0-2.27 1.12c-.57.75-.86 1.8-.86 3.2zm12.36-5.67l.05 1.23a4.1 4.1 0 0 1 3.29-1.44c1.55 0 2.6.6 3.17 1.78.37-.53.85-.96 1.43-1.3a4.3 4.3 0 0 1 2.1-.49c2.43 0 3.67 1.3 3.7 3.87V307h-1.9v-7.32c0-.8-.18-1.38-.54-1.77-.36-.4-.97-.6-1.83-.6a2.5 2.5 0 0 0-1.75.64c-.47.42-.74.98-.8 1.7V307h-1.9v-7.27a2.1 2.1 0 0 0-2.37-2.42c-1.24 0-2.1.53-2.55 1.6v8.1h-1.9v-11.1h1.8zm21.24 11.3c-1.5 0-2.73-.5-3.67-1.48-.94-1-1.42-2.3-1.42-3.97v-.35a6.5 6.5 0 0 1 .63-2.94 4.8 4.8 0 0 1 1.76-2.03 4.4 4.4 0 0 1 2.46-.74c1.44 0 2.56.48 3.36 1.43s1.2 2.3 1.2 4.08v.8h-7.52c.03 1.1.35 1.98.95 2.66.62.67 1.4 1 2.34 1a3.3 3.3 0 0 0 1.7-.41c.46-.27.87-.64 1.22-1.1l1.16.9a4.65 4.65 0 0 1-4.18 2.14zm-.24-9.95c-.77 0-1.4.28-1.93.84a4 4 0 0 0-.96 2.34h5.56v-.14a3.6 3.6 0 0 0-.78-2.23c-.47-.53-1.1-.8-1.9-.8zm21.42-4.12L757.1 307h-2l6.16-13.37h-8.08v-1.56h10.1v1.07zm3.02 6.38l.76-7.44h7.65v1.75h-6.04l-.45 4.07a4.8 4.8 0 0 1 2.49-.65 4.1 4.1 0 0 1 3.24 1.35c.8.9 1.2 2.1 1.2 3.64a5.1 5.1 0 0 1-1.25 3.64c-.83.88-2 1.32-3.48 1.32-1.32 0-2.4-.37-3.23-1.1s-1.3-1.74-1.43-3.04h1.8c.12.85.42 1.5.9 1.94.5.43 1.14.65 1.95.65.88 0 1.57-.3 2.07-.9s.76-1.43.76-2.5c0-1-.27-1.8-.82-2.4-.54-.6-1.26-.9-2.16-.9-.83 0-1.48.18-1.95.54l-.5.4-1.52-.4zm-80.08 61.73a5.5 5.5 0 0 1-1.75 3.66 5.7 5.7 0 0 1-3.9 1.28 5.28 5.28 0 0 1-4.25-1.9c-1.06-1.26-1.6-2.96-1.6-5.08v-1.44c0-1.4.25-2.6.74-3.66a5.6 5.6 0 0 1 2.1-2.42 5.8 5.8 0 0 1 3.16-.85c1.6 0 2.86.44 3.8 1.33.96.88 1.5 2.1 1.67 3.67h-1.98c-.17-1.2-.54-2.05-1.12-2.58a3.38 3.38 0 0 0-2.4-.8 3.5 3.5 0 0 0-2.96 1.4c-.7.93-1.07 2.25-1.07 3.97v1.45c0 1.62.34 2.9 1.02 3.87s1.62 1.44 2.84 1.44c1.1 0 1.93-.25 2.5-.74.6-.5.98-1.36 1.17-2.6h1.98zm4.3-5a4.05 4.05 0 0 1 3.28-1.55c2.34 0 3.53 1.32 3.55 3.97V366h-1.9v-7.34c-.01-.8-.2-1.4-.55-1.77-.36-.38-.9-.57-1.67-.57-.62 0-1.15.16-1.62.5s-.83.76-1.1 1.3v7.9h-1.9v-15.75h1.9v6zm15.03.36a5.8 5.8 0 0 0-.93-.07c-1.24 0-2.1.53-2.53 1.6V366h-1.9v-11.1h1.84l.03 1.28c.62-1 1.5-1.5 2.65-1.5.37 0 .65.05.84.14v1.76zm1.05 3.74a6.6 6.6 0 0 1 .64-2.93 4.7 4.7 0 0 1 1.78-2 4.9 4.9 0 0 1 2.62-.71c1.5 0 2.73.52 3.66 1.57a6.01 6.01 0 0 1 1.4 4.17v.13a6.6 6.6 0 0 1-.62 2.91c-.4.85-1 1.52-1.77 2a4.9 4.9 0 0 1-2.64.72c-1.5 0-2.73-.52-3.66-1.57s-1.4-2.43-1.4-4.15v-.13zm1.9.23c0 1.23.28 2.22.85 2.96.57.75 1.34 1.12 2.3 1.12s1.73-.38 2.3-1.13a5.2 5.2 0 0 0 .85-3.18 4.7 4.7 0 0 0-.87-2.95 2.73 2.73 0 0 0-2.3-1.14 2.7 2.7 0 0 0-2.27 1.12c-.57.75-.86 1.8-.86 3.2zm12.36-5.67l.05 1.23a4.1 4.1 0 0 1 3.29-1.44c1.55 0 2.6.6 3.17 1.78.37-.53.85-.96 1.43-1.3a4.3 4.3 0 0 1 2.1-.49c2.43 0 3.67 1.3 3.7 3.87V366h-1.9v-7.32c0-.8-.18-1.38-.54-1.77-.36-.4-.97-.6-1.83-.6a2.5 2.5 0 0 0-1.75.64c-.47.42-.74.98-.8 1.7V366h-1.9v-7.27a2.1 2.1 0 0 0-2.37-2.42c-1.24 0-2.1.53-2.55 1.6v8.1h-1.9v-11.1h1.8zm21.24 11.3c-1.5 0-2.73-.5-3.67-1.48-.94-1-1.42-2.3-1.42-3.97v-.35a6.5 6.5 0 0 1 .63-2.94 4.8 4.8 0 0 1 1.76-2.03 4.4 4.4 0 0 1 2.46-.74c1.44 0 2.56.48 3.36 1.43s1.2 2.3 1.2 4.08v.8h-7.52c.03 1.1.35 1.98.95 2.66.62.67 1.4 1 2.34 1a3.3 3.3 0 0 0 1.7-.41c.46-.27.87-.64 1.22-1.1l1.16.9a4.65 4.65 0 0 1-4.18 2.14zm-.24-9.95c-.77 0-1.4.28-1.93.84a4 4 0 0 0-.96 2.34h5.56v-.14a3.6 3.6 0 0 0-.78-2.23c-.47-.53-1.1-.8-1.9-.8zm21.42-4.12L757.1 366h-2l6.16-13.37h-8.08v-1.56h10.1v1.07zm10.16 8.85h2.07v1.55h-2.07V366h-1.9v-3.47h-6.8v-1.12l6.7-10.35h2.02V361zm-6.55 0h4.65v-7.32l-.23.4-4.42 6.9zm-89.54 60h-1.97v-14.93h1.97V421zm12.05-6.9h-6.47v5.3h7.52v1.6h-9.48v-14.93h9.38v1.62h-7.4v4.8h6.47v1.6zm14.45 6.9h-1.9v-12.64l-3.82 1.4v-1.72l5.43-2.04h.3v15zm11.8 0h-1.9v-12.64l-3.83 1.4v-1.72l5.44-2.04h.3v15z"/><use class="b d e" xlink:href="#d"/></g><path d="M70.5 333.5h65" class="b d e"/><path fill="#647687" stroke="#314354" d="M1.5 317.8L34 337.15v38.35L1.5 356.16V317.8zm1.6-3.64l14.2-8.6 32.97 19.58-14.36 8.52-32.82-19.5zm51.2 8.5l-32.97-19.5 14.76-8.68L68.82 314l-14.53 8.67zm16.2-4.8v38.2L38.1 375.4v-38.2l32.4-19.34z" class="b"/><path d="M69.5 233.5h62v100h59.9" class="b d e"/><path fill="#76608a" stroke="#432d57" d="M.5 216.8L33 236.15v38.35L.5 255.16V216.8zm1.6-3.64l14.2-8.6 32.97 19.58-14.36 8.52-32.82-19.5zm51.2 8.5l-32.97-19.5 14.76-8.68L67.82 213l-14.53 8.67zm16.2-4.8v38.2L37.1 274.4v-38.2l32.4-19.34z" class="b"/><path d="M70.5 425.5h61v-92h59.9" class="b d e"/><path fill="#6d8764" stroke="#3a5431" d="M1.5 408.8L34 428.15v38.35L1.5 447.16V408.8zm1.6-3.64l14.2-8.6 32.97 19.58-14.36 8.52-32.82-19.5zm51.2 8.5l-32.97-19.5 14.76-8.68L68.82 405l-14.53 8.67zm16.2-4.8v38.2L38.1 466.4v-38.2l32.4-19.34z" class="b"/><g class="d e b"><path d="M373.5 319.5h59v-85h48.9"/><use x="290" y="-99" class="c" xlink:href="#d"/><path d="M373.5 319.5h59v-26h48.9"/><use x="290" y="-40" class="c" xlink:href="#d"/><path d="M373.5 319.5h59v33h47.9"/><use x="289" y="19" class="c" xlink:href="#d"/></g><path fill="#f5f5f5" stroke="#666" d="M203.7 299.33a6.9 6.9 0 0 1 6.85-6.63h155.94a6.9 6.9 0 0 1 6.85 6.63l.17 40.15c0 1.88-.74 3.68-2.07 5a6.8 6.8 0 0 1-4.95 1.98H210.54a6.9 6.9 0 0 1-6.85-6.98v-40.15zm20.54 34.4c0-3.38-2.68-6.1-6-6.1s-6 2.73-6 6.1c0 3.37 2.68 6.1 6 6.1s6-2.74 6-6.1zm102.7-.53a1.9 1.9 0 0 0-1.88 1.92 1.9 1.9 0 0 0 1.88 1.92h34.23c1.04 0 1.9-.86 1.9-1.92s-.85-1.92-1.9-1.92h-34.23zm0-6.63a1.9 1.9 0 0 0-1.88 1.92 1.9 1.9 0 0 0 1.88 1.92h34.23c1.04 0 1.9-.86 1.9-1.92s-.85-1.92-1.9-1.92h-34.23zm0-6.8a1.9 1.9 0 0 0-1.88 1.92 1.9 1.9 0 0 0 1.88 1.92h34.23c1.04 0 1.9-.86 1.9-1.92s-.85-1.92-1.9-1.92h-34.23zM203.5 241.13a6.9 6.9 0 0 1 6.85-6.63H366.3a6.9 6.9 0 0 1 6.85 6.63l.17 40.15c0 1.88-.74 3.7-2.06 5a6.75 6.75 0 0 1-4.96 1.98H210.35a6.91 6.91 0 0 1-6.85-6.98v-40.15zm20.54 34.4c0-3.37-2.68-6.1-6-6.1s-6 2.74-6 6.1 2.68 6.1 6 6.1 6-2.74 6-6.1zm102.7-.52a1.9 1.9 0 0 0-1.88 1.92 1.9 1.9 0 0 0 1.88 1.92H361a1.9 1.9 0 0 0 1.88-1.92 1.9 1.9 0 0 0-1.88-1.92h-34.24zm0-6.64a1.9 1.9 0 0 0-1.88 1.92 1.9 1.9 0 0 0 1.88 1.92H361a1.9 1.9 0 0 0 1.88-1.92 1.9 1.9 0 0 0-1.88-1.92h-34.24zm0-6.8a1.9 1.9 0 0 0-1.88 1.92 1.9 1.9 0 0 0 1.88 1.92H361a1.9 1.9 0 0 0 1.88-1.92 1.9 1.9 0 0 0-1.88-1.92h-34.24zM203.7 357.32a6.9 6.9 0 0 1 6.85-6.64h155.94a6.92 6.92 0 0 1 6.85 6.64l.17 40.15c0 1.88-.74 3.68-2.07 5a6.8 6.8 0 0 1-4.95 1.98H210.54a6.9 6.9 0 0 1-6.85-6.98v-40.15zm20.54 34.4c0-3.38-2.68-6.1-6-6.1s-6 2.73-6 6.1c0 3.37 2.68 6.1 6 6.1s6-2.73 6-6.1zm102.7-.53a1.9 1.9 0 0 0-1.88 1.92 1.9 1.9 0 0 0 1.88 1.92h34.23c1.04 0 1.9-.86 1.9-1.92s-.85-1.92-1.9-1.92h-34.23zm0-6.63a1.9 1.9 0 0 0-1.88 1.92 1.9 1.9 0 0 0 1.88 1.92h34.23c1.04 0 1.9-.86 1.9-1.92s-.85-1.92-1.9-1.92h-34.23zm0-6.8a1.9 1.9 0 0 0-1.88 1.92 1.9 1.9 0 0 0 1.88 1.92h34.23c1.04 0 1.9-.86 1.9-1.92s-.85-1.92-1.9-1.92h-34.23z" class="b"/><g class="d e b"><path d="M373.5 319.5h58v90h48.9"/><use x="289" y="76" class="c" xlink:href="#d"/></g><path d="M240.1 11.65h-9.14V37h-3.73V11.65h-9.12v-3.1h22v3.1zm7.27 6.78a7.7 7.7 0 0 1 6.25-2.95c4.47 0 6.72 2.52 6.76 7.56V37h-3.6V23.02c-.01-1.52-.36-2.65-1.05-3.38-.68-.73-1.74-1.1-3.18-1.1a5.2 5.2 0 0 0-3.09.94 6.28 6.28 0 0 0-2.07 2.46V37h-3.6V7h3.6v11.43zm27.2 18.96c-2.86 0-5.2-.94-7-2.8-1.8-1.9-2.7-4.4-2.7-7.56v-.66a12.7 12.7 0 0 1 1.19-5.61 9.4 9.4 0 0 1 3.36-3.87 8.4 8.4 0 0 1 4.7-1.4c2.75 0 4.88.9 6.4 2.7s2.3 4.4 2.3 7.77v1.5H268.5a7.58 7.58 0 0 0 1.82 5.06 5.76 5.76 0 0 0 4.45 1.9 6.3 6.3 0 0 0 3.24-.78 8 8 0 0 0 2.32-2.07l2.2 1.72c-1.77 2.72-4.43 4.08-7.97 4.08zm-.45-18.95a4.8 4.8 0 0 0-3.67 1.6c-1 1.05-1.6 2.54-1.84 4.45h10.6v-.27c-.1-1.84-.6-3.26-1.48-4.26a4.5 4.5 0 0 0-3.6-1.52zm25.5-8.8l-.6 7h-2.17l.02-9.65h2.73v2.66zm5.27 0l-.6 7h-2.17l.02-9.65h2.73v2.66zM310.3 37V8.56h9.3c3.1 0 5.4.64 6.95 1.9 1.56 1.28 2.34 3.16 2.34 5.66a5.8 5.8 0 0 1-1.13 3.54 7.4 7.4 0 0 1-3.09 2.36 6.5 6.5 0 0 1 3.63 2.46 6.96 6.96 0 0 1 1.35 4.3 7.6 7.6 0 0 1-2.48 6.02c-1.65 1.46-4 2.2-7 2.2h-9.86zm3.75-13.3v10.23h6.2c1.75 0 3.12-.45 4.12-1.35a4.75 4.75 0 0 0 1.52-3.75c0-3.42-1.86-5.14-5.6-5.14h-6.25zm0-3h5.66a5.9 5.9 0 0 0 3.93-1.23 4.1 4.1 0 0 0 1.48-3.34c0-1.56-.46-2.7-1.37-3.4-.9-.72-2.3-1.07-4.16-1.07h-5.55v9.04zm29.38 16.7a9.3 9.3 0 0 1-7-2.8c-1.8-1.9-2.7-4.4-2.7-7.56v-.66a12.7 12.7 0 0 1 1.19-5.61 9.4 9.4 0 0 1 3.36-3.87 8.4 8.4 0 0 1 4.7-1.4c2.75 0 4.88.9 6.4 2.7s2.28 4.4 2.28 7.77v1.5h-14.32a7.58 7.58 0 0 0 1.82 5.06 5.76 5.76 0 0 0 4.45 1.9 6.3 6.3 0 0 0 3.24-.78c.9-.52 1.66-1.2 2.32-2.07l2.2 1.72c-1.77 2.72-4.43 4.08-7.97 4.08zm-.45-18.95a4.8 4.8 0 0 0-3.67 1.6c-1 1.05-1.6 2.54-1.84 4.45h10.6v-.27c-.1-1.84-.6-3.26-1.48-4.26a4.5 4.5 0 0 0-3.6-1.52zm25.2 12.95c0-.98-.37-1.73-1.1-2.27-.73-.55-2-1.02-3.85-1.4a18.4 18.4 0 0 1-4.36-1.41 6.3 6.3 0 0 1-2.38-1.95 4.8 4.8 0 0 1-.76-2.7c0-1.73.73-3.2 2.2-4.4s3.35-1.8 5.63-1.8c2.4 0 4.34.62 5.82 1.86a5.9 5.9 0 0 1 2.25 4.75H368c0-1-.42-1.84-1.27-2.56a4.67 4.67 0 0 0-3.16-1.07c-1.3 0-2.34.3-3.1.86a2.7 2.7 0 0 0-1.11 2.25c0 .87.35 1.53 1.04 1.97s1.93.87 3.73 1.27a20.2 20.2 0 0 1 4.4 1.45 6.13 6.13 0 0 1 2.48 2.03c.55.78.82 1.74.82 2.87a5.4 5.4 0 0 1-2.27 4.55c-1.5 1.13-3.47 1.7-5.88 1.7-1.7 0-3.2-.3-4.5-.9a7.4 7.4 0 0 1-3.07-2.5 6.14 6.14 0 0 1-1.1-3.5h3.6c.06 1.2.55 2.17 1.45 2.9a5.7 5.7 0 0 0 3.6 1.05 5.8 5.8 0 0 0 3.28-.82 2.58 2.58 0 0 0 1.25-2.23zm13.22-20.64v5.12h3.95v2.8h-3.95v13.1c0 .85.18 1.48.53 1.9s.95.63 1.8.63c.42 0 1-.08 1.72-.23V37c-.95.26-1.87.4-2.77.4-1.62 0-2.83-.5-3.65-1.46s-1.23-2.36-1.23-4.16v-13.1h-3.85v-2.8h3.85v-5.12h3.6zm10.86-1.1l-.6 7h-2.17V7h2.74v2.66zm5.27 0l-.6 7h-2.17L394.8 7h2.73v2.66zm20.2-1.1l9.3 23.2 9.3-23.2h4.86V37h-3.75V25.93l.35-11.95L428.45 37h-2.87l-9.32-22.97.37 11.9V37h-3.75V8.56h4.84zm28.56 17.68c0-2.07.4-3.93 1.2-5.6a9.2 9.2 0 0 1 3.4-3.83 9.3 9.3 0 0 1 4.98-1.35c2.88 0 5.2 1 6.97 3 1.78 2 2.68 4.64 2.68 7.95v.25c0 2.06-.4 3.9-1.2 5.55a8.9 8.9 0 0 1-3.38 3.81 9.3 9.3 0 0 1-5.04 1.37 8.9 8.9 0 0 1-6.97-2.99c-1.77-2-2.66-4.63-2.66-7.9v-.25zm3.63.43c0 2.34.54 4.23 1.62 5.64a5.25 5.25 0 0 0 4.38 2.13 5.2 5.2 0 0 0 4.38-2.15c1.08-1.45 1.62-3.46 1.62-6.05 0-2.32-.55-4.2-1.66-5.62a5.2 5.2 0 0 0-4.37-2.17 5.2 5.2 0 0 0-4.32 2.13c-1.1 1.42-1.64 3.45-1.64 6.1zm19.26-.4c0-3.24.77-5.85 2.3-7.8a7.3 7.3 0 0 1 6.04-2.97c2.47 0 4.43.85 5.88 2.54V7h3.6v30h-3.32l-.18-2.27c-1.45 1.77-3.46 2.66-6.04 2.66-2.45 0-4.45-1-6-3-1.54-2-2.3-4.62-2.3-7.85v-.27zm3.6.4c0 2.4.5 4.27 1.48 5.63a4.8 4.8 0 0 0 4.1 2.03c2.3 0 3.96-1.03 5.02-3.1v-9.7a5.3 5.3 0 0 0-4.98-2.99 4.8 4.8 0 0 0-4.14 2.05c-1 1.37-1.48 3.4-1.48 6.07zm28.6 10.72c-2.86 0-5.2-.94-7-2.8-1.8-1.9-2.7-4.4-2.7-7.56v-.66a12.7 12.7 0 0 1 1.19-5.61 9.4 9.4 0 0 1 3.36-3.87 8.4 8.4 0 0 1 4.7-1.4c2.75 0 4.88.9 6.4 2.7s2.3 4.4 2.3 7.77v1.5H495.3a7.58 7.58 0 0 0 1.82 5.06 5.76 5.76 0 0 0 4.45 1.9 6.3 6.3 0 0 0 3.24-.78c.9-.52 1.66-1.2 2.32-2.07l2.2 1.72c-1.77 2.72-4.43 4.08-7.97 4.08zm-.45-18.95a4.8 4.8 0 0 0-3.67 1.6c-1 1.05-1.6 2.54-1.84 4.45h10.6v-.27c-.1-1.84-.6-3.26-1.48-4.26a4.53 4.53 0 0 0-3.6-1.52zM517.77 37h-3.6V7h3.6v30zM8.44 117.66h-4.1l-.8 2.34h-2.5l4.23-11.37h2.17L11.72 120h-2.5l-.8-2.34zm-3.48-1.9H7.8l-1.43-4.26-1.4 4.26zm12.42-2.1a6.3 6.3 0 0 0-.8-.06c-.85 0-1.4.3-1.68.87V120h-2.26v-8.45h2.13l.06 1c.45-.78 1.08-1.16 1.88-1.16.25 0 .48.03.7.1l-.03 2.17zm4.2-4.2v2.08h1.45v1.66h-1.45v4.22c0 .3.06.54.18.67s.35.2.7.2c.25 0 .47-.02.66-.05v1.7a4.5 4.5 0 0 1-1.37.2c-1.58 0-2.4-.8-2.42-2.4v-4.55H18.1v-1.66h1.23v-2.08h2.26zm5.1 10.53H24.4v-8.45h2.27V120zm-2.4-10.64c0-.34.1-.62.34-.84.23-.22.54-.33.93-.33.4 0 .7.1.92.33s.34.5.34.84a1.1 1.1 0 0 1-.35.84c-.23.22-.53.33-.9.33s-.7-.1-.92-.33a1.1 1.1 0 0 1-.34-.84zM29.14 120v-6.8h-1.26v-1.66h1.26v-.72c0-.95.27-1.68.8-2.2.55-.53 1.3-.8 2.3-.8a5.3 5.3 0 0 1 1.15.16l-.02 1.75c-.2-.05-.42-.07-.7-.07-.85 0-1.27.4-1.27 1.2v.68h1.68v1.66H31.4v6.8h-2.27zm10.02 0c-.1-.2-.18-.46-.23-.76-.55.6-1.26.9-2.13.9a3 3 0 0 1-2.06-.72 2.3 2.3 0 0 1-.8-1.8c0-.9.33-1.58 1-2.06s1.63-.72 2.88-.73h1.04v-.48c0-.4-.1-.7-.3-.94-.2-.23-.5-.35-.95-.35-.38 0-.68.1-.9.27a.97.97 0 0 0-.32.75h-2.3c0-.5.15-.94.45-1.36s.73-.74 1.28-.98a4.6 4.6 0 0 1 1.86-.36 3.6 3.6 0 0 1 2.48.8c.6.52.92 1.25.92 2.2v3.66c.01.8.12 1.4.34 1.82v.13h-2.28zm-1.87-1.57c.33 0 .64-.07.92-.22s.5-.35.63-.6v-1.45H38c-1.13 0-1.73.4-1.8 1.17v.13a.9.9 0 0 0 .3.7c.2.18.47.27.8.27zm9.06-.1c.42 0 .76-.1 1.02-.34a1.2 1.2 0 0 0 .41-.91h2.12a2.9 2.9 0 0 1-.47 1.58c-.3.47-.73.84-1.27 1.1-.53.26-1.12.4-1.77.4-1.2 0-2.16-.38-2.86-1.15s-1.05-1.83-1.05-3.2v-.15a4.5 4.5 0 0 1 1.04-3.12 3.62 3.62 0 0 1 2.85-1.16c1.06 0 1.9.3 2.54.9s.97 1.4.98 2.4h-2.12c-.01-.44-.15-.8-.4-1.06s-.6-.4-1.03-.4c-.53 0-.92.2-1.2.58-.27.38-.4 1-.4 1.86v.23c0 .87.13 1.5.4 1.88s.67.57 1.2.57zm7.53-8.87v2.08h1.45v1.66h-1.45v4.22c0 .3.06.54.18.67s.35.2.7.2c.25 0 .47-.02.66-.05v1.7a4.5 4.5 0 0 1-1.37.2c-1.58 0-2.4-.8-2.42-2.4v-4.55H50.4v-1.66h1.23v-2.08h2.26zm7.28 8.2c0-.28-.14-.5-.4-.65-.27-.16-.7-.3-1.3-.43-2-.42-3.02-1.28-3.02-2.56 0-.75.3-1.37.93-1.87s1.44-.76 2.45-.76c1.07 0 1.93.25 2.57.76.65.5.97 1.16.97 1.97H61.1a1.1 1.1 0 0 0-.3-.8c-.2-.2-.53-.32-.98-.32-.38 0-.67.1-.88.26s-.3.4-.3.66c0 .25.12.45.35.6.24.15.64.28 1.2.4a9.4 9.4 0 0 1 1.42.38c1.2.44 1.8 1.2 1.8 2.27 0 .77-.33 1.4-1 1.88a4.3 4.3 0 0 1-2.56.71c-.7 0-1.34-.12-1.9-.37a3.2 3.2 0 0 1-1.29-1.04c-.3-.44-.47-.92-.47-1.43h2.14c.02.4.17.7.45.92s.65.32 1.1.32c.43 0 .76-.08.98-.24a.79.79 0 0 0 .34-.65zM2.32 139v-11.37h3.72c1.23 0 2.16.25 2.78.77.63.5.94 1.27.94 2.27 0 .53-.15 1-.45 1.4s-.7.72-1.23.95c.6.17 1.1.5 1.45.98.36.48.54 1.05.54 1.72a3 3 0 0 1-1 2.4 4.1 4.1 0 0 1-2.8.88H2.32zm1.5-5.32v4.1H6.3c.7 0 1.25-.18 1.65-.54s.6-.86.6-1.5c0-1.37-.74-2.05-2.23-2.05h-2.5zm0-1.2H6.1a2.3 2.3 0 0 0 1.57-.5c.4-.33.6-.77.6-1.34 0-.62-.18-1.08-.55-1.36s-.92-.43-1.66-.43H3.82v3.62zm13.46 5.7c-.56.66-1.4 1-2.48 1-.9 0-1.6-.26-2.06-.78-.47-.53-.7-1.3-.7-2.33v-5.5h1.45V136c0 1.28.52 1.92 1.56 1.92 1.1 0 1.84-.4 2.2-1.24v-6.15h1.45V139h-1.4l-.03-.84zm4.98-7.62l.05 1.06c.65-.8 1.5-1.22 2.53-1.22 1.8 0 2.7 1 2.7 3.02v5.6H26.1v-5.6c-.01-.6-.15-1.06-.42-1.35-.27-.3-.7-.44-1.27-.44-.47 0-.88.13-1.23.38s-.63.58-.83 1v6H20.9v-8.45h1.37zm7.1 4.16c0-1.3.3-2.34.92-3.12a2.9 2.9 0 0 1 2.41-1.19 2.9 2.9 0 0 1 2.35 1.02V127h1.45v12h-1.33l-.07-.9a2.96 2.96 0 0 1-2.4 1.06 2.9 2.9 0 0 1-2.4-1.2 5.1 5.1 0 0 1-.92-3.14v-.1zm1.45.16c0 .96.2 1.7.6 2.25s.94.8 1.64.8a2.1 2.1 0 0 0 2.01-1.24v-3.88c-.43-.8-1.1-1.2-2-1.2-.7 0-1.26.27-1.66.82s-.6 1.36-.6 2.43zm9.5 4.13h-1.45v-12h1.45v12zm5.83.16a3.7 3.7 0 0 1-2.8-1.12 4.2 4.2 0 0 1-1.08-3.02v-.27a5.1 5.1 0 0 1 .48-2.24c.32-.66.77-1.18 1.34-1.55.58-.37 1.2-.56 1.88-.56 1.1 0 1.95.36 2.56 1.1a4.7 4.7 0 0 1 .91 3.11v.6H43.7a3 3 0 0 0 .73 2.02c.47.5 1.06.77 1.78.77.5 0 .94-.1 1.3-.3s.66-.48.93-.83l.88.7c-.7 1.1-1.77 1.63-3.2 1.63zm-.18-7.58c-.58 0-1.07.2-1.47.64s-.64 1.02-.73 1.78H48v-.1a2.7 2.7 0 0 0-.6-1.7c-.35-.4-.83-.6-1.44-.6zm4.8 3.13c0-1.3.3-2.34.92-3.12a2.9 2.9 0 0 1 2.41-1.19 2.9 2.9 0 0 1 2.35 1.02V127h1.45v12h-1.33l-.07-.9a2.96 2.96 0 0 1-2.4 1.06 2.9 2.9 0 0 1-2.4-1.2 5.1 5.1 0 0 1-.92-3.14v-.1zm1.45.16c0 .96.2 1.7.6 2.25s.94.8 1.64.8a2.1 2.1 0 0 0 2.01-1.24v-3.88c-.43-.8-1.1-1.2-2-1.2-.7 0-1.26.27-1.66.82s-.6 1.36-.6 2.43zm20.5.52a4.2 4.2 0 0 1-1.34 2.79c-.74.65-1.74.98-2.98.98a4.02 4.02 0 0 1-3.23-1.44 5.85 5.85 0 0 1-1.2-3.87v-1.1a6.5 6.5 0 0 1 .56-2.79 4.25 4.25 0 0 1 4-2.49 4.1 4.1 0 0 1 2.91 1.02 4.2 4.2 0 0 1 1.27 2.8h-1.5c-.13-.9-.4-1.56-.85-1.97-.43-.4-1.04-.6-1.82-.6a2.7 2.7 0 0 0-2.26 1.06 4.9 4.9 0 0 0-.8 3.02v1.1a5 5 0 0 0 .77 2.95 2.5 2.5 0 0 0 2.16 1.09c.83 0 1.47-.2 1.9-.56.45-.38.74-1.04.9-1.98h1.5zm1.45-.7c0-.83.16-1.57.48-2.23a3.7 3.7 0 0 1 3.35-2.07c1.15 0 2.08.4 2.8 1.2.7.8 1.07 1.86 1.07 3.18v.1a5 5 0 0 1-.48 2.22c-.3.65-.76 1.16-1.35 1.52-.58.36-1.26.55-2.02.55-1.15 0-2.08-.4-2.8-1.2a4.62 4.62 0 0 1-1.06-3.16v-.1zm1.45.17c0 .94.22 1.7.65 2.26a2.1 2.1 0 0 0 1.75.85c.73 0 1.32-.3 1.75-.86s.65-1.38.65-2.42c0-.93-.22-1.68-.66-2.25a2.08 2.08 0 0 0-1.75-.87c-.7 0-1.3.28-1.73.85s-.66 1.38-.66 2.44zm7.7-.16c0-1.3.3-2.34.92-3.12a2.9 2.9 0 0 1 2.41-1.19 2.9 2.9 0 0 1 2.35 1.02V127h1.45v12H89.1l-.07-.9a2.96 2.96 0 0 1-2.4 1.06 2.9 2.9 0 0 1-2.4-1.2 5.1 5.1 0 0 1-.92-3.14v-.1zm1.45.16c0 .96.2 1.7.6 2.25s.94.8 1.64.8a2.1 2.1 0 0 0 2.01-1.24v-3.88c-.43-.8-1.1-1.2-2-1.2-.7 0-1.26.27-1.66.82s-.6 1.36-.6 2.43zm11.45 4.3a3.7 3.7 0 0 1-2.8-1.12 4.2 4.2 0 0 1-1.08-3.02v-.27a5.1 5.1 0 0 1 .48-2.24c.32-.66.77-1.18 1.34-1.55.58-.37 1.2-.56 1.88-.56 1.1 0 1.95.36 2.56 1.1a4.7 4.7 0 0 1 .91 3.11v.6h-5.73a3 3 0 0 0 .73 2.02c.47.5 1.06.77 1.78.77.5 0 .94-.1 1.3-.3s.66-.48.93-.83l.88.7c-.7 1.1-1.77 1.63-3.2 1.63zm-.18-7.58c-.58 0-1.07.2-1.47.64s-.64 1.02-.73 1.78h4.23v-.1a2.7 2.7 0 0 0-.6-1.7c-.35-.4-.83-.6-1.44-.6z" class="c"/><path id="b" d="M491.5 216.42c.17-3.32 3-5.92 6.45-5.92H644.9c3.44 0 6.28 2.6 6.45 5.92l.16 35.8c0 1.67-.7 3.28-1.95 4.46a6.5 6.5 0 0 1-4.66 1.76H497.95c-1.7 0-3.35-.65-4.56-1.82a6.1 6.1 0 0 1-1.89-4.4v-35.8zm19.35 30.67c0-3-2.52-5.45-5.64-5.45s-5.65 2.44-5.65 5.45 2.53 5.45 5.65 5.45 5.64-2.44 5.64-5.45zm96.78-.47c-.98 0-1.78.77-1.78 1.7 0 .95.8 1.72 1.78 1.72h32.26c.98 0 1.77-.77 1.77-1.72 0-.94-.8-1.7-1.77-1.7h-32.26zm0-5.92c-.98 0-1.78.77-1.78 1.72 0 .94.8 1.7 1.78 1.7h32.26c.98 0 1.77-.77 1.77-1.7 0-.95-.8-1.72-1.77-1.72h-32.26zm0-6.07c-.98 0-1.78.77-1.78 1.7 0 .95.8 1.72 1.78 1.72h32.26c.98 0 1.77-.77 1.77-1.72 0-.94-.8-1.7-1.77-1.7h-32.26z"/><path id="c" d="M490.5 334.42c.17-3.32 3-5.92 6.45-5.92H643.9c3.44 0 6.28 2.6 6.45 5.92l.16 35.8c0 1.67-.7 3.28-1.95 4.46a6.5 6.5 0 0 1-4.66 1.76H496.95c-1.7 0-3.35-.65-4.56-1.82a6.1 6.1 0 0 1-1.89-4.4v-35.8zm19.35 30.67c0-3-2.52-5.45-5.64-5.45s-5.65 2.44-5.65 5.45 2.53 5.45 5.65 5.45 5.64-2.44 5.64-5.45zm96.78-.47c-.98 0-1.78.77-1.78 1.7 0 .95.8 1.72 1.78 1.72h32.26c.98 0 1.77-.77 1.77-1.72 0-.94-.8-1.7-1.77-1.7h-32.26zm0-5.92c-.98 0-1.78.77-1.78 1.72 0 .94.8 1.7 1.78 1.7h32.26c.98 0 1.77-.77 1.77-1.7 0-.95-.8-1.72-1.77-1.72h-32.26zm0-6.07c-.98 0-1.78.77-1.78 1.7 0 .95.8 1.72 1.78 1.72h32.26c.98 0 1.77-.77 1.77-1.72 0-.94-.8-1.7-1.77-1.7h-32.26z"/><path id="d" d="M198.15 333.5l-9 4.5 2.25-4.5-2.25-4.5 9 4.5z"/></svg>
