<svg fill="none" height="468" width="777" viewBox="0 0 777 468" xmlns="http://www.w3.org/2000/svg"><path d="m0 0h776.5v468h-776.5z" fill="#fff"/><path d="m493 120v-11.4h4c1.4 0 2.4.3 3.1.8.8.6 1.2 1.4 1.1 2.3 0 .6-.1 1.1-.4 1.5-.3.5-.7.8-1.2 1 .6.1 1 .4 1.4.8.3.5.5 1 .5 1.7a3 3 0 01-1 2.4c-.8.6-1.8.9-3 1h-4.5zm2.4-5v3.1h2c.5 0 1-.1 1.3-.4s.4-.6.4-1c0-1.1-.5-1.6-1.6-1.7zm0-1.6h1.7c1.2 0 1.8-.5 1.8-1.4 0-.5-.2-1-.5-1.1-.3-.2-.8-.4-1.4-.4h-1.6v3zm11.6 6.8a4 4 0 01-4.2-4.2v-.2c0-.8.1-1.6.5-2.3.3-.7.8-1.2 1.4-1.6.6-.3 1.3-.5 2-.5 1.2 0 2 .3 2.8 1a5 5 0 011 3.2v1h-5.5c0 .4.3.9.6 1.2.4.4.9.5 1.4.5 1 0 1.6-.3 2-.9l1.2 1.2c-.4.5-.8 1-1.4 1.2a6 6 0 01-2 .4zm-.3-7c-.4 0-.8.2-1 .5-.4.3-.5.7-.6 1.3h3.1v-.2c0-.5-.1-1-.4-1.2-.2-.2-.6-.4-1-.4zm9.6 4.5c0-.3-.1-.5-.4-.7l-1.3-.4c-2-.4-3-1.3-3-2.6 0-.7.3-1.3 1-1.8.6-.5 1.4-.8 2.4-.8s1.9.2 2.5.8c.7.5 1 1.1 1 2h-2.3c0-.4 0-.7-.3-.9-.1-.2-.5-.3-1-.3-.3 0-.6.1-.8.3-.2.1-.3.4-.3.6 0 .3.1.5.3.6l1.2.4 1.5.4c1.2.4 1.8 1.2 1.8 2.3 0 .7-.4 1.4-1 1.9-.8.5-1.7.7-2.6.7-.7 0-1.3-.2-1.9-.4-.5-.2-1-.6-1.3-1a3 3 0 01-.5-1.5h2.2c0 .4.1.7.4 1 .3.2.7.3 1.1.3.5 0 .8-.1 1-.3.2-.1.4-.4.4-.6zm6.4-8.2v2h1.4v1.7h-1.4v4.2c0 .3 0 .6.2.7 0 .1.3.2.7.2h.6v1.7l-1.4.2c-1.5 0-2.3-.8-2.4-2.4v-4.6h-1.2v-1.7h1.2v-2zm13.2 8.2h-4l-.8 2.3h-2.5l4.2-11.4h2.2l4.2 11.4h-2.5zm-3.4-2h2.8l-1.4-4.2-1.4 4.3zm7.3 0a5 5 0 011-3.1 3 3 0 012.4-1.2c1 0 1.7.3 2.2 1v-.8h2.1v8.1c0 .8-.1 1.4-.5 2-.3.5-.8 1-1.4 1.2-.6.3-1.3.4-2.1.4-.6 0-1.3-.1-1.8-.3-.6-.2-1-.6-1.4-1l1-1.4c.6.7 1.3 1 2 1s1.2-.2 1.5-.5.5-.8.5-1.4v-.4c-.5.6-1.3.9-2 .9a3 3 0 01-2.5-1.2c-.7-1-1-2-1-3.2zm2.3.2c0 .6 0 1.2.4 1.8.3.4.8.6 1.3.6.7 0 1.2-.2 1.5-.7v-3.6c-.3-.5-.8-.8-1.5-.8-.5 0-1 .3-1.3.7s-.4 1-.4 2zm11 4.3a4 4 0 01-4.2-4.2v-.2c0-.8.2-1.6.6-2.3.3-.7.7-1.2 1.3-1.6.7-.3 1.4-.5 2.1-.5 1 0 2 .3 2.7 1 .7.8 1 1.8 1 3.2v.9h-5.3c0 .5.2 1 .6 1.3.4.4.9.5 1.4.5.9 0 1.6-.3 2-1l1.2 1.3a4 4 0 01-1.4 1.2c-.6.2-1.3.4-2 .4zm-.2-7c-.5 0-.8.2-1.1.5s-.4.7-.5 1.3h3.1v-.2c0-.5-.1-1-.4-1.2-.2-.2-.6-.4-1-.4zm7.1-1.7v1a3 3 0 012.5-1.1c.9 0 1.6.3 2 .8s.7 1.3.7 2.4v5.4h-2.3v-5.4c0-.5 0-.8-.3-1-.2-.3-.5-.4-1-.4-.7 0-1.1.3-1.5.8v6h-2.1v-8.5h2.1zm9.6-2v2h1.4v1.7h-1.4v4.2c0 .3 0 .6.2.7.1.1.3.2.7.2h.6v1.7l-1.3.2c-1.6 0-2.4-.8-2.5-2.4v-4.6h-1.2v-1.7h1.2v-2zm7.3 8.2c0-.3-.2-.5-.4-.7l-1.3-.4c-2-.4-3-1.3-3-2.6 0-.7.3-1.3.9-1.8s1.4-.8 2.4-.8c1.1 0 2 .2 2.6.8.7.5 1 1.1 1 2h-2.3c0-.4 0-.7-.3-.9-.2-.2-.5-.3-1-.3-.3 0-.6.1-.8.3-.2.1-.3.4-.3.6 0 .3 0 .5.3.6l1.2.4 1.4.4c1.2.4 1.8 1.2 1.8 2.3 0 .7-.3 1.4-1 1.9s-1.6.7-2.5.7c-.7 0-1.4-.2-2-.4-.4-.2-.9-.6-1.2-1a3 3 0 01-.5-1.5h2.2c0 .4.1.7.4 1 .3.2.7.3 1.1.3s.8-.1 1-.3c.2-.1.3-.4.3-.6zm-83.6 21.3v-11.4h3.2c1 0 1.9.3 2.6.7.8.4 1.4 1 1.8 1.9.4.8.6 1.7.6 2.7v.8c0 1-.2 2-.6 2.8a4 4 0 01-1.8 1.8c-.7.5-1.6.7-2.6.7zm1.5-10.1v8.9h1.6c1.2 0 2-.4 2.7-1.1.6-.7 1-1.8 1-3v-.7c0-1.3-.3-2.3-1-3-.5-.8-1.4-1.1-2.5-1.1zm12.3 10.3c-1 0-2-.4-2.8-1.2a4 4 0 01-1-3v-.2c0-.9 0-1.7.4-2.3.3-.7.8-1.2 1.3-1.5.6-.4 1.2-.6 2-.6 1 0 1.9.4 2.5 1.1s.9 1.8.9 3.1v.6h-5.8c0 .7.3 1.5.8 2 .4.5 1 .8 1.8.8.5 0 .9-.1 1.3-.3a3 3 0 00.9-.8l.9.7c-.7 1-1.8 1.6-3.2 1.6zm-.2-7.6c-.6 0-1 .2-1.5.6a3 3 0 00-.7 1.8h4.3v-.1c0-.6-.3-1.2-.7-1.7-.3-.4-.8-.6-1.4-.6zm4.8 3.1c0-1.3.3-2.3 1-3.1.5-.8 1.4-1.2 2.3-1.2 1 0 1.8.3 2.4 1v-4.4h1.4v12h-1.3v-.9a3 3 0 01-2.5 1c-.9 0-1.8-.4-2.4-1.1-.6-.8-.9-1.9-.9-3.2zm1.5.2c0 1 .2 1.7.6 2.2.4.6 1 .8 1.6.8.9 0 1.7-.4 2-1.2v-3.9a2.1 2.1 0 00-2-1.2 2 2 0 00-1.6.8c-.4.6-.6 1.4-.6 2.5zm9.5 4.1h-1.5v-8.4h1.5zm-1.6-10.7c0-.2 0-.4.2-.6s.4-.2.6-.2c.3 0 .5 0 .7.2l.2.6c0 .2 0 .4-.2.6s-.4.2-.7.2c-.2 0-.5 0-.6-.2a.9.9 0 01-.2-.6zm7.3 9.7c.5 0 1-.2 1.3-.5.4-.3.6-.7.7-1.2h1.3c0 .5-.2 1-.5 1.4-.3.5-.7.8-1.2 1a3 3 0 01-1.6.5c-1 0-2-.4-2.8-1.2a5 5 0 01-1-3.1v-.3c0-.7.2-1.5.5-2.2.3-.6.7-1.1 1.3-1.5a4 4 0 012-.5c1 0 1.7.3 2.3.8a3 3 0 011 2.2h-1.3c0-.5-.3-1-.7-1.3a2 2 0 00-1.3-.5 2 2 0 00-1.7.8c-.4.5-.6 1.3-.6 2.3v.2c0 1 .2 1.8.6 2.3s1 .8 1.7.8zm10.2 1-.2-1c-.6.8-1.5 1.1-2.4 1.1a3 3 0 01-2-.7c-.6-.4-.9-1-.9-1.8s.4-1.5 1-2c.7-.5 1.6-.7 2.9-.7h1.4v-.7c0-.5-.2-.9-.5-1.2s-.7-.4-1.3-.4a2 2 0 00-1.3.4c-.4.2-.6.5-.6.9h-1.4c0-.4.1-.8.4-1.2.4-.4.8-.8 1.3-1a4 4 0 011.7-.3c1 0 1.7.2 2.3.7.5.5.8 1.2.8 2v4c0 .7.1 1.3.3 1.8v.1zm-2.4-1.1c.4 0 .9-.1 1.3-.4.4-.2.7-.5.9-.9v-1.6h-1.2c-1.7 0-2.6.5-2.6 1.6 0 .4.1.8.4 1 .3.3.7.4 1.2.4zm7.8-9.4v2h1.6v1.2h-1.6v5.2c0 .3 0 .6.2.8l.7.2h.7v1.1l-1 .2c-.7 0-1.2-.2-1.5-.6-.4-.4-.5-1-.5-1.7v-5.2h-1.6v-1.2h1.6v-2zm6.8 10.7c-1 0-2-.4-2.8-1.2a4 4 0 01-1-3v-.3c0-.8 0-1.6.4-2.2a5 5 0 011.3-1.6c.6-.3 1.2-.5 2-.5 1 0 1.9.3 2.5 1 .6 1 1 2 .9 3.2v.6h-5.7c0 .7.2 1.5.7 2s1 .8 1.8.8c.5 0 1-.1 1.3-.3a3 3 0 00.9-.8l.9.7c-.7 1-1.8 1.6-3.2 1.6zm-.2-7.6c-.6 0-1 .2-1.5.6a3 3 0 00-.7 1.8h4.3v-.1c0-.6-.3-1.2-.7-1.7-.3-.4-.8-.6-1.4-.6zm4.8 3.1c0-1.3.3-2.3 1-3.1.5-.8 1.4-1.2 2.3-1.2 1 0 1.8.3 2.4 1v-4.4h1.4v12h-1.3v-.9a3 3 0 01-2.5 1 3 3 0 01-2.4-1.1c-.6-.8-.9-1.9-.9-3.2zm1.5.2c0 1 .2 1.7.6 2.2.4.6 1 .8 1.6.8.9 0 1.7-.4 2-1.2v-4a2.1 2.1 0 00-2-1.1 2 2 0 00-1.6.8c-.4.6-.6 1.4-.6 2.4zm20.8 4h-1.5v-5.2h-5.7v5.3h-1.5v-11.4h1.5v5h5.7v-5h1.5v11.4zm7.7 0-.2-.8c-.6.7-1.5 1-2.4 1a3 3 0 01-2-.7c-.6-.4-.9-1-.8-1.8 0-.8.3-1.5 1-2 .6-.5 1.6-.7 2.8-.7h1.4v-.7c0-.5-.2-.9-.5-1.2s-.7-.4-1.3-.4c-.5 0-1 0-1.3.4-.4.2-.5.5-.5.9h-1.6c0-.4.2-.8.5-1.2a3 3 0 011.2-1 4 4 0 011.7-.3c1 0 1.7.2 2.3.7.5.5.8 1.2.8 2v4c0 .7.1 1.3.3 1.8v.1h-1.5zm-2.4-1a2 2 0 001.3-.4c.4-.2.7-.5.9-.9v-1.6h-1.2c-1.8 0-2.7.5-2.7 1.6 0 .4.1.8.4 1 .3.3.7.4 1.2.4zm10-6a4 4 0 00-.7-.1c-1 0-1.6.4-2 1.2v6h-1.3v-8.5h1.4v1c.4-.7 1.2-1.1 2-1.1h.7v1.4zm.8 2.8c0-1.3.3-2.3 1-3.1.5-.8 1.4-1.2 2.3-1.2 1 0 1.8.3 2.4 1v-4.4h1.4v12h-1.3v-.9a3 3 0 01-2.5 1 3 3 0 01-2.4-1.1c-.6-.8-.9-1.9-.9-3.2zm1.5.2c0 1 .2 1.7.6 2.2.4.6.9.8 1.6.8.9 0 1.7-.4 2-1.2v-4a2.1 2.1 0 00-2-1.1 2 2 0 00-1.7.8c-.4.6-.6 1.4-.6 2.4zm15.4 2.1 1.6-6.5h1.5l-2.5 8.5h-1.2l-2-6.4-2 6.4h-1.2l-2.4-8.4h1.4l1.7 6.3 2-6.3h1l2 6.4zm9.8 2c-.2-.3-.2-.6-.2-.9-.7.7-1.5 1-2.4 1a3 3 0 01-2.1-.6c-.5-.5-.8-1.2-.8-1.8 0-1 .3-1.6 1-2.1s1.6-.7 2.8-.7h1.4v-.7c0-.5-.1-.9-.4-1.2s-.8-.4-1.4-.4a2 2 0 00-1.3.4c-.3.2-.5.5-.5 1h-1.4c0-.5.1-1 .4-1.3.3-.4.8-.7 1.2-1l1.7-.3c1 0 1.8.3 2.3.7.6.5.9 1.2.9 2v4c0 .7.1 1.3.3 1.8v.1zm-2.4-1.1 1.3-.3c.4-.3.7-.6.8-1v-1.6h-1c-1.9 0-2.8.5-2.8 1.6 0 .4.2.8.5 1 .3.3.7.4 1.2.4zm10-6a4 4 0 00-.8-.1c-1 0-1.6.4-1.9 1.2v6h-1.5v-8.5h1.4v1c.5-.7 1.3-1.1 2-1.1h.7v1.4zm4.6 7.3c-1 0-2-.4-2.8-1.2a4 4 0 01-1-3v-.3c0-.7.1-1.5.4-2.2a3 3 0 011.4-1.5 3 3 0 011.8-.6c1.1 0 2 .4 2.6 1 .7 1 1 2 1 3.2v.6h-5.8c0 .7.2 1.5.7 2s1 .8 1.8.8c.5 0 1-.1 1.3-.3a3 3 0 001-.8l.8.7c-.7 1-1.8 1.6-3.2 1.6zm-.2-7.6a2 2 0 00-1.4.6 3 3 0 00-.8 1.8h4.3v-.1c0-.6-.2-1.2-.6-1.7a2 2 0 00-1.5-.6zm-428.5-11.6v-11.4h4c1.4 0 2.4.3 3.1.8.8.6 1.2 1.4 1.1 2.4 0 .5-.1 1-.4 1.4-.3.5-.7.8-1.2 1 .6.1 1 .4 1.4.8.3.5.5 1 .5 1.7a3 3 0 01-1 2.5c-.8.5-1.8.8-3 .8zm2.4-5v3.1h2c.5 0 1-.1 1.3-.4.3-.2.4-.6.4-1 0-1.1-.5-1.6-1.6-1.7zm0-1.6h1.7c1.2 0 1.8-.5 1.8-1.4 0-.5-.2-1-.5-1.1-.3-.2-.8-.3-1.4-.3h-1.6zm11.6 6.8a4 4 0 01-4.2-4.2v-.2c0-.8.1-1.6.5-2.3.3-.7.8-1.2 1.4-1.6a4.3 4.3 0 014.8.5c.6.8 1 1.9 1 3.2v1h-5.5c0 .4.3.9.6 1.2.4.4.9.5 1.4.5 1 0 1.6-.3 2-.9l1.2 1.2c-.4.5-.8 1-1.4 1.2a6 6 0 01-2 .4zm-.3-7c-.4 0-.8.2-1 .5-.4.3-.5.7-.6 1.3h3.1v-.2c0-.5-.1-1-.4-1.2-.2-.2-.6-.4-1-.4zm9.6 4.5c0-.3-.1-.5-.4-.7l-1.3-.4c-2-.4-3-1.3-3-2.6 0-.7.3-1.3 1-1.8.6-.5 1.4-.8 2.4-.8s1.9.3 2.5.8c.7.5 1 1.1 1 2h-2.3c0-.4 0-.7-.3-.9-.2-.2-.5-.3-1-.3-.3 0-.6.1-.8.3-.2.1-.3.4-.3.6 0 .3.1.5.3.6l1.2.4 1.5.4c1.2.5 1.8 1.2 1.8 2.3 0 .8-.4 1.4-1 1.9-.8.5-1.7.7-2.6.7a4 4 0 01-3.2-1.4 3 3 0 01-.5-1.5h2.2c0 .4.1.7.4 1 .3.2.7.3 1.1.3s.8-.1 1-.3c.2-.1.3-.4.3-.6zm6.4-8.2v2h1.4v1.7h-1.4v4.2c0 .3 0 .6.2.7 0 .1.3.2.7.2h.6v1.7l-1.4.2c-1.5 0-2.4-.8-2.4-2.4v-4.6h-1.2v-1.7h1.2v-2zm16 10.5h-2.3v-4.9h-4.4v4.9h-2.4v-11.4h2.4v4.6h4.5v-4.6h2.4v11.4zm7-.9c-.5.7-1.4 1.1-2.3 1-.9 0-1.6-.2-2-.7-.5-.5-.8-1.3-.8-2.3v-5.6h2.3v5.5c0 .9.4 1.3 1.2 1.3s1.3-.2 1.6-.8v-6h2.2v8.5h-2l-.1-.9zm11.5-3.3c0 1.4-.3 2.4-.8 3.2-.6.8-1.4 1.1-2.4 1.1s-1.7-.3-2.2-1l-.1.9h-2v-12h2.2v4.3c.5-.6 1.2-1 2-1 1 0 1.9.5 2.5 1.2.6.8.8 1.9.8 3.2v.2zm-2.2-.1c0-.9-.1-1.5-.4-1.9s-.7-.6-1.2-.6c-.7 0-1.2.3-1.5.9v3.3c.3.6.8 1 1.5 1s1.2-.4 1.4-1.1zm-58.3 18.2c-1-.2-2-.7-2.8-1.3-.6-.5-1-1.3-.9-2a3 3 0 011-2.3c.8-.6 1.7-.8 2.9-.8.7 0 1.4.1 2 .4.7.3 1.1.7 1.5 1.3.3.5.5 1 .5 1.7h-1.5a2 2 0 00-.7-1.6c-.4-.4-1-.6-1.8-.6s-1.3.1-1.8.5c-.4.3-.6.8-.6 1.3s.2.9.6 1.2 1 .6 2 .9 1.7.6 2.2.9c.6.3 1 .7 1.2 1 .3.5.4 1 .4 1.6 0 1-.3 1.7-1 2.2-.9.6-1.9.9-3 .8-.7 0-1.4-.1-2.1-.4a4 4 0 01-1.6-1.2 3 3 0 01-.5-1.8h1.5c0 .7.2 1.2.7 1.6s1.2.6 2 .6c.9 0 1.5-.1 1.9-.5.4-.3.6-.7.6-1.3 0-.5-.2-1-.6-1.3-.6-.4-1.3-.7-2.1-.9zm7.3-2.3a3 3 0 012.5-1.2c1.8 0 2.7 1 2.7 3v5.6h-1.4v-5.6c0-.6-.2-1-.4-1.3-.3-.3-.7-.5-1.3-.5-.5 0-.9.1-1.2.4-.4.2-.7.6-.9 1v6h-1.4v-12h1.4zm12.6 7.4-.2-1c-.6.8-1.4 1.1-2.4 1.1a3 3 0 01-2-.7c-.5-.4-.8-1-.8-1.8s.3-1.5 1-2 1.6-.7 2.8-.7h1.4v-.7c0-.5-.1-.9-.4-1.2s-.8-.4-1.4-.4a2 2 0 00-1.3.4 1 1 0 00-.5.9h-1.4c0-.4.1-.8.4-1.2a3 3 0 011.2-1 5 5 0 011.7-.3c1 0 1.8.2 2.3.7.6.5.9 1.2.9 2v4c0 .7 0 1.3.3 1.8v.1h-1.5zm-2.4-1.1c.5 0 1-.1 1.3-.4.5-.2.7-.5 1-.9v-1.6h-1.2c-1.8 0-2.7.5-2.7 1.6 0 .4.2.8.5 1 .3.3.7.4 1.1.4zm10-6-.7-.1c-1 0-1.6.4-2 1.2v6h-1.4v-8.5h1.4v1c.5-.7 1.2-1.1 2-1.1h.7v1.4zm4.7 7.2c-1 0-2-.3-2.8-1-.7-.9-1.1-2-1-3.1v-.3c0-.7 0-1.5.4-2.2.3-.7.8-1.2 1.3-1.6.6-.3 1.2-.5 2-.5 1 0 1.9.3 2.5 1 .7 1 1 2 .9 3.2v.6h-5.7c0 .7.2 1.4.7 2 .5.5 1 .8 1.8.8.5 0 1-.1 1.3-.3a3 3 0 001-.8l.8.7c-.7 1-1.8 1.6-3.2 1.6zm-.2-7.5c-.6 0-1 .2-1.4.6a3 3 0 00-.8 1.8h4.3v-.1c0-.6-.3-1.2-.6-1.7a2 2 0 00-1.5-.6zm4.8 3c0-1.2.3-2.2 1-3 .5-.8 1.4-1.2 2.4-1.2s1.7.3 2.3 1v-4.4h1.5v12h-1.4v-.9a3 3 0 01-2.4 1c-1 0-1.9-.4-2.4-1.1-.7-1-1-2-1-3.2v-.1zm1.5.3c0 1 .2 1.7.6 2.2.4.6 1 .8 1.6.8.9 0 1.7-.5 2-1.2v-4a2.1 2.1 0 00-2-1.1 2 2 0 00-1.6.8c-.4.6-.6 1.4-.6 2.4zm12 4.1v-11.4h3.7c1.2 0 2.2.3 2.8.8a3 3 0 011 2.3c0 .5-.2 1-.5 1.4a3 3 0 01-1.2 1c.5 0 1 .4 1.4.9s.5 1 .5 1.7a3 3 0 01-1 2.4c-.6.6-1.6.9-2.8.9zm1.5-5.3v4h2.5c.7 0 1.2-.1 1.6-.5.4-.3.6-.8.6-1.5 0-1.3-.7-2-2.2-2zm0-1.2h2.3c.6 0 1.1-.2 1.5-.5.4-.4.6-.8.6-1.4s-.1-1-.5-1.3-1-.4-1.7-.4h-2.2zm11 4.4 2-6.4h1.5l-3.4 9.8c-.5 1.4-1.3 2.1-2.5 2.1h-.3l-.5-.1v-1.2h.4c.5 0 .9 0 1.1-.2.3-.2.5-.6.7-1.1l.3-.9-3-8.4h1.6zm17.8-3.2c0 1-.2 2-.6 2.9a4.2 4.2 0 01-4 2.6 4.3 4.3 0 01-4-2.6c-.4-.9-.6-1.8-.6-2.8v-.8c0-1.1.2-2.1.6-3 .3-.8.9-1.4 1.6-1.9.7-.4 1.5-.6 2.4-.6s1.7.2 2.4.6c.7.5 1.2 1.2 1.6 2s.5 1.7.5 2.8v.8zm-1.5-.8c0-1.3-.3-2.3-.8-3a2.7 2.7 0 00-2.3-1.2c-1 0-1.7.4-2.3 1.1a5 5 0 00-.8 3v.9c0 1.3.3 2.3.8 3 .6.8 1.3 1.2 2.3 1.2s1.7-.3 2.2-1c.6-.8.8-1.8.9-3.1v-.8zm7.6-1a4 4 0 00-.7-.1c-.9 0-1.7.4-2 1.2v6h-1.4v-8.5h1.4v1c.4-.7 1.2-1.1 2-1.1h.6v1.4zm.8 2.8a5 5 0 01.9-3.1 3 3 0 012.4-1.2c1 0 1.8.4 2.4 1l.1-.9h1.3v8.3c0 1-.3 2-1 2.6-.6.6-1.5 1-2.6 1a4 4 0 01-1.8-.5c-.6-.2-1-.6-1.3-1l.7-1c.6.8 1.4 1.2 2.3 1.2.6 0 1.2-.1 1.7-.5.4-.4.6-1 .6-1.7v-.7a3 3 0 01-2.4 1 3 3 0 01-2.4-1.2c-.7-1-1-2.1-1-3.3zm1.4.2c0 .8.2 1.5.6 2.2.4.5 1 .8 1.7.8a2 2 0 002-1.2v-3.9a2.1 2.1 0 00-2-1.2 2 2 0 00-1.7.8c-.4.6-.6 1.4-.6 2.5z" fill="#000"/><path d="m491.5 216.4c.2-3.3 3-5.9 6.5-5.9h146.9a6.3 6.3 0 016.4 6l.2 35.7a6 6 0 01-2 4.5 6.5 6.5 0 01-4.6 1.7h-147c-1.7 0-3.3-.6-4.5-1.8a6.1 6.1 0 01-1.9-4.4zm19.4 30.7c0-3-2.6-5.5-5.7-5.5a5.6 5.6 0 00-5.6 5.5c0 3 2.5 5.4 5.6 5.4s5.7-2.4 5.7-5.4zm96.7-.5c-1 0-1.8.8-1.8 1.7 0 1 .9 1.7 1.8 1.7h32.4c1 0 1.8-.7 1.8-1.7s-.8-1.7-1.8-1.7h-32.3zm0-5.9c-1 0-1.8.8-1.8 1.7 0 1 .9 1.7 1.8 1.7h32.4c1 0 1.8-.8 1.8-1.7 0-1-.8-1.7-1.8-1.7h-32.3zm0-6c-1 0-1.8.7-1.8 1.6 0 1 .9 1.7 1.8 1.7h32.4c1 0 1.8-.7 1.8-1.7s-.8-1.7-1.8-1.7h-32.3zm-116.1 40.7c.2-3.3 3-5.9 6.5-5.9h146.9a6.3 6.3 0 016.4 6l.2 35.7a6 6 0 01-2 4.5 6.5 6.5 0 01-4.6 1.7h-147c-1.7 0-3.3-.6-4.5-1.8a6.1 6.1 0 01-1.9-4.4zm19.4 30.7c0-3-2.6-5.5-5.7-5.5a5.6 5.6 0 00-5.6 5.5c0 3 2.5 5.4 5.6 5.4s5.7-2.4 5.7-5.4zm96.7-.5c-1 0-1.8.8-1.8 1.7 0 1 .9 1.7 1.8 1.7h32.4c1 0 1.8-.7 1.8-1.7s-.8-1.7-1.8-1.7h-32.3zm0-5.9c-1 0-1.8.8-1.8 1.7 0 1 .9 1.7 1.8 1.7h32.4c1 0 1.8-.8 1.8-1.7 0-1-.8-1.7-1.8-1.7h-32.3zm0-6c-1 0-1.8.7-1.8 1.6 0 1 .9 1.7 1.8 1.7h32.4c1 0 1.8-.7 1.8-1.7s-.8-1.7-1.8-1.7h-32.3zm-117.1 40.7c.2-3.3 3-5.9 6.5-5.9h146.9a6.3 6.3 0 016.4 6l.2 35.7a6 6 0 01-2 4.5 6.5 6.5 0 01-4.6 1.7h-147c-1.7 0-3.3-.6-4.5-1.8a6.1 6.1 0 01-1.9-4.4zm19.4 30.7c0-3-2.6-5.5-5.7-5.5a5.6 5.6 0 00-5.6 5.5c0 3 2.5 5.4 5.6 5.4s5.7-2.4 5.7-5.4zm96.7-.5c-1 0-1.8.8-1.8 1.7 0 1 .9 1.7 1.8 1.7h32.4c1 0 1.8-.7 1.8-1.7s-.8-1.7-1.8-1.7h-32.3zm0-5.9c-1 0-1.8.8-1.8 1.7 0 1 .9 1.7 1.8 1.7h32.4c1 0 1.8-.8 1.8-1.7 0-1-.8-1.7-1.8-1.7h-32.3zm0-6c-1 0-1.8.7-1.8 1.6 0 1 .9 1.8 1.8 1.8h32.4a1.8 1.8 0 001.8-1.8c0-1-.8-1.7-1.8-1.7h-32.3z" fill="#f0a30a" stroke="#bd7000"/><path d="m490.5 391.4c.2-3.3 3-5.9 6.5-5.9h146.9a6.3 6.3 0 016.4 6l.2 35.7a6 6 0 01-2 4.5 6.5 6.5 0 01-4.6 1.7h-147c-1.7 0-3.3-.6-4.5-1.8a6.1 6.1 0 01-1.9-4.4zm19.4 30.7c0-3-2.6-5.5-5.7-5.5a5.6 5.6 0 00-5.6 5.5c0 3 2.5 5.4 5.6 5.4s5.7-2.4 5.7-5.4zm96.7-.5c-1 0-1.8.8-1.8 1.7 0 1 .9 1.7 1.8 1.7h32.4c1 0 1.8-.7 1.8-1.7s-.8-1.7-1.8-1.7h-32.3zm0-5.9c-1 0-1.8.8-1.8 1.7 0 1 .9 1.7 1.8 1.7h32.4c1 0 1.8-.8 1.8-1.7 0-1-.8-1.7-1.8-1.7h-32.3zm0-6c-1 0-1.8.7-1.8 1.6 0 1 .9 1.7 1.8 1.7h32.4c1 0 1.8-.7 1.8-1.7s-.8-1.7-1.8-1.7h-32.3z" fill="#00188d" stroke="#000"/><path d="m686.5 243.3a5.5 5.5 0 01-1.8 3.6 5.7 5.7 0 01-3.9 1.3c-1.6 0-3.2-.6-4.2-1.9a8 8 0 01-1.6-5v-1.5c0-1.4.2-2.6.7-3.7a5.6 5.6 0 015.3-3.3c1.6 0 2.8.5 3.8 1.4s1.5 2 1.7 3.7h-2a4.5 4.5 0 00-1.1-2.6 3.2 3.2 0 00-2.4-.8c-1.2 0-2.3.4-3 1.4-.7.9-1 2.2-1 4v1.4c0 1.6.3 2.9 1 3.9.6 1 1.6 1.4 2.8 1.4 1 0 2-.3 2.5-.7.6-.5 1-1.4 1.2-2.6zm4.3-5a4 4 0 013.3-1.6c2.3 0 3.5 1.3 3.5 4v7.3h-1.9v-7.3a3 3 0 00-.5-1.8c-.4-.4-1-.6-1.7-.6-.6 0-1.2.2-1.6.5-.5.4-.9.8-1.1 1.3v8h-2v-15.8h2zm15 .3h-1c-1.2 0-2 .5-2.4 1.6v7.8h-2v-11.1h1.9v1.3a3 3 0 012.7-1.5l.8.1zm1 3.8a8.2 8.2 0 01.7-3 5 5 0 011.8-2 5.3 5.3 0 012.6-.7 4.7 4.7 0 013.6 1.6 6 6 0 011.4 4.2v.1c0 1-.2 2-.6 3-.4.8-1 1.4-1.8 2-.8.4-1.7.6-2.6.6a5 5 0 01-3.7-1.5 6 6 0 01-1.4-4.2zm2 .2c0 1.2.2 2.2.8 3a2.9 2.9 0 002.3 1c1 0 1.7-.3 2.3-1 .6-1 1-2.1.9-3.2a5 5 0 00-1-3 2.7 2.7 0 00-2.2-1.1 3 3 0 00-2.3 1c-.6.8-.8 1.9-.8 3.3zm12.3-5.7v1.3c.9-1 2.1-1.5 3.4-1.5 1.5 0 2.6.6 3.1 1.8a4.3 4.3 0 013.5-1.8c2.5 0 3.7 1.3 3.8 3.9v7.4h-2v-7.3c0-.8-.1-1.4-.5-1.8-.3-.4-1-.6-1.8-.6-.6 0-1.3.2-1.7.6-.5.5-.8 1-.8 1.7v7.4h-2v-7.3a2.1 2.1 0 00-2.3-2.4c-1.3 0-2.1.5-2.6 1.6v8.1h-1.9v-11h1.8zm21.3 11.3c-1.5 0-2.8-.5-3.7-1.5-1-1-1.4-2.3-1.4-4v-.3c0-1 .2-2 .6-3a5 5 0 011.8-2c.7-.4 1.6-.7 2.4-.7 1.5 0 2.6.5 3.4 1.4.8 1 1.2 2.3 1.2 4.1v.8h-7.5c0 1.1.3 2 1 2.7a3 3 0 002.3 1c.6 0 1.2-.1 1.7-.4l1.2-1.1 1.1.9a4.6 4.6 0 01-4.1 2.1zm-.3-10c-.8 0-1.4.4-2 1a4 4 0 00-.9 2.3h5.6v-.2a3 3 0 00-.8-2.2 2 2 0 00-1.9-.8zm21.4-4-6.2 13.8h-2l6.2-13.4h-8v-1.5h10v1zm3 6.3.8-7.4h7.7v1.7h-6l-.5 4.1c.7-.4 1.6-.7 2.5-.6a3.9 3.9 0 013.2 1.3c.8 1 1.2 2.1 1.2 3.7a5.8 5.8 0 01-1.2 3.6 4.6 4.6 0 01-3.5 1.3c-1.3 0-2.4-.4-3.3-1a4.4 4.4 0 01-1.4-3.1h1.8a3 3 0 001 2c.4.3 1 .6 1.9.6.8 0 1.5-.3 2-1 .5-.5.8-1.4.8-2.4s-.3-1.8-.8-2.4a3 3 0 00-2.2-1c-.8 0-1.5.2-2 .6l-.4.4zm-80.3 61.8a5.5 5.5 0 01-1.7 3.6 5.7 5.7 0 01-4 1.3c-1.6 0-3.1-.6-4.2-1.9a8 8 0 01-1.6-5v-1.5c0-1.4.3-2.6.8-3.7a5.6 5.6 0 015.2-3.3c1.6 0 2.9.5 3.8 1.4 1 .9 1.5 2 1.7 3.7h-2c-.2-1.2-.5-2.1-1.1-2.6a3 3 0 00-2.4-.8c-1.2 0-2.3.4-3 1.4-.7.9-1 2.2-1 4v1.4c0 1.6.3 2.9 1 3.9s1.6 1.4 2.8 1.4c1.1 0 2-.3 2.5-.7.6-.5 1-1.4 1.2-2.6zm4.3-5a4 4 0 013.3-1.6c2.3 0 3.5 1.3 3.6 4v7.3h-2v-7.3a3 3 0 00-.5-1.8c-.4-.4-.9-.6-1.7-.6a3 3 0 00-2.6 1.8v8h-2v-15.8h2v6zm15 .3h-.9c-1.2 0-2 .5-2.5 1.6v7.8h-2v-11.1h2v1.3a3 3 0 012.6-1.5l.8.1zm1.1 3.8c0-1 .2-2 .6-3a4.7 4.7 0 014.4-2.7c1.5 0 2.8.5 3.7 1.6a6 6 0 011.4 4.2c0 1-.2 2-.6 3-.4.8-1 1.5-1.8 2s-1.7.7-2.6.7c-1.5 0-2.8-.5-3.7-1.5a6 6 0 01-1.4-4.2zm1.9.2c0 1.2.3 2.2.9 3 .5.7 1.3 1 2.3 1s1.7-.3 2.3-1a5.3 5.3 0 00.8-3.2c0-1-.3-2.1-.9-3a2.7 2.7 0 00-2.3-1.1c-.9 0-1.7.4-2.2 1-.6.8-.9 1.9-.9 3.3zm12.4-5.7v1.3c.8-1 2-1.5 3.3-1.5 1.5 0 2.6.6 3.2 1.8.3-.5.8-1 1.4-1.3a5 5 0 012.1-.5c2.4 0 3.7 1.3 3.7 3.9v7.4h-1.9v-7.3a3 3 0 00-.5-1.8c-.4-.4-1-.6-1.9-.6-.6 0-1.2.2-1.7.7-.5.4-.8 1-.8 1.7v7.3h-2v-7.3a2.1 2.1 0 00-2.3-2.4c-1.2 0-2 .5-2.5 1.6v8.1h-2v-11h1.9zm21.2 11.3c-1.5 0-2.7-.5-3.7-1.5s-1.4-2.3-1.4-4v-.3c0-1 .2-2 .6-3a5 5 0 011.8-2 5.2 5.2 0 012.5-.7c1.4 0 2.5.5 3.3 1.4.8 1 1.2 2.3 1.2 4.1v.8h-7.4c0 1.1.4 2 1 2.7a3 3 0 002.3 1c.6 0 1.2-.1 1.7-.4s.9-.7 1.2-1.1l1.2.9a4.6 4.6 0 01-4.2 2.1zm-.2-10c-.8 0-1.4.4-2 1a4 4 0 00-1 2.3h5.6v-.2a3 3 0 00-.8-2.2c-.4-.5-1-.8-1.9-.8zm21.4-4-6.3 13.8h-2l6.2-13.4h-8.1v-1.5h10v1zm3 6.3.8-7.4h7.6v1.7h-6l-.5 4.1c.8-.4 1.6-.7 2.5-.6 1.2-.1 2.4.4 3.3 1.3.8 1 1.1 2.1 1.1 3.7a4.8 4.8 0 01-1.2 3.6c-.8.9-2 1.3-3.5 1.3a5.3 5.3 0 01-3.2-1 4.4 4.4 0 01-1.4-3.1h1.8c0 .8.4 1.5.9 2 .5.3 1.1.6 2 .6.8 0 1.5-.3 2-1 .5-.5.7-1.4.7-2.4s-.2-1.8-.8-2.4c-.5-.6-1.2-1-2.1-1a3 3 0 00-2 .6l-.5.4zm-80 61.8a5.5 5.5 0 01-1.8 3.6 5.7 5.7 0 01-4 1.3c-1.6 0-3.1-.6-4.2-1.9a8 8 0 01-1.6-5v-1.5c0-1.4.3-2.6.8-3.7a5.6 5.6 0 015.2-3.3c1.6 0 2.9.5 3.8 1.4 1 .9 1.5 2 1.7 3.6h-2c-.2-1.2-.5-2-1.1-2.5a3 3 0 00-2.4-.8c-1.2 0-2.3.4-3 1.4-.7.9-1 2.2-1 4v1.4c0 1.6.3 2.9 1 3.9s1.6 1.4 2.8 1.4c1.1 0 2-.3 2.5-.7.6-.5 1-1.4 1.2-2.6h2zm4.2-5a4 4 0 013.3-1.6c2.3 0 3.5 1.3 3.6 4v7.3h-2v-7.3a3 3 0 00-.5-1.8c-.4-.4-.9-.6-1.7-.6a3 3 0 00-2.6 1.8v8h-2v-15.8h2v6zm15 .3h-.9c-1.2 0-2 .5-2.5 1.6v7.8h-2v-11.1h2v1.3a3 3 0 012.6-1.5l.8.1zm1.1 3.8c0-1 .2-2 .6-3a4.7 4.7 0 014.4-2.7c1.5 0 2.8.5 3.7 1.6a6 6 0 011.4 4.2c0 1-.2 2-.6 3-.4.9-1 1.5-1.8 2s-1.7.7-2.6.7c-1.5 0-2.8-.5-3.7-1.5a6 6 0 01-1.4-4.2zm1.9.2c0 1.2.3 2.2.9 3 .5.7 1.3 1 2.3 1s1.7-.3 2.3-1a5.3 5.3 0 00.8-3.2c0-1-.3-2.1-.9-3a2.7 2.7 0 00-2.3-1.1c-.9 0-1.7.4-2.2 1-.6.8-.9 1.9-.9 3.3zm12.4-5.7v1.3c.8-1 2-1.5 3.3-1.5 1.5 0 2.6.6 3.2 1.8.3-.5.8-1 1.4-1.3a5 5 0 012.1-.5c2.4 0 3.7 1.3 3.7 3.9v7.4h-1.9v-7.3a3 3 0 00-.5-1.8c-.4-.4-1-.6-1.9-.6-.6 0-1.2.2-1.7.7-.5.4-.8 1-.8 1.7v7.3h-2v-7.3a2.1 2.1 0 00-2.3-2.4c-1.2 0-2 .5-2.5 1.6v8.1h-2v-11h1.9zm21.2 11.3c-1.5 0-2.7-.5-3.7-1.5s-1.4-2.3-1.4-4v-.3c0-1 .2-2 .6-3a5 5 0 011.8-2 5.2 5.2 0 012.5-.7c1.4 0 2.5.5 3.3 1.4.8 1 1.2 2.3 1.2 4.1v.8h-7.4c0 1.1.4 2 1 2.7a3 3 0 002.3 1c.6 0 1.2-.1 1.7-.4s.9-.7 1.2-1.1l1.2.9a4.6 4.6 0 01-4.2 2.1zm-.2-10c-.8 0-1.4.4-2 1a4 4 0 00-1 2.3h5.6v-.2a3 3 0 00-.8-2.2c-.4-.5-1-.8-1.9-.8zm21.4-4-6.3 13.8h-2l6.2-13.4h-8.1v-1.5h10v1zm10.1 8.8h2.1v1.6h-2v3.4h-2v-3.5h-6.8v-1l6.7-10.4h2zm-6.5 0h4.6v-7.3l-.2.4zm-89.5 60h-2v-15h2zm12-6.9h-6.5v5.3h7.6v1.6h-9.5v-15h9.4v1.7h-7.4v4.8h6.4zm14.5 6.9h-2v-12.6l-3.8 1.4v-1.8l5.5-2h.3zm11.8 0h-2v-12.6l-3.8 1.4v-1.8l5.5-2h.3z" fill="#000"/><path d="m4.5 319.6 28.5 17c.6.3 1 1 1 1.7v33.7a2 2 0 01-3 1.7l-28.5-17a2 2 0 01-1-1.7v-33.7a2 2 0 013-1.7zm13.8-13.4 29 17.2a2 2 0 010 3.5l-10.3 6.1a2 2 0 01-2 0l-29-17.2a2 2 0 010-3.5l10.4-6.2a2 2 0 012 0zm35 15.9-29-17.2a2 2 0 010-3.5l10.8-6.3a2 2 0 012 0l28.9 17.2a2 2 0 010 3.4l-10.6 6.4a2 2 0 01-2 0zm17.2-.7v33.5a2 2 0 01-1 1.7l-28.4 17a2 2 0 01-3-1.7v-33.6a2 2 0 011-1.7l28.4-17a2 2 0 013 1.8z" fill="#647687" stroke="#314354"/><path d="m3.5 218.6 28.5 17c.6.3 1 1 1 1.7v33.7a2 2 0 01-3 1.7l-28.5-17a2 2 0 01-1-1.7v-33.7a2 2 0 013-1.7zm1.5-7.2 10.3-6.2a2 2 0 012 0l29 17.2a2 2 0 010 3.5l-10.3 6.1a2 2 0 01-2 0l-29-17.2a2 2 0 010-3.5zm18.3-11 10.8-6.3a2 2 0 012 0l28.9 17.2a2 2 0 010 3.4l-10.6 6.4a2 2 0 01-2 0l-29-17.2a2 2 0 010-3.5zm45.2 55.2-28.4 17a2 2 0 01-3-1.7v-33.6a2 2 0 011-1.7l28.4-17a2 2 0 013 1.8v33.5a2 2 0 01-1 1.7z" fill="#76608a" stroke="#432d57"/><path d="m4.5 410.6 28.5 17c.6.3 1 1 1 1.7v33.7a2 2 0 01-3 1.7l-28.5-17a2 2 0 01-1-1.7v-33.7a2 2 0 013-1.7zm1.5-7.2 10.3-6.2a2 2 0 012 0l29 17.2a2 2 0 010 3.5l-10.3 6.1a2 2 0 01-2 0l-29-17.2a2 2 0 010-3.5zm18.3-11 10.8-6.3a2 2 0 012 0l28.9 17.2a2 2 0 010 3.4l-10.6 6.4a2 2 0 01-2 0l-29-17.2a2 2 0 010-3.5zm46.2 20v33.5a2 2 0 01-1 1.7l-28.4 17a2 2 0 01-3-1.7v-33.6a2 2 0 011-1.7l28.4-17a2 2 0 013 1.8z" fill="#6d8764" stroke="#3a5431"/><g stroke="#000" stroke-width="3"><path d="m373.5 319.5h59v-85h48.9"/><path d="m373.5 319.5h59v-26h48.9m-107.9 26h59v33h47.9m-409.9-19h65m-66-100h62v100h59.9m-120.9 92h61v-92h59.9"/><path d="m373.5 319.5h59v90h47.9"/><path d="m488.2 234.5-9.1 4.5 2.3-4.5-2.3-4.5zm0 59-9.1 4.5 2.3-4.5-2.3-4.5zm-1 59-9.1 4.5 2.3-4.5-2.3-4.5zm-289-19-9.1 4.5 2.3-4.5-2.3-4.5zm289 76-9.1 4.5 2.3-4.5-2.3-4.5z" fill="#000"/></g><path d="m203.7 299.3a6.9 6.9 0 016.9-6.6h155.9c3.7 0 6.7 3 6.8 6.6l.2 40.2a7 7 0 01-2 5 6.8 6.8 0 01-5 2h-156a6.9 6.9 0 01-6.8-7zm20.5 34.4a6 6 0 10-12 0 6 6 0 1012 .1zm102.7-.5a1.9 1.9 0 00-1.8 2 1.9 1.9 0 001.8 1.8h34.3a2 2 0 001.9-1.9c0-1-.9-1.9-2-1.9h-34.1zm0-6.6a1.9 1.9 0 00-1.8 1.9 1.9 1.9 0 001.8 2h34.3a2 2 0 001.9-2c0-1-.9-2-2-2h-34.1zm0-6.8a1.9 1.9 0 00-1.8 1.9 1.9 1.9 0 001.8 2h34.3a2 2 0 001.9-2c0-1-.9-2-2-2h-34.1zm-123.4-78.8a6.9 6.9 0 016.8-6.6h156c3.7 0 6.7 3 6.8 6.6l.2 40.2a7 7 0 01-2 5 6.8 6.8 0 01-5 2h-156a7 7 0 01-6.8-7zm20.5 34.4a6 6 0 10-12 0 6 6 0 1012 .1zm102.7-.5a1.9 1.9 0 00-1.8 2 1.9 1.9 0 001.8 1.9h34.3a1.9 1.9 0 001.9-2 1.9 1.9 0 00-1.9-1.9h-34.2zm0-6.6a1.9 1.9 0 00-1.8 1.9 1.9 1.9 0 001.8 2h34.3a1.9 1.9 0 001.9-2 1.9 1.9 0 00-1.9-2h-34.2zm0-6.8a1.9 1.9 0 00-1.8 1.9 1.9 1.9 0 001.8 2h34.3a1.9 1.9 0 001.9-2 1.9 1.9 0 00-1.9-2h-34.2zm-123 95.7a6.9 6.9 0 016.9-6.6h155.9a7 7 0 016.8 6.6l.2 40.2a7 7 0 01-2 5 6.8 6.8 0 01-5 2h-156a6.9 6.9 0 01-6.8-7zm20.5 34.4a6 6 0 10-12 0 6 6 0 1012 .1zm102.7-.5a1.9 1.9 0 00-1.8 2 1.9 1.9 0 001.8 1.8h34.3a2 2 0 001.9-1.9c0-1-.9-2-2-2h-34.1zm0-6.6a1.9 1.9 0 00-1.8 1.9 1.9 1.9 0 001.8 1.9h34.3a2 2 0 001.9-2c0-1-.9-1.8-2-1.8h-34.1zm0-6.8a1.9 1.9 0 00-1.8 1.9 1.9 1.9 0 001.8 1.9h34.3a2 2 0 001.9-2c0-1-.9-1.8-2-1.8h-34.1z" fill="#f5f5f5" stroke="#666"/><path d="m240.1 11.7h-9.1v25.3h-3.8v-25.4h-9v-3h22v3h-.1zm7.3 6.7a8 8 0 016.2-3c4.5 0 6.7 2.6 6.8 7.6v14h-3.6v-14c0-1.5-.4-2.6-1-3.4-.8-.7-1.8-1-3.3-1-1 0-2.1.2-3 .9a6 6 0 00-2.1 2.4v15.1h-3.6v-30h3.6zm27.2 19c-2.9 0-5.2-1-7-2.8a10.5 10.5 0 01-2.7-7.6v-.6a11.8 11.8 0 014.5-9.6c1.4-.8 3-1.3 4.7-1.3a8 8 0 016.4 2.7c1.5 1.8 2.3 4.4 2.3 7.8v1.5h-14.3c0 1.8.6 3.6 1.8 5a6 6 0 007.7 1.1 8 8 0 002.3-2l2.2 1.7a8.9 8.9 0 01-8 4zm-.5-19c-1.4 0-2.7.6-3.7 1.6s-1.5 2.6-1.8 4.5h10.6v-.3a6.8 6.8 0 00-1.5-4.2c-.9-1-2.2-1.6-3.6-1.6zm25.5-8.8-.6 7h-2v-9.6h2.7v2.7zm5.3 0-.6 7h-2.3v-9.6h2.8v2.7zm5.4 27.4v-28.4h9.3c3.1 0 5.4.6 7 1.9 1.5 1.2 2.3 3.1 2.3 5.6 0 1.3-.4 2.5-1.1 3.6-.8 1-2 1.8-3.1 2.3a7 7 0 013.6 2.5 7 7 0 011.3 4.3c.2 2.3-.7 4.5-2.4 6s-4 2.2-7 2.2zm3.8-13.3v10.2h6.1a6 6 0 004.2-1.3 5 5 0 001.5-3.8c0-3.4-1.9-5.1-5.6-5.1h-6.3zm0-3h5.6c1.4 0 2.8-.4 4-1.2 1-.8 1.5-2 1.4-3.4 0-1.5-.4-2.7-1.4-3.4-.8-.7-2.3-1-4.1-1h-5.6v9zm29.3 16.7c-2.6.1-5.1-1-7-2.8a10.5 10.5 0 01-2.7-7.6v-.6c0-2 .4-3.9 1.2-5.6.8-1.6 2-3 3.4-3.9 1.4-1 3-1.4 4.7-1.4a8 8 0 016.4 2.7c1.5 1.8 2.3 4.4 2.3 7.8v1.5h-14.4c0 1.8.7 3.6 1.9 5 1 1.3 2.7 2 4.4 2a7.2 7.2 0 005.6-2.9l2.2 1.7a8.9 8.9 0 01-8 4zm-.4-19c-1.4 0-2.8.6-3.7 1.7-1 1-1.6 2.5-1.8 4.4h10.5v-.3a6.8 6.8 0 00-1.5-4.2 5 5 0 00-3.6-1.6zm25.2 13c0-1-.4-1.7-1.1-2.3-.8-.5-2-1-3.9-1.4-1.5-.3-3-.7-4.3-1.4-1-.4-1.8-1-2.4-2-.5-.7-.8-1.7-.8-2.6 0-1.8.8-3.2 2.2-4.4a8.6 8.6 0 015.7-1.8 9 9 0 015.8 1.8 5.9 5.9 0 012.2 4.8h-3.6c0-1-.4-1.9-1.3-2.6a5 5 0 00-3.1-1c-1.3 0-2.4.3-3.1.8s-1.2 1.4-1.1 2.3c0 .8.3 1.5 1 2 .7.4 2 .8 3.7 1.2 1.5.3 3 .8 4.4 1.4 1 .5 1.9 1.2 2.5 2 .6.9.8 1.8.8 3 0 1.8-.8 3.5-2.2 4.5a9.5 9.5 0 01-6 1.7c-1.6 0-3.1-.3-4.4-.9a7.4 7.4 0 01-3-2.5c-.8-1-1.2-2.2-1.2-3.5h3.6c0 1.2.6 2.2 1.5 2.9 1 .7 2.3 1.1 3.6 1 1.1.1 2.3-.2 3.2-.8.8-.4 1.3-1.3 1.3-2.2zm13.2-20.6v5h4v2.9h-4v13c0 1 .2 1.6.5 2 .4.4 1 .6 1.8.6.4 0 1 0 1.8-.2v2.9c-1 .3-2 .4-2.8.4-1.6 0-2.8-.5-3.7-1.5-.8-1-1.2-2.3-1.2-4.1v-13.1h-3.9v-2.8h3.9v-5.1zm10.9-1.1-.6 7h-2.2v-9.7h2.7v2.7zm5.2 0-.6 7h-2.1v-9.7h2.7zm20.2-1.1 9.3 23.2 9.3-23.2h4.9v28.4h-3.8v-11l.4-12-9.4 23h-2.8l-9.3-23 .3 12v11h-3.6v-28.4h4.8zm28.6 17.6c0-2 .4-3.9 1.2-5.6.7-1.5 2-2.9 3.4-3.8a8.7 8.7 0 015-1.3 9 9 0 017 3c1.7 2 2.6 4.6 2.6 8v.2c0 2-.4 3.9-1.2 5.5a8.9 8.9 0 01-8.4 5.2c-2.7 0-5.2-1-7-3-1.7-2-2.6-4.6-2.6-7.9zm3.6.5a9 9 0 001.6 5.6c1 1.4 2.7 2.2 4.4 2.1 1.7.1 3.4-.7 4.4-2.1a10 10 0 001.6-6 9 9 0 00-1.6-5.7 5.2 5.2 0 00-4.4-2.2c-1.7 0-3.3.8-4.3 2.2a9.8 9.8 0 00-1.7 6zm19.3-.4c0-3.3.8-5.9 2.3-7.8 1.4-2 3.6-3 6-3 2.5 0 4.4.9 5.9 2.5v-11h3.6v30h-3.3l-.2-2.3a7.4 7.4 0 01-6 2.7c-2.5 0-4.5-1-6-3-1.6-2-2.3-4.6-2.3-7.9zm3.6.4c0 2.4.5 4.2 1.5 5.6.9 1.3 2.4 2 4 2 2.4 0 4-1 5-3v-9.8c-.8-1.9-2.8-3-4.9-3a5 5 0 00-4.1 2 11 11 0 00-1.5 6.2zm28.6 10.7c-2.9 0-5.2-1-7-2.8a10.5 10.5 0 01-2.7-7.6v-.6c0-2 .4-3.9 1.2-5.6.7-1.6 1.9-3 3.3-4 1.4-.8 3-1.3 4.7-1.3a8 8 0 016.4 2.7c1.6 1.8 2.3 4.4 2.3 7.8v1.5h-14.3c0 1.8.6 3.6 1.8 5a6 6 0 007.7 1.1c1-.5 1.7-1.2 2.3-2l2.2 1.7a8.9 8.9 0 01-8 4zm-.5-19c-1.4 0-2.7.6-3.6 1.6-1 1-1.6 2.6-1.9 4.5h10.6v-.3a6.8 6.8 0 00-1.5-4.2c-.9-1-2.2-1.6-3.6-1.6zm16.9 18.6h-3.6v-30h3.6zm-509.4 80.7h-4l-.9 2.3h-2.5l4.3-11.4h2.1l4.3 11.4h-2.5zm-3.4-2h2.8l-1.4-4.2-1.4 4.3zm12.4-2-.8-.1c-.9 0-1.4.3-1.7.9v5.5h-2.3v-8.5h2.2v1c.5-.7 1.1-1.1 2-1.1h.6zm4.2-4.2v2h1.4v1.7h-1.4v4.2c0 .3 0 .6.2.7 0 .1.3.2.7.2h.6v1.6c-.4.2-.9.2-1.4.2-1.5 0-2.3-.8-2.4-2.4v-4.5h-1.2v-1.7h1.2v-2zm5 10.5h-2.2v-8.5h2.3v8.5zm-2.3-10.7c0-.3 0-.6.3-.8s.6-.3 1-.3c.3 0 .6 0 .9.3.2.2.3.5.3.8 0 .4-.1.7-.3.9-.3.2-.6.3-1 .3-.3 0-.6 0-.9-.3-.2-.2-.3-.5-.3-.9zm4.7 10.7v-6.8h-1v-1.7h1v-.7c0-1 .3-1.7.8-2.2.6-.5 1.3-.8 2.3-.8.4 0 .8 0 1.2.2v1.7h-.7c-.9 0-1.3.4-1.3 1.2v.6h1.7v1.7h-1.7v6.8zm10 0-.2-.8c-.5.6-1.2 1-2.1 1a3 3 0 01-2-.8 2 2 0 01-.9-1.8c0-.9.4-1.6 1-2a5 5 0 013-.8h1v-.5l-.3-.9c-.2-.2-.5-.3-1-.3-.4 0-.7 0-.9.2a1 1 0 00-.3.8h-2.3c0-.5.1-1 .4-1.4a3 3 0 011.3-1c.6-.2 1.2-.3 1.9-.3.9 0 1.8.2 2.5.8.6.5.9 1.2.9 2.2v3.6c0 .8.1 1.4.3 1.9h-2.3zm-1.8-1.6c.3 0 .6 0 1-.2.2-.1.4-.3.5-.6v-1.4h-.7c-1.1 0-1.7.4-1.8 1.1v.2c0 .2.1.5.3.7l.8.2zm9 0c.5 0 .8-.2 1-.4.3-.2.5-.6.5-1h2.1a3 3 0 01-1.7 2.7 4 4 0 01-1.8.5c-1.2 0-2.2-.4-2.9-1.2s-1-1.8-1-3.2v-.1a5 5 0 011-3.2c.8-.8 1.8-1.2 2.9-1.1 1 0 1.9.3 2.5.9s1 1.4 1 2.4h-2.1a1.4 1.4 0 00-1.4-1.5c-.6 0-1 .2-1.3.6-.2.4-.4 1-.4 1.9v.2c0 .9.2 1.5.4 1.9.3.4.7.5 1.2.5zm7.6-9v2.1h1.4v1.7h-1.2v4.2c0 .3 0 .6.2.7 0 .1.3.2.7.2h.6v1.6c-.4.2-.9.2-1.4.2-1.5 0-2.4-.8-2.4-2.4v-4.5h-1.2v-1.7h1.2v-2h2.3zm7.3 8.3c0-.3-.2-.5-.4-.7-.3-.2-.7-.3-1.3-.4-2-.4-3-1.3-3-2.6 0-.7.2-1.3.9-1.8.6-.5 1.4-.8 2.4-.8s2 .2 2.6.8c.6.5 1 1.1 1 2h-2.3c0-.4-.1-.7-.3-.9s-.5-.3-1-.3c-.4 0-.6.1-.9.3-.2.1-.3.4-.3.6 0 .3.2.5.4.6.2.2.6.3 1.2.4l1.4.4c1.2.4 1.8 1.2 1.8 2.3 0 .7-.3 1.4-1 1.9s-1.6.7-2.5.7c-.8 0-1.4-.2-2-.4-.5-.2-1-.6-1.2-1a3 3 0 01-.5-1.5h2.1c0 .4.2.7.5 1 .3.2.6.3 1 .3.5 0 .8-.1 1-.3.3-.1.4-.4.4-.6zm-58.8 21.3v-11.4h3.7c1.3 0 2.2.3 2.8.8a3 3 0 011 2.3c0 .5-.2 1-.5 1.4a3 3 0 01-1.2 1c.6 0 1 .4 1.4.9s.6 1 .6 1.7a3 3 0 01-1 2.4c-.8.6-1.8 1-2.8.9zm1.5-5.3v4h2.5c.7 0 1.3-.1 1.7-.5.3-.3.6-.8.6-1.5 0-1.3-.8-2-2.3-2zm0-1.2h2.3a3 3 0 001.6-.5c.4-.3.6-.8.6-1.4s-.2-1-.6-1.3-.9-.5-1.6-.5h-2.3zm13.5 5.7c-.6.6-1.4 1-2.5 1-.9 0-1.6-.3-2-.8-.5-.5-.8-1.3-.8-2.3v-5.5h1.5v5.4c0 1.3.5 2 1.6 2 1 0 1.8-.5 2.2-1.3v-6.2h1.4v8.5h-1.4zm5-7.6v1c.7-.8 1.5-1.2 2.5-1.2 1.8 0 2.7 1 2.7 3v5.6h-1.4v-5.6c0-.6-.2-1-.4-1.3-.3-.3-.7-.5-1.3-.5a2 2 0 00-1.2.4c-.4.3-.6.6-.8 1v6h-1.5v-8.4zm7 4.1a5 5 0 011-3.1c.5-.8 1.4-1.2 2.4-1.2.9 0 1.8.3 2.3 1v-4.4h1.5v12h-1.3l-.1-.9a3 3 0 01-2.4 1c-1 0-1.9-.4-2.4-1.1-.7-1-1-2-1-3.2zm1.5.2c0 1 .2 1.7.6 2.2.4.6 1 .8 1.6.8 1 0 1.7-.4 2-1.2v-3.9a2.1 2.1 0 00-2-1.2 2 2 0 00-1.6.8c-.4.6-.6 1.4-.6 2.5zm9.5 4.1h-1.3v-12h1.4v12zm5.8.2c-1 0-2-.4-2.8-1.1a5 5 0 01-1-3v-.3c0-.8.1-1.6.4-2.3a4 4 0 011.4-1.5c.6-.4 1.2-.6 1.9-.6 1 0 2 .4 2.5 1.1.7 1 1 2 1 3.1v.6h-5.8c0 .8.2 1.5.7 2s1 .8 1.8.8c.5 0 1 0 1.3-.3a3 3 0 001-.8l.8.7c-.7 1-1.8 1.6-3.2 1.6zm-.1-7.6a2 2 0 00-1.5.6 3 3 0 00-.7 1.8h4.2c0-.7-.2-1.3-.6-1.8-.4-.4-.8-.6-1.4-.6zm4.8 3.1a5 5 0 01.9-3.1c.5-.8 1.4-1.2 2.4-1.2.9 0 1.8.3 2.3 1v-4.4h1.6v12h-1.3l-.1-.9a3 3 0 01-2.4 1c-1 0-1.9-.4-2.4-1.1-.7-1-1-2-1-3.2zm1.4.2c0 1 .2 1.7.6 2.2.4.6 1 .8 1.7.8.8 0 1.6-.4 2-1.2v-3.9a2.1 2.1 0 00-2-1.2 2 2 0 00-1.7.8c-.4.6-.6 1.4-.6 2.5zm20.5.5c0 1-.5 2-1.3 2.8a5 5 0 01-3 1 4 4 0 01-3.2-1.5 5.8 5.8 0 01-1.2-3.7v-1.1c0-1 .1-2 .5-2.8a4.2 4.2 0 014-2.5c1 0 2.1.3 3 1 .7.7 1.1 1.7 1.2 2.8h-1.5c-.1-.9-.4-1.6-.9-2-.4-.4-1-.6-1.8-.6-.9 0-1.7.4-2.2 1a5 5 0 00-.8 3.1v1.1c0 1 .2 2 .7 3 .5.7 1.3 1 2.2 1a3 3 0 001.9-.5c.5-.4.7-1 .9-2h1.5zm1.5-.7c0-.8.1-1.6.4-2.2.7-1.3 2-2.1 3.4-2.1 1.1 0 2 .4 2.8 1.2.7.8 1 1.9 1 3.2a5 5 0 01-.4 2.3 3 3 0 01-1.4 1.5c-.5.4-1.2.6-2 .6-1.1 0-2-.4-2.8-1.2-.7-1-1.1-2-1-3.2zm1.4.2c0 1 .2 1.7.7 2.2.4.6 1 .9 1.7.9s1.3-.3 1.8-.9a4 4 0 00.6-2.4c0-1-.2-1.7-.7-2.3a2 2 0 00-1.7-.8 2 2 0 00-1.7.8 4 4 0 00-.7 2.5zm7.7-.2c0-1.3.3-2.3 1-3.1.5-.8 1.4-1.2 2.3-1.2 1 0 1.8.3 2.4 1v-4.4h1.4v12h-1.3v-.9a3 3 0 01-2.5 1 3 3 0 01-2.4-1.1c-.6-1-1-2-.9-3.2zm1.5.2c0 1 .2 1.7.6 2.2.4.6.9.8 1.6.8.9 0 1.7-.4 2-1.2v-3.9a2.1 2.1 0 00-2-1.2 2 2 0 00-1.7.8c-.3.6-.5 1.4-.5 2.4zm11.4 4.3c-1 0-2-.4-2.8-1.1-.7-.9-1.1-2-1-3v-.3c0-.8 0-1.6.4-2.3.3-.6.8-1.2 1.4-1.5.5-.4 1.1-.6 1.8-.6 1.1 0 2 .4 2.6 1.1.7 1 1 2 .9 3.1v.6h-5.7c0 .8.2 1.5.7 2s1 .8 1.8.8c.5 0 1 0 1.3-.3a3 3 0 001-.8l.8.7c-.7 1-1.8 1.6-3.2 1.6zm-.2-7.6a2 2 0 00-1.4.6 3 3 0 00-.8 1.8h4.3c0-.7-.3-1.3-.6-1.8a2 2 0 00-1.5-.6z" fill="#000"/></svg>
