<?xml version="1.0" encoding="UTF-8"?>
<svg width="777px" height="468px" viewBox="0 0 777 468" version="1.1" xmlns="http://www.w3.org/2000/svg" xmlns:xlink="http://www.w3.org/1999/xlink">
    <!-- Generator: Sketch 56.2 (81672) - https://sketch.com -->
    <title>best_hub_model</title>
    <desc>Created with Sketch.</desc>
    <g id="Page-1" stroke="none" stroke-width="1" fill="none" fill-rule="evenodd">
        <g id="best_hub_model">
            <polygon id="Path" fill="#FFFFFF" fill-rule="nonzero" points="0 0 776.5 0 776.5 468 0 468"></polygon>
            <g id="Group" transform="translate(203.000000, 107.000000)" fill="#000000" fill-rule="nonzero">
                <path d="M290.02,13 L290.02,1.63 L294,1.63 C295.38,1.63 296.43,1.9 297.14,2.43 C297.863131,2.97498496 298.264927,3.84616959 298.21,4.75 C298.21,5.31 298.07,5.8 297.78,6.23 C297.49,6.66 297.08,6.96 296.58,7.16 C297.16,7.31 297.62,7.6 297.96,8.04 C298.308697,8.51040302 298.488398,9.0847391 298.47,9.67 C298.531565,10.6161449 298.142235,11.5357062 297.42,12.15 C296.72,12.71 295.72,13 294.44,13.01 L290.02,13.01 L290.02,13 Z M292.36,8.05 L292.36,11.12 L294.36,11.12 C294.91,11.12 295.34,10.99 295.66,10.72 C295.96,10.45 296.13,10.09 296.13,9.62 C296.13,8.58 295.59,8.05 294.51,8.02 L292.36,8.02 L292.36,8.05 Z M292.36,6.39 L294.1,6.39 C295.28,6.37 295.87,5.89 295.87,4.99 C295.87,4.47 295.72,4.09 295.42,3.89 C295.12,3.66 294.65,3.55 294.02,3.55 L292.38,3.55 L292.38,6.42 L292.36,6.39 Z M303.98,13.16 C302.857505,13.204705 301.764645,12.79353 300.95,12.02 C300.15432,11.2140538 299.733469,10.111132 299.79,8.98 L299.79,8.76 C299.776594,7.97571993 299.944274,7.19891667 300.28,6.49 C300.580559,5.84770732 301.064118,5.30848691 301.67,4.94 C302.292249,4.568879 303.005576,4.37842761 303.73,4.39 C304.89,4.39 305.79,4.75 306.46,5.49 C307.13,6.22 307.46,7.25 307.46,8.59 L307.46,9.51 L302.08,9.51 C302.130707,10.0189103 302.365387,10.4918249 302.74,10.84 C303.11,11.17 303.58,11.34 304.14,11.34 C305.01,11.34 305.69,11.04 306.18,10.4 L307.28,11.64 C306.931505,12.1313847 306.45871,12.5213543 305.91,12.77 C305.307192,13.0428727 304.651625,13.1794493 303.99,13.17 L303.98,13.16 Z M303.72,6.22 C303.27,6.22 302.92,6.37 302.62,6.67 C302.32,6.97 302.17,7.4 302.09,7.97 L305.23,7.97 L305.23,7.79 C305.22,7.29 305.09,6.89 304.83,6.63 C304.57,6.37 304.2,6.23 303.73,6.23 L303.72,6.22 Z M313.32,10.67 C313.32,10.39 313.18,10.17 312.92,10.02 C312.65,9.86 312.22,9.72 311.62,9.59 C309.62,9.17 308.6,8.31 308.6,7.03 C308.6,6.28 308.9,5.66 309.53,5.16 C310.16,4.66 310.97,4.4 311.97,4.4 C313.04,4.4 313.9,4.65 314.54,5.16 C315.19,5.66 315.51,6.32 315.51,7.13 L313.25,7.13 C313.25,6.81 313.15,6.53 312.95,6.33 C312.75,6.13 312.42,6.01 311.97,6.01 C311.59,6.01 311.3,6.11 311.09,6.27 C310.88,6.43 310.79,6.67 310.79,6.93 C310.79,7.18 310.91,7.38 311.14,7.53 C311.37,7.68 311.78,7.81 312.34,7.93 C312.9,8.03 313.38,8.16 313.76,8.31 C314.96,8.75 315.56,9.51 315.56,10.58 C315.56,11.35 315.23,11.98 314.56,12.46 C313.802999,12.9609458 312.906884,13.2094778 312,13.17 C311.3,13.17 310.66,13.05 310.1,12.8 C309.586146,12.5726079 309.14123,12.2139155 308.81,11.76 C308.51,11.32 308.34,10.84 308.34,10.33 L310.48,10.33 C310.5,10.73 310.65,11.03 310.93,11.25 C311.21,11.47 311.58,11.57 312.03,11.57 C312.46,11.57 312.79,11.49 313.01,11.33 C313.223154,11.1822748 313.350227,10.9393399 313.35,10.68 L313.32,10.67 Z M319.68,2.47 L319.68,4.55 L321.13,4.55 L321.13,6.21 L319.68,6.21 L319.68,10.43 C319.68,10.73 319.74,10.97 319.86,11.1 C319.98,11.23 320.21,11.3 320.56,11.3 C320.81,11.3 321.03,11.28 321.22,11.25 L321.22,12.95 C320.78,13.09 320.32,13.15 319.85,13.15 C318.27,13.15 317.45,12.35 317.43,10.75 L317.43,6.2 L316.2,6.2 L316.2,4.54 L317.43,4.54 L317.43,2.46 L319.69,2.46 L319.68,2.47 Z M332.94,10.67 L328.84,10.67 L328.06,13.01 L325.56,13.01 L329.79,1.64 L331.96,1.64 L336.22,13.02 L333.72,13.02 L332.92,10.68 L332.94,10.67 Z M329.46,8.77 L332.3,8.77 L330.87,4.51 L329.47,8.77 L329.46,8.77 Z M336.8,8.72 C336.8,7.42 337.1,6.38 337.72,5.59 C338.309514,4.80950602 339.242503,4.36540312 340.22,4.4 C341.15,4.4 341.87,4.72 342.38,5.35 L342.48,4.55 L344.53,4.55 L344.53,12.72 C344.53,13.46 344.36,14.1 344.03,14.65 C343.696109,15.1987379 343.204804,15.6342918 342.62,15.9 C342.02,16.2 341.3,16.3300007 340.48,16.3300007 C339.857854,16.3303363 339.242104,16.2044649 338.67,15.96 C338.148283,15.7653191 337.6864,15.4378644 337.33,15.01 L338.33,13.64 C338.89,14.27 339.58,14.58 340.38,14.58 C340.98,14.58 341.45,14.42 341.78,14.1 C342.11,13.78 342.28,13.33 342.28,12.74 L342.28,12.29 C341.763626,12.8764874 341.010853,13.1996286 340.23,13.17 C339.262961,13.1947609 338.343321,12.7516953 337.76,11.98 C337.09914,11.0628782 336.767861,9.94921645 336.82,8.82 L336.82,8.72 L336.8,8.72 Z M339.06,8.88 C339.023634,9.5162741 339.184258,10.1482948 339.52,10.69 C339.82,11.12 340.25,11.34 340.79,11.34 C341.49,11.34 341.97,11.08 342.27,10.57 L342.27,7 C341.97,6.48 341.47,6.23 340.81,6.23 C340.27,6.23 339.84,6.45 339.53,6.89 C339.23,7.33 339.07,7.99 339.07,8.87 L339.06,8.88 Z M350.16,13.16 C348.92,13.16 347.91,12.78 347.13,12.02 C346.35,11.26 345.97,10.25 345.97,8.98 L345.97,8.76 C345.956594,7.97571993 346.124274,7.19891667 346.46,6.49 C346.760559,5.84770732 347.244118,5.30848691 347.85,4.94 C348.472249,4.568879 349.185576,4.37842761 349.91,4.39 C350.93587,4.33506247 351.934073,4.7336126 352.64,5.48 C353.31,6.21 353.64,7.24 353.64,8.58 L353.64,9.5 L348.26,9.5 C348.310707,10.0089103 348.545387,10.4818249 348.92,10.83 C349.29,11.16 349.76,11.33 350.32,11.33 C351.19,11.33 351.87,11.03 352.36,10.39 L353.46,11.63 C353.12,12.11 352.66,12.48 352.09,12.76 C351.487192,13.0328727 350.831625,13.1694493 350.17,13.16 L350.16,13.16 Z M349.9,6.22 C349.45,6.22 349.1,6.37 348.8,6.67 C348.52,6.97 348.35,7.4 348.27,7.97 L351.41,7.97 L351.41,7.79 C351.4,7.29 351.26,6.89 351.01,6.63 C350.76,6.37 350.38,6.23 349.91,6.23 L349.9,6.22 Z M357,4.55 L357.07,5.53 C357.67,4.78 358.47,4.4 359.5,4.4 C360.4,4.4 361.06,4.66 361.5,5.2 C361.94,5.74 362.16,6.5 362.17,7.56 L362.17,13 L359.91,13 L359.91,7.6 C359.91,7.12 359.81,6.77 359.61,6.56 C359.41,6.34 359.06,6.23 358.57,6.23 C357.93,6.23 357.47,6.5 357.14,7.03 L357.14,13 L354.88,13 L354.88,4.55 L357,4.55 Z M366.6,2.47 L366.6,4.55 L368.05,4.55 L368.05,6.21 L366.6,6.21 L366.6,10.43 C366.6,10.73 366.66,10.97 366.78,11.1 C366.9,11.23 367.13,11.3 367.48,11.3 C367.73,11.3 367.95,11.28 368.14,11.25 L368.14,12.95 C367.7,13.09 367.24,13.15 366.77,13.15 C365.19,13.15 364.37,12.35 364.35,10.75 L364.35,6.2 L363.11,6.2 L363.11,4.54 L364.35,4.54 L364.35,2.46 L366.61,2.46 L366.6,2.47 Z M373.88,10.67 C373.88,10.39 373.74,10.17 373.48,10.02 C373.068014,9.81022473 372.626163,9.66518941 372.17,9.59 C370.17,9.17 369.17,8.31 369.17,7.03 C369.17,6.28 369.47,5.66 370.1,5.16 C370.73,4.66 371.54,4.4 372.55,4.4 C373.62,4.4 374.48,4.65 375.12,5.16 C375.76,5.67 376.09,6.32 376.09,7.13 L373.83,7.13 C373.83,6.81 373.73,6.53 373.53,6.33 C373.33,6.13 373,6.01 372.55,6.01 C372.17,6.01 371.87,6.11 371.67,6.27 C371.47,6.43 371.37,6.67 371.37,6.93 C371.37,7.18 371.49,7.38 371.72,7.53 C371.96,7.68 372.36,7.81 372.92,7.93 C373.402527,8.01940595 373.877312,8.146461 374.34,8.31 C375.54,8.75 376.14,9.51 376.14,10.58 C376.14,11.35 375.81,11.98 375.14,12.46 C374.382999,12.9609458 373.486884,13.2094778 372.58,13.17 C371.88,13.17 371.24,13.05 370.68,12.8 C370.166146,12.5726079 369.72123,12.2139155 369.39,11.76 C369.09,11.32 368.92,10.84 368.92,10.33 L371.06,10.33 C371.08,10.73 371.23,11.03 371.51,11.25 C371.79,11.47 372.16,11.57 372.61,11.57 C373.04,11.57 373.37,11.49 373.59,11.33 C373.81,11.17 373.93,10.95 373.93,10.68 L373.88,10.67 Z M290.32,32 L290.32,20.63 L293.52,20.63 C294.52,20.63 295.39,20.85 296.15,21.29 C296.90956,21.7244591 297.52233,22.3755268 297.91,23.16 C298.33,23.96 298.54,24.9 298.54,25.94 L298.54,26.67 C298.54,27.74 298.34,28.67 297.92,29.49 C297.5,30.31 296.92,30.92 296.15,31.35 C295.38,31.78 294.49,32 293.47,32.01 L290.32,32.01 L290.32,32 Z M291.82,21.86 L291.82,30.76 L293.4,30.76 C294.56,30.76 295.45,30.4 296.1,29.68 C296.75,28.96 297.07,27.94 297.07,26.61 L297.07,25.95 C297.07,24.65 296.77,23.65 296.17,22.95 C295.57,22.23 294.71,21.87 293.59,21.85 L291.84,21.85 L291.82,21.86 Z M304.1,32.16 C303.049968,32.2012211 302.03194,31.7940096 301.3,31.04 C300.554673,30.2158374 300.166324,29.1298986 300.22,28.02 L300.22,27.75 C300.22,26.91 300.38,26.15 300.7,25.51 C301.02,24.85 301.47,24.33 302.04,23.96 C302.61,23.59 303.24,23.4 303.92,23.4 C305.02,23.4 305.87,23.76 306.48,24.5 C307.09,25.24 307.38,26.26 307.38,27.6 L307.38,28.2 L301.65,28.2 C301.635696,28.9403509 301.895708,29.6598348 302.38,30.22 C302.85,30.72 303.44,30.99 304.16,30.99 C304.66,30.99 305.1,30.89 305.46,30.69 C305.82,30.49 306.12,30.21 306.39,29.86 L307.27,30.56 C306.57,31.66 305.5,32.19 304.07,32.19 L304.1,32.16 Z M303.92,24.58 C303.34,24.58 302.85,24.78 302.45,25.22 C302.05,25.66 301.81,26.24 301.72,27 L305.950002,27 L305.950002,26.9 C305.950674,26.2813276 305.738861,25.6811895 305.35,25.2 C305,24.8 304.52,24.6 303.91,24.6 L303.92,24.58 Z M308.72,27.71 C308.72,26.41 309.02,25.37 309.64,24.59 C310.199924,23.8225318 311.100244,23.3779757 312.05,23.4 C313.05,23.4 313.82,23.74 314.4,24.42 L314.4,20 L315.85,20 L315.85,32 L314.52,32 L314.45,31.1 C313.858835,31.8079486 312.971454,32.1998753 312.05,32.16 C311.101927,32.1764196 310.205708,31.7283102 309.65,30.96 C309.05,30.16 308.73,29.11 308.73,27.82 L308.73,27.72 L308.72,27.71 Z M310.17,27.87 C310.17,28.83 310.37,29.57 310.77,30.12 C311.17,30.67 311.71,30.92 312.41,30.92 C313.270968,30.9582659 314.067915,30.4666174 314.42,29.68 L314.42,25.8 C313.99,25 313.32,24.6 312.42,24.6 C311.72,24.6 311.16,24.87 310.76,25.42 C310.36,25.97 310.16,26.78 310.16,27.85 L310.17,27.87 Z M319.67,32 L318.22,32 L318.22,23.55 L319.67,23.55 L319.67,32 Z M318.11,21.3 C318.11,21.06 318.18,20.87 318.31,20.7 C318.46,20.54 318.67,20.46 318.95,20.46 C319.23,20.46 319.45,20.54 319.59,20.7 C319.73,20.86 319.81,21.06 319.81,21.3 C319.81,21.54 319.74,21.73 319.59,21.9 C319.44,22.07 319.23,22.13 318.95,22.13 C318.67,22.13 318.45,22.05 318.31,21.9 C318.169542,21.7326638 318.098036,21.5181435 318.11,21.3 L318.11,21.3 Z M325.38,30.97 C325.88,30.97 326.35,30.81 326.73,30.5 C327.11,30.19 327.33,29.8 327.37,29.33 L328.74,29.33 C328.71,29.81 328.54,30.27 328.24,30.71 C327.923435,31.1566012 327.500743,31.5174362 327.01,31.76 C326.51,32.02 325.96,32.16 325.39,32.16 C324.347754,32.2056707 323.339465,31.7840226 322.64,31.01 C321.918421,30.1204015 321.554703,28.9935902 321.62,27.85 L321.62,27.61 C321.604687,26.8523414 321.758413,26.1007927 322.07,25.41 C322.37,24.77 322.8,24.27 323.37,23.91 C323.94,23.55 324.61,23.38 325.37,23.38 C326.32,23.38 327.1,23.66 327.73,24.23 C328.36,24.8 328.7,25.53 328.73,26.43 L327.36,26.43 C327.32,25.88 327.11,25.43 326.74,25.09 C326.371045,24.7396588 325.878675,24.5491797 325.37,24.56 C324.63,24.56 324.07,24.83 323.67,25.36 C323.27,25.89 323.07,26.66 323.07,27.66 L323.07,27.93 C323.07,28.9 323.27,29.65 323.67,30.18 C324.07,30.71 324.64,30.98 325.39,30.98 L325.38,30.97 Z M335.58,31.99 C335.468846,31.7016459 335.401434,31.3982919 335.38,31.09 C334.766473,31.7664219 333.893176,32.1484895 332.98,32.14 C332.233334,32.1701288 331.502302,31.9205083 330.93,31.44 C330.406899,30.9903258 330.113247,30.3296089 330.13,29.64 C330.13,28.76 330.46,28.08 331.13,27.59 C331.8,27.1 332.73,26.86 333.96,26.86 L335.36,26.86 L335.36,26.2 C335.36,25.7 335.21,25.3 334.91,25 C334.61,24.7 334.16,24.55 333.57,24.55 C333.05,24.55 332.62,24.68 332.27,24.95 C331.92,25.22 331.75,25.53 331.75,25.9 L330.3,25.9 C330.3,25.48 330.45,25.07 330.75,24.68 C331.071118,24.2690278 331.490734,23.9457168 331.97,23.74 C332.47,23.51 333.05,23.4 333.67,23.4 C334.64,23.4 335.41,23.64 335.97,24.13 C336.52,24.61 336.81,25.28 336.83,26.13 L336.83,30.03 C336.83,30.81 336.93,31.43 337.13,31.88 L337.13,32.01 L335.63,32.01 L335.58,31.99 Z M333.18,30.89 C333.63,30.89 334.06,30.77 334.48,30.54 C334.9,30.31 335.18,30 335.36,29.64 L335.36,27.9 L334.23,27.9 C332.46,27.9 331.57,28.42 331.57,29.46 C331.57,29.91 331.72,30.26 332.02,30.52 C332.32,30.78 332.72,30.9 333.18,30.9 L333.18,30.89 Z M341.02,21.49 L341.02,23.54 L342.6,23.54 L342.6,24.66 L341.02,24.66 L341.02,29.9 C341.02,30.24 341.09,30.5 341.22,30.67 C341.35,30.84 341.6,30.92 341.94,30.92 C342.11,30.92 342.34,30.89 342.64,30.82 L342.64,32 C342.278816,32.1027138 341.905489,32.1565268 341.53,32.16 C340.88,32.16 340.4,31.96 340.07,31.56 C339.74,31.16 339.57,30.62 339.57,29.9 L339.57,24.66 L338.03,24.66 L338.03,23.54 L339.57,23.54 L339.57,21.49 L341.01,21.49 L341.02,21.49 Z M347.8,32.15 C346.749968,32.1912211 345.73194,31.7840096 345,31.03 C344.254673,30.2058374 343.866324,29.1198986 343.92,28.01 L343.92,27.74 C343.92,26.9 344.08,26.14 344.4,25.5 C344.72,24.86 345.17,24.32 345.74,23.95 C346.32,23.58 346.94,23.39 347.62,23.39 C348.72,23.39 349.57,23.75 350.18,24.49 C350.842405,25.3860183 351.164919,26.4882373 351.09,27.6 L351.09,28.2 L345.36,28.2 C345.345696,28.9403509 345.605708,29.6598348 346.09,30.22 C346.56,30.72 347.15,30.99 347.87,30.99 C348.37,30.99 348.81,30.89 349.17,30.69 C349.53,30.49 349.83,30.21 350.1,29.86 L350.98,30.56 C350.28,31.66 349.21,32.19 347.78,32.19 L347.8,32.15 Z M347.62,24.57 C347.04,24.57 346.55,24.77 346.15,25.21 C345.75,25.65 345.51,26.23 345.42,26.99 L349.650002,26.99 L349.650002,26.89 C349.650674,26.2713276 349.438861,25.6711895 349.05,25.19 C348.7,24.79 348.22,24.59 347.61,24.59 L347.62,24.57 Z M352.42,27.7 C352.42,26.4 352.72,25.36 353.34,24.58 C353.899924,23.8125318 354.800244,23.3679757 355.75,23.39 C356.75,23.39 357.52,23.73 358.1,24.41 L358.1,20 L359.54,20 L359.54,32 L358.21,32 L358.14,31.1 C357.548835,31.8079486 356.661454,32.1998753 355.74,32.16 C354.791927,32.1764196 353.895708,31.7283102 353.34,30.96 C352.74,30.16 352.42,29.11 352.42,27.82 L352.42,27.72 L352.42,27.7 Z M353.87,27.86 C353.87,28.82 354.07,29.56 354.47,30.11 C354.87,30.66 355.41,30.91 356.11,30.91 C356.970968,30.9482659 357.767915,30.4566174 358.12,29.67 L358.12,25.79 C357.69,24.99 357.02,24.59 356.12,24.59 C355.42,24.59 354.86,24.86 354.46,25.41 C354.06,25.96 353.86,26.77 353.86,27.84 L353.87,27.86 Z M374.75,31.99 L373.25,31.99 L373.25,26.73 L367.51,26.73 L367.51,32 L366.01,32 L366.01,20.63 L367.51,20.63 L367.51,25.53 L373.25,25.53 L373.25,20.63 L374.75,20.63 L374.75,32 L374.75,31.99 Z M382.41,31.99 C382.298846,31.7016459 382.231434,31.3982919 382.21,31.09 C381.596473,31.7664219 380.723176,32.1484895 379.81,32.14 C379.063334,32.1701288 378.332302,31.9205083 377.76,31.44 C377.236899,30.9903258 376.943247,30.3296089 376.96,29.64 C376.96,28.76 377.29,28.08 377.96,27.59 C378.63,27.1 379.58,26.86 380.79,26.86 L382.19,26.86 L382.19,26.2 C382.19,25.7 382.04,25.3 381.74,25 C381.44,24.7 380.99,24.55 380.4,24.55 C379.9,24.55 379.45,24.68 379.1,24.95 C378.75,25.22 378.58,25.53 378.58,25.9 L377.13,25.9 C377.13,25.48 377.28,25.07 377.57,24.68 C377.891118,24.2690278 378.310734,23.9457168 378.79,23.74 C379.29,23.51 379.87,23.4 380.49,23.4 C381.46,23.4 382.23,23.64 382.79,24.13 C383.34,24.61 383.63,25.28 383.65,26.13 L383.65,30.03 C383.65,30.81 383.75,31.43 383.95,31.88 L383.95,32.01 L382.43,32.01 L382.41,31.99 Z M380.01,30.89 C380.46,30.89 380.89,30.77 381.31,30.54 C381.73,30.31 382.01,30 382.19,29.64 L382.19,27.9 L381.06,27.9 C379.29,27.9 378.4,28.42 378.4,29.46 C378.4,29.91 378.55,30.26 378.85,30.52 C379.15,30.78 379.55,30.9 380.01,30.9 L380.01,30.89 Z M389.98,24.84 C389.748898,24.7993524 389.514648,24.7792737 389.28,24.78 C388.33,24.78 387.68,25.18 387.35,25.98 L387.35,31.98 L385.9,31.98 L385.9,23.53 L387.3,23.53 L387.32,24.51 C387.734721,23.7909537 388.510242,23.3571226 389.34,23.38 C389.62,23.38 389.84,23.42 389.98,23.48 L389.98,24.82 L389.98,24.84 Z M390.81,27.7 C390.81,26.4 391.11,25.36 391.73,24.58 C392.289924,23.8125318 393.190244,23.3679757 394.14,23.39 C395.14,23.39 395.91,23.73 396.49,24.41 L396.49,20 L397.93,20 L397.93,32 L396.6,32 L396.53,31.1 C395.938835,31.8079486 395.051454,32.1998753 394.13,32.16 C393.181927,32.1764196 392.285708,31.7283102 391.73,30.96 C391.13,30.16 390.81,29.11 390.81,27.82 L390.81,27.72 L390.81,27.7 Z M392.26,27.86 C392.26,28.82 392.46,29.56 392.86,30.11 C393.26,30.66 393.8,30.91 394.5,30.91 C395.360968,30.9482659 396.157915,30.4566174 396.51,29.67 L396.51,25.79 C396.08,24.99 395.41,24.59 394.51,24.59 C393.81,24.59 393.25,24.86 392.85,25.41 C392.45,25.96 392.25,26.77 392.25,27.84 L392.26,27.86 Z M407.7,30 L409.32,23.54 L410.77,23.54 L408.3,32 L407.13,32 L405.08,25.6 L403.08,32 L401.91,32 L399.46,23.55 L400.9,23.55 L402.56,29.88 L404.53,23.55 L405.69,23.55 L407.69,30.01 L407.7,30 Z M417.46,32 C417.348846,31.7116459 417.281434,31.4082919 417.26,31.1 C416.646473,31.7764219 415.773176,32.1584895 414.86,32.15 C414.109933,32.1826536 413.374885,31.93288 412.8,31.45 C412.276899,31.0003258 411.983247,30.3396089 412,29.65 C412,28.77 412.33,28.09 413,27.6 C413.67,27.1 414.62,26.87 415.83,26.87 L417.23,26.87 L417.23,26.21 C417.23,25.71 417.08,25.31 416.78,25.01 C416.48,24.71 416.03,24.56 415.44,24.56 C414.92,24.56 414.49,24.69 414.14,24.96 C413.79,25.23 413.62,25.54 413.62,25.91 L412.17,25.91 C412.17,25.49 412.32,25.08 412.62,24.69 C412.941118,24.2790278 413.360734,23.9557168 413.84,23.75 C414.376229,23.5176676 414.95566,23.4017814 415.54,23.41 C416.51,23.41 417.28,23.65 417.84,24.14 C418.39,24.62 418.68,25.29 418.7,26.14 L418.7,30.04 C418.7,30.82 418.8,31.44 419,31.89 L419,32.02 L417.48,32.02 L417.46,32 Z M415.06,30.9 C415.51,30.9 415.94,30.78 416.36,30.55 C416.78,30.32 417.06,30.01 417.24,29.65 L417.24,27.91 L416.11,27.91 C414.34,27.91 413.45,28.43 413.45,29.47 C413.45,29.92 413.6,30.27 413.9,30.53 C414.2,30.79 414.6,30.91 415.06,30.91 L415.06,30.9 Z M425.03,24.85 C424.798898,24.8093524 424.564648,24.7892737 424.33,24.79 C423.38,24.79 422.73,25.19 422.4,25.99 L422.4,31.99 L420.95,31.99 L420.95,23.54 L422.35,23.54 L422.37,24.52 C422.784721,23.8009537 423.560242,23.3671226 424.39,23.39 C424.67,23.39 424.89,23.43 425.03,23.49 L425.03,24.83 L425.03,24.85 Z M429.73,32.15 C428.679968,32.1912211 427.66194,31.7840096 426.93,31.03 C426.184673,30.2058374 425.796324,29.1198986 425.85,28.01 L425.85,27.74 C425.838064,26.9665946 426.002204,26.2006057 426.33,25.5 C426.65,24.84 427.1,24.32 427.67,23.95 C428.25,23.58 428.87,23.39 429.55,23.39 C430.65,23.39 431.5,23.75 432.11,24.49 C432.772405,25.3860183 433.094919,26.4882373 433.02,27.6 L433.02,28.2 L427.29,28.2 C427.275696,28.9403509 427.535708,29.6598348 428.02,30.22 C428.49,30.72 429.08,30.99 429.8,30.99 C430.3,30.99 430.74,30.89 431.1,30.69 C431.46,30.49 431.76,30.21 432.03,29.86 L432.91,30.56 C432.21,31.66 431.14,32.19 429.71,32.19 L429.73,32.15 Z M429.55,24.57 C428.97,24.57 428.48,24.77 428.08,25.21 C427.68,25.65 427.44,26.23 427.35,26.99 L431.580002,26.99 L431.580002,26.89 C431.580674,26.2713276 431.368861,25.6711895 430.98,25.19 C430.63,24.79 430.15,24.59 429.54,24.59 L429.55,24.57 Z M1.02,13 L1.02,1.63 L5,1.63 C6.38,1.63 7.43,1.9 8.14,2.43 C8.86313053,2.97498496 9.26492689,3.84616959 9.21,4.75 C9.21,5.31 9.07,5.8 8.78,6.23 C8.49,6.66 8.08,6.96 7.58,7.16 C8.16,7.31 8.62,7.6 8.96,8.04 C9.30869728,8.51040302 9.48839752,9.0847391 9.47,9.67 C9.53156545,10.6161449 9.14223505,11.5357062 8.42,12.15 C7.72,12.71 6.72,13 5.44,13.01 L1.02,13.01 L1.02,13 Z M3.36,8.05 L3.36,11.12 L5.36,11.12 C5.91,11.12 6.34,10.99 6.66,10.72 C6.96,10.45 7.13,10.09 7.13,9.62 C7.13,8.58 6.59,8.05 5.51,8.02 L3.36,8.02 L3.36,8.05 Z M3.36,6.39 L5.09,6.39 C6.27,6.37 6.86,5.89 6.86,4.99 C6.86,4.47 6.71,4.09 6.41,3.89 C6.11,3.66 5.64,3.55 5.01,3.55 L3.37,3.55 L3.37,6.42 L3.36,6.39 Z M14.98,13.16 C13.8575046,13.204705 12.7646446,12.79353 11.95,12.02 C11.1543203,11.2140538 10.7334685,10.111132 10.79,8.98 L10.79,8.76 C10.7765937,7.97571993 10.9442737,7.19891667 11.28,6.49 C11.580559,5.84770732 12.064118,5.30848691 12.67,4.94 C13.2922488,4.568879 14.0055758,4.37842761 14.73,4.39 C15.89,4.39 16.79,4.75 17.46,5.49 C18.13,6.22 18.46,7.25 18.46,8.59 L18.46,9.51 L13.08,9.51 C13.1307074,10.0189103 13.3653868,10.4918249 13.74,10.84 C14.11,11.17 14.58,11.34 15.14,11.34 C16.01,11.34 16.69,11.04 17.18,10.4 L18.28,11.64 C17.9315052,12.1313847 17.4587102,12.5213543 16.91,12.77 C16.3071923,13.0428727 15.6516248,13.1794493 14.99,13.17 L14.98,13.16 Z M14.72,6.22 C14.27,6.22 13.92,6.37 13.62,6.67 C13.32,6.97 13.17,7.4 13.09,7.97 L16.23,7.97 L16.23,7.79 C16.22,7.29 16.08,6.89 15.83,6.63 C15.58,6.37 15.2,6.23 14.73,6.23 L14.72,6.22 Z M24.32,10.67 C24.32,10.39 24.18,10.17 23.92,10.02 C23.65,9.86 23.22,9.72 22.62,9.59 C20.62,9.17 19.6,8.31 19.6,7.03 C19.6,6.28 19.9,5.66 20.53,5.16 C21.16,4.66 21.97,4.4 22.97,4.4 C24.04,4.4 24.9,4.65 25.54,5.16 C26.19,5.66 26.51,6.32 26.51,7.13 L24.25,7.13 C24.25,6.81 24.15,6.53 23.95,6.33 C23.75,6.13 23.42,6.01 22.97,6.01 C22.59,6.01 22.3,6.11 22.09,6.27 C21.88,6.43 21.79,6.67 21.79,6.93 C21.79,7.18 21.91,7.38 22.14,7.53 C22.37,7.68 22.78,7.81 23.34,7.93 C23.9,8.03 24.38,8.16 24.76,8.31 C25.96,8.75 26.56,9.51 26.56,10.58 C26.56,11.35 26.23,11.98 25.56,12.46 C24.8029992,12.9609458 23.9068839,13.2094778 23,13.17 C22.3,13.17 21.66,13.05 21.1,12.8 C20.5861465,12.5726079 20.1412299,12.2139155 19.81,11.76 C19.51,11.32 19.34,10.84 19.34,10.33 L21.48,10.33 C21.5,10.73 21.65,11.03 21.92,11.25 C22.19,11.47 22.57,11.57 23.02,11.57 C23.45,11.57 23.78,11.49 24,11.33 C24.2131537,11.1822748 24.3402273,10.9393399 24.34,10.68 L24.32,10.67 Z M30.68,2.47 L30.68,4.55 L32.12,4.55 L32.12,6.21 L30.68,6.21 L30.68,10.43 C30.68,10.73 30.74,10.97 30.86,11.1 C30.98,11.23 31.21,11.3 31.56,11.3 C31.81,11.3 32.03,11.28 32.22,11.25 L32.22,12.95 C31.78,13.09 31.32,13.15 30.85,13.15 C29.27,13.15 28.45,12.35 28.43,10.75 L28.43,6.2 L27.2,6.2 L27.2,4.54 L28.43,4.54 L28.43,2.46 L30.69,2.46 L30.68,2.47 Z M46.78,13 L44.44,13 L44.44,8.13 L39.87,8.13 L39.87,13 L37.53,13 L37.53,1.63 L39.87,1.63 L39.87,6.23 L44.44,6.23 L44.44,1.63 L46.78,1.63 L46.78,13 Z M53.75,12.14 C53.185903,12.8221249 52.3342596,13.1998102 51.45,13.16 C50.55,13.16 49.85,12.9 49.37,12.38 C48.89,11.86 48.65,11.1 48.64,10.08 L48.64,4.54 L50.9,4.54 L50.9,10 C50.9,10.88 51.3,11.32 52.1,11.32 C52.87,11.32 53.4,11.05 53.68,10.52 L53.68,4.54 L55.95,4.54 L55.95,13 L53.83,13 L53.77,12.14 L53.75,12.14 Z M65.25,8.84 C65.25,10.19 64.95,11.24 64.38,12.01 C63.81,12.78 62.98,13.14 61.96,13.14 C61.04,13.14 60.31,12.79 59.76,12.09 L59.66,12.99 L57.63,12.99 L57.63,0.99 L59.89,0.99 L59.89,5.29 C60.41,4.69 61.09,4.39 61.94,4.39 C62.97,4.39 63.78,4.77 64.36,5.53 C64.96,6.28 65.24,7.35 65.24,8.73 L65.24,8.86 L65.25,8.84 Z M62.99,8.68 C62.99,7.82 62.86,7.2 62.59,6.81 C62.32,6.42 61.91,6.21 61.39,6.21 C60.67,6.21 60.19,6.51 59.91,7.09 L59.91,10.43 C60.19,11.03 60.69,11.33 61.41,11.33 C62.13,11.33 62.61,10.97 62.85,10.25 C62.95,9.91 63.01,9.38 63.01,8.68 L62.99,8.68 Z M4.67,26.92 C3.64490422,26.6868706 2.68698391,26.221595 1.87,25.56 C1.30200073,25.0522608 0.984202728,24.3216907 1,23.56 C1,22.66 1.36,21.93 2.07,21.34 C2.79,20.74 3.72,20.46 4.87,20.46 C5.65,20.46 6.35,20.61 6.97,20.91 C7.55205519,21.1839407 8.04445127,21.617388 8.39,22.16 C8.73,22.69 8.89,23.26 8.89,23.9 L7.39,23.9 C7.39,23.2 7.17,22.67 6.73,22.28 C6.29,21.89 5.67,21.68 4.88,21.68 C4.14,21.68 3.56,21.84 3.14,22.18 C2.74,22.5 2.52,22.95 2.52,23.53 C2.52,23.99 2.72,24.39 3.12,24.71 C3.52,25.03 4.18,25.31 5.12,25.59 C6.07,25.85 6.82,26.15 7.34,26.47 C7.88,26.79 8.27,27.17 8.54,27.59 C8.81,28.01 8.94,28.52 8.94,29.09 C8.94,30.01 8.58,30.75 7.86,31.31 C7.01958243,31.9004315 6.00574009,32.1926153 4.98,32.14 C4.22731208,32.1475725 3.48135469,31.9976998 2.79,31.7 C2.11,31.4 1.59,31 1.22,30.47 C0.85,29.94 0.67,29.37 0.67,28.7 L2.17,28.7 C2.17,29.4 2.42,29.93 2.93,30.33 C3.43,30.73 4.13,30.93 4.97,30.93 C5.77,30.93 6.37,30.77 6.79,30.43 C7.21,30.09 7.42,29.67 7.42,29.11 C7.42,28.55 7.22,28.11 6.82,27.81 C6.17126637,27.3863677 5.45396807,27.0784708 4.7,26.9 L4.67,26.92 Z M12.04,24.56 C12.6348903,23.7872792 13.5653334,23.3481101 14.54,23.38 C16.34,23.38 17.24,24.38 17.24,26.4 L17.24,32 L15.8,32 L15.8,26.4 C15.8,25.8 15.65,25.34 15.38,25.05 C15.11,24.75 14.68,24.61 14.11,24.61 C13.64,24.61 13.23,24.74 12.87,24.99 C12.51,25.24 12.24,25.57 12.04,25.99 L12.04,32 L10.6,32 L10.6,20 L12.04,20 L12.04,24.57 L12.04,24.56 Z M24.64,31.99 C24.5288459,31.7016459 24.4614339,31.3982919 24.44,31.09 C23.8264731,31.7664219 22.9531756,32.1484895 22.04,32.14 C21.2933338,32.1701288 20.5623023,31.9205083 19.99,31.44 C19.4668994,30.9903258 19.1732474,30.3296089 19.19,29.64 C19.19,28.76 19.52,28.08 20.19,27.59 C20.86,27.09 21.81,26.86 23.02,26.86 L24.42,26.86 L24.42,26.2 C24.42,25.7 24.27,25.3 23.97,25 C23.67,24.7 23.22,24.55 22.63,24.55 C22.11,24.55 21.68,24.68 21.33,24.95 C20.98,25.22 20.81,25.53 20.81,25.9 L19.36,25.9 C19.36,25.48 19.51,25.07 19.8,24.68 C20.121118,24.2690278 20.5407344,23.9457168 21.02,23.74 C21.5562294,23.5076676 22.1356604,23.3917814 22.72,23.4 C23.69,23.4 24.46,23.64 25.02,24.13 C25.57,24.61 25.86,25.28 25.88,26.13 L25.88,30.03 C25.88,30.81 25.98,31.43 26.18,31.88 L26.18,32.01 L24.66,32.01 L24.64,31.99 Z M22.24,30.89 C22.69,30.89 23.12,30.77 23.54,30.54 C23.96,30.31 24.24,30 24.42,29.64 L24.42,27.9 L23.29,27.9 C21.52,27.9 20.63,28.42 20.63,29.46 C20.63,29.91 20.78,30.26 21.08,30.52 C21.38,30.78 21.78,30.9 22.24,30.9 L22.24,30.89 Z M32.21,24.84 C31.9789613,24.7988724 31.7446677,24.7787901 31.51,24.78 C30.56,24.78 29.91,25.18 29.58,25.98 L29.58,31.98 L28.13,31.98 L28.13,23.53 L29.53,23.53 L29.55,24.51 C29.9647212,23.7909537 30.7402422,23.3571226 31.57,23.38 C31.85,23.38 32.07,23.42 32.21,23.48 L32.21,24.82 L32.21,24.84 Z M36.91,32.14 C35.8599682,32.1812211 34.8419395,31.7740096 34.11,31.02 C33.3646732,30.1958374 32.9763242,29.1098986 33.03,28 L33.03,27.73 C33.0180636,26.9565946 33.1822041,26.1906057 33.51,25.49 C33.83,24.83 34.28,24.31 34.85,23.94 C35.42,23.57 36.05,23.38 36.73,23.38 C37.83,23.38 38.68,23.74 39.29,24.48 C39.952405,25.3760183 40.2749192,26.4782373 40.2,27.59 L40.2,28.19 L34.47,28.19 C34.4556963,28.9303509 34.7157078,29.6498348 35.2,30.21 C35.67,30.71 36.26,30.98 36.98,30.98 C37.48,30.98 37.92,30.88 38.28,30.68 C38.64,30.48 38.94,30.2 39.21,29.85 L40.09,30.55 C39.39,31.65 38.32,32.18 36.89,32.18 L36.91,32.14 Z M36.73,24.56 C36.15,24.56 35.66,24.76 35.26,25.2 C34.86,25.64 34.62,26.22 34.53,26.98 L38.7600016,26.98 L38.7600016,26.88 C38.7606741,26.2613276 38.5488606,25.6611895 38.16,25.18 C37.81,24.78 37.33,24.58 36.72,24.58 L36.73,24.56 Z M41.53,27.69 C41.53,26.39 41.83,25.35 42.45,24.57 C43.009924,23.8025318 43.9102436,23.3579757 44.86,23.38 C45.86,23.38 46.63,23.72 47.21,24.4 L47.21,20 L48.66,20 L48.66,32 L47.33,32 L47.26,31.1 C46.6688351,31.8079486 45.7814538,32.1998753 44.86,32.16 C43.911927,32.1764196 43.0157081,31.7283102 42.46,30.96 C41.8091403,30.0464813 41.4850418,28.9403188 41.54,27.82 L41.54,27.72 L41.53,27.69 Z M42.97,27.85 C42.97,28.81 43.17,29.55 43.57,30.1 C43.97,30.65 44.51,30.9 45.21,30.9 C46.0709684,30.9382659 46.8679148,30.4466174 47.22,29.66 L47.22,25.78 C46.79,24.98 46.12,24.58 45.22,24.58 C44.52,24.58 43.96,24.85 43.56,25.4 C43.16,25.95 42.96,26.76 42.96,27.83 L42.97,27.85 Z M55.1,32 L55.1,20.63 L58.82,20.63 C60.05,20.63 60.98,20.88 61.6,21.4 C62.22,21.92 62.54,22.67 62.54,23.67 C62.54,24.2 62.39,24.67 62.09,25.07 C61.79,25.47 61.39,25.79 60.86,26.02 C61.4420577,26.1692934 61.954435,26.5155898 62.31,27 C62.67,27.48 62.85,28.05 62.85,28.72 C62.85,29.74 62.52,30.54 61.85,31.12 C61.18,31.7 60.25,32 59.05,32 L55.11,32 L55.1,32 Z M56.6,26.68 L56.6,30.78 L59.08,30.78 C59.78,30.78 60.33,30.6 60.73,30.24 C61.13,29.88 61.33,29.38 61.33,28.74 C61.33,27.37 60.59,26.69 59.1,26.69 L56.6,26.69 L56.6,26.68 Z M56.6,25.48 L58.87,25.48 C59.53,25.48 60.05,25.32 60.44,24.98 C60.83,24.64 61.04,24.21 61.04,23.64 C61.04,23.02 60.86,22.56 60.49,22.28 C60.12,22 59.57,21.85 58.83,21.85 L56.61,21.85 L56.61,25.47 L56.6,25.48 Z M67.6,29.88 L69.57,23.54 L71.12,23.54 L67.72,33.3 C67.19,34.7 66.36,35.4 65.22,35.4 L64.95,35.4 L64.41,35.3 L64.41,34.13 L64.81,34.16 C65.31,34.16 65.68,34.06 65.95,33.86 C66.22,33.66 66.45,33.3 66.63,32.76 L66.95,31.9 L63.93,23.54 L65.51,23.54 L67.61,29.88 L67.6,29.88 Z M85.36,26.68 C85.36,27.78 85.16,28.78 84.8,29.6 C84.1279638,31.2014467 82.5356852,32.220505 80.8,32.16 C79.9,32.16 79.1,31.94 78.42,31.5 C77.7107985,31.0417548 77.1484266,30.3891257 76.8,29.62 C76.4079231,28.724315 76.2037157,27.7577331 76.2,26.78 L76.2,25.96 C76.2,24.86 76.4,23.9 76.77,23.06 C77.14,22.22 77.69,21.58 78.37,21.14 C79.07,20.69 79.87,20.47 80.77,20.47 C81.67,20.47 82.47,20.69 83.17,21.13 C83.8879633,21.5886403 84.4494721,22.2547781 84.78,23.04 C85.16,23.87 85.34,24.84 85.34,25.94 L85.34,26.66 L85.36,26.68 Z M83.86,25.94 C83.86,24.59 83.59,23.56 83.06,22.84 C82.5316476,22.1206867 81.6819661,21.7089467 80.79,21.74 C79.84,21.74 79.09,22.1 78.55,22.84 C77.9576571,23.7250252 77.6633669,24.7760615 77.71,25.84 L77.71,26.68 C77.71,27.98 77.98,29.02 78.53,29.78 C79.08,30.52 79.83,30.9 80.8,30.9 C81.77,30.9 82.52,30.55 83.05,29.84 C83.58,29.13 83.85,28.12 83.87,26.8 L83.87,25.96 L83.86,25.94 Z M91.46,24.84 C91.2288984,24.7993524 90.994648,24.7792737 90.76,24.78 C89.9194017,24.7102156 89.1334284,25.2029761 88.83,25.99 L88.83,31.99 L87.39,31.99 L87.39,23.54 L88.79,23.54 L88.81,24.52 C89.2196806,23.8057529 89.9867898,23.3723362 90.81,23.39 C91.09,23.39 91.31,23.43 91.45,23.49 L91.45,24.83 L91.46,24.84 Z M92.3,27.7 C92.3,26.38 92.6,25.34 93.2,24.56 C93.8,23.78 94.62,23.39 95.62,23.39 C96.5519021,23.3444959 97.4487819,23.7501386 98.03,24.48 L98.1,23.54 L99.42,23.54 L99.42,31.79 C99.42,32.89 99.09,33.75 98.44,34.39 C97.79,35.03 96.92,35.33 95.84,35.33 C95.24,35.33 94.64,35.2 94.04,34.93 C93.44,34.66 93.01,34.31 92.7,33.86 L93.45,32.99 C93.9808712,33.7123458 94.8235586,34.139258 95.72,34.14 C96.3245793,34.177496 96.9178694,33.9640563 97.36,33.55 C97.76,33.15 97.96,32.6 97.96,31.88 L97.96,31.15 C97.38,31.82 96.59,32.15 95.59,32.15 C94.6402436,32.1720243 93.739924,31.7274682 93.18,30.96 C92.5320436,30.0007753 92.215944,28.8557925 92.28,27.7 L92.3,27.7 Z M93.75,27.86 C93.7066423,28.6532339 93.9129787,29.44011 94.34,30.11 C94.7121819,30.6426858 95.3307871,30.9482164 95.98,30.92 C96.88,30.92 97.56,30.52 97.98,29.68 L97.98,25.82 C97.54,25.02 96.88,24.62 95.98,24.62 C95.28,24.62 94.73,24.89 94.33,25.44 C93.93,25.99 93.73,26.8 93.73,27.87 L93.75,27.86 Z" id="Shape"></path>
            </g>
            <g id="Group" transform="translate(490.000000, 210.000000)" fill="#F0A30A" fill-rule="nonzero" stroke="#BD7000">
                <path d="M1.5,6.42 C1.67,3.1 4.5,0.5 7.95,0.5 L154.9,0.5 C158.34,0.5 161.18,3.1 161.35,6.42 L161.51,42.22 C161.51,43.89 160.81,45.5 159.56,46.68 C158.302013,47.8622049 156.625418,48.4954253 154.9,48.44 L7.95,48.44 C6.25,48.44 4.6,47.79 3.39,46.62 C2.18657382,45.4722745 1.50389836,43.8829772 1.5,42.22 L1.5,6.42 L1.5,6.42 Z M20.85,37.09 C20.85,34.09 18.33,31.64 15.21,31.64 C12.09,31.64 9.56,34.08 9.56,37.09 C9.56,40.1 12.09,42.54 15.21,42.54 C18.33,42.54 20.85,40.1 20.85,37.09 Z M117.63,36.62 C116.65,36.62 115.85,37.39 115.85,38.32 C115.85,39.27 116.65,40.04 117.63,40.04 L149.89,40.04 C150.87,40.04 151.66,39.27 151.66,38.32 C151.66,37.38 150.86,36.62 149.89,36.62 L117.63,36.62 Z M117.63,30.7 C116.65,30.7 115.85,31.47 115.85,32.42 C115.85,33.36 116.65,34.12 117.63,34.12 L149.89,34.12 C150.87,34.12 151.66,33.35 151.66,32.42 C151.66,31.47 150.86,30.7 149.89,30.7 L117.63,30.7 Z M117.63,24.63 C116.65,24.63 115.85,25.4 115.85,26.33 C115.85,27.28 116.65,28.05 117.63,28.05 L149.89,28.05 C150.87,28.05 151.66,27.28 151.66,26.33 C151.66,25.39 150.86,24.63 149.89,24.63 L117.63,24.63 Z" id="b"></path>
                <g id="b-link" transform="translate(1.000000, 59.000000)">
                    <path d="M0.5,6.42 C0.67,3.1 3.5,0.5 6.95,0.5 L153.9,0.5 C157.34,0.5 160.18,3.1 160.35,6.42 L160.51,42.22 C160.51,43.89 159.81,45.5 158.56,46.68 C157.302013,47.8622049 155.625418,48.4954253 153.9,48.44 L6.95,48.44 C5.25,48.44 3.6,47.79 2.39,46.62 C1.18657382,45.4722745 0.503898361,43.8829772 0.5,42.22 L0.5,6.42 L0.5,6.42 Z M19.85,37.09 C19.85,34.09 17.33,31.64 14.21,31.64 C11.09,31.64 8.56,34.08 8.56,37.09 C8.56,40.1 11.09,42.54 14.21,42.54 C17.33,42.54 19.85,40.1 19.85,37.09 Z M116.63,36.62 C115.65,36.62 114.85,37.39 114.85,38.32 C114.85,39.27 115.65,40.04 116.63,40.04 L148.89,40.04 C149.87,40.04 150.66,39.27 150.66,38.32 C150.66,37.38 149.86,36.62 148.89,36.62 L116.63,36.62 Z M116.63,30.7 C115.65,30.7 114.85,31.47 114.85,32.42 C114.85,33.36 115.65,34.12 116.63,34.12 L148.89,34.12 C149.87,34.12 150.66,33.35 150.66,32.42 C150.66,31.47 149.86,30.7 148.89,30.7 L116.63,30.7 Z M116.63,24.63 C115.65,24.63 114.85,25.4 114.85,26.33 C114.85,27.28 115.65,28.05 116.63,28.05 L148.89,28.05 C149.87,28.05 150.66,27.28 150.66,26.33 C150.66,25.39 149.86,24.63 148.89,24.63 L116.63,24.63 Z" id="b"></path>
                </g>
                <path d="M0.5,124.42 C0.67,121.1 3.5,118.5 6.95,118.5 L153.9,118.5 C157.34,118.5 160.18,121.1 160.35,124.42 L160.51,160.22 C160.51,161.89 159.81,163.5 158.56,164.68 C157.302013,165.862205 155.625418,166.495425 153.9,166.44 L6.95,166.44 C5.25,166.44 3.6,165.79 2.39,164.62 C1.18657382,163.472275 0.503898361,161.882977 0.5,160.22 L0.5,124.42 L0.5,124.42 Z M19.85,155.09 C19.85,152.09 17.33,149.64 14.21,149.64 C11.09,149.64 8.56,152.08 8.56,155.09 C8.56,158.1 11.09,160.54 14.21,160.54 C17.33,160.54 19.85,158.1 19.85,155.09 Z M116.63,154.62 C115.65,154.62 114.85,155.39 114.85,156.32 C114.85,157.27 115.65,158.04 116.63,158.04 L148.89,158.04 C149.87,158.04 150.66,157.27 150.66,156.32 C150.66,155.38 149.86,154.62 148.89,154.62 L116.63,154.62 Z M116.63,148.7 C115.65,148.7 114.85,149.47 114.85,150.42 C114.85,151.36 115.65,152.12 116.63,152.12 L148.89,152.12 C149.87,152.12 150.66,151.35 150.66,150.42 C150.66,149.47 149.86,148.7 148.89,148.7 L116.63,148.7 Z M116.63,142.63 C115.65,142.63 114.85,143.4 114.85,144.33 C114.85,145.28 115.65,146.05 116.63,146.05 L148.89,146.05 C149.87,146.05 150.66,145.28 150.66,144.33 C150.66,143.39 149.86,142.63 148.89,142.63 L116.63,142.63 Z" id="c"></path>
            </g>
            <g id="c-link" transform="translate(490.000000, 385.000000)" fill="#00188D" fill-rule="nonzero" stroke="#000000">
                <path d="M0.5,6.42 C0.67,3.1 3.5,0.5 6.95,0.5 L153.9,0.5 C157.34,0.5 160.18,3.1 160.35,6.42 L160.51,42.22 C160.51,43.89 159.81,45.5 158.56,46.68 C157.302013,47.8622049 155.625418,48.4954253 153.9,48.44 L6.95,48.44 C5.25,48.44 3.6,47.79 2.39,46.62 C1.18657382,45.4722745 0.503898361,43.8829772 0.5,42.22 L0.5,6.42 L0.5,6.42 Z M19.85,37.09 C19.85,34.09 17.33,31.64 14.21,31.64 C11.09,31.64 8.56,34.08 8.56,37.09 C8.56,40.1 11.09,42.54 14.21,42.54 C17.33,42.54 19.85,40.1 19.85,37.09 Z M116.63,36.62 C115.65,36.62 114.85,37.39 114.85,38.32 C114.85,39.27 115.65,40.04 116.63,40.04 L148.89,40.04 C149.87,40.04 150.66,39.27 150.66,38.32 C150.66,37.38 149.86,36.62 148.89,36.62 L116.63,36.62 Z M116.63,30.7 C115.65,30.7 114.85,31.47 114.85,32.42 C114.85,33.36 115.65,34.12 116.63,34.12 L148.89,34.12 C149.87,34.12 150.66,33.35 150.66,32.42 C150.66,31.47 149.86,30.7 148.89,30.7 L116.63,30.7 Z M116.63,24.63 C115.65,24.63 114.85,25.4 114.85,26.33 C114.85,27.28 115.65,28.05 116.63,28.05 L148.89,28.05 C149.87,28.05 150.66,27.28 150.66,26.33 C150.66,25.39 149.86,24.63 148.89,24.63 L116.63,24.63 Z" id="c"></path>
            </g>
            <g id="Group" transform="translate(189.000000, 232.000000)" fill="#000000" fill-rule="nonzero">
                <path d="M497.48,11.26 C497.384359,12.6584244 496.758402,13.9675683 495.73,14.92 C494.632208,15.8127864 493.243332,16.2686225 491.83,16.2 C490.195521,16.2590955 488.62593,15.5573957 487.58,14.3 C486.52,13.04 485.98,11.34 485.98,9.22 L485.98,7.78 C485.98,6.38 486.23,5.18 486.72,4.12 C487.169361,3.12601858 487.899242,2.28491772 488.82,1.7 C489.769916,1.11923844 490.866916,0.824159263 491.98,0.85 C493.58,0.85 494.84,1.29 495.78,2.18 C496.74,3.06 497.28,4.28 497.45,5.85 L495.47,5.85 C495.3,4.65 494.93,3.8 494.35,3.27 C493.68372,2.70271245 492.823396,2.41593767 491.95,2.47 C490.792415,2.41790582 489.684082,2.94211746 488.99,3.87 C488.29,4.8 487.92,6.12 487.92,7.84 L487.92,9.29 C487.92,10.91 488.26,12.19 488.94,13.16 C489.62,14.13 490.56,14.6 491.78,14.6 C492.88,14.6 493.71,14.35 494.28,13.86 C494.88,13.36 495.26,12.5 495.45,11.26 L497.43,11.26 L497.48,11.26 Z M501.78,6.26 C502.565822,5.25261388 503.782781,4.67752682 505.06,4.71 C507.4,4.71 508.59,6.03 508.61,8.68 L508.61,16 L506.71,16 L506.71,8.66 C506.7,7.86 506.51,7.26 506.16,6.89 C505.8,6.51 505.26,6.32 504.49,6.32 C503.87,6.32 503.33,6.48 502.87,6.82 C502.41,7.16 502.04,7.58 501.77,8.12 L501.77,16.02 L499.87,16.02 L499.87,0.27 L501.77,0.27 L501.77,6.27 L501.78,6.26 Z M516.81,6.62 C516.502382,6.57174034 516.191376,6.54833135 515.88,6.55 C514.63,6.55 513.78,7.08 513.35,8.15 L513.35,16 L511.45,16 L511.45,4.9 L513.3,4.9 L513.33,6.18 C513.95,5.18 514.83,4.68 515.98,4.68 C516.35,4.68 516.63,4.73 516.82,4.82 L516.82,6.58 L516.81,6.62 Z M517.86,10.36 C517.842543,9.34794519 518.058099,8.34543521 518.49,7.43 C518.879759,6.60675957 519.497534,5.9126307 520.27,5.43 C521.03,4.96 521.91,4.73 522.87,4.73 C524.37,4.73 525.6,5.25 526.53,6.3 C527.506849,7.4631451 528.007049,8.95302827 527.93,10.47 L527.93,10.6 C527.944392,11.6053241 527.72891,12.6006485 527.3,13.51 C526.9,14.36 526.3,15.03 525.53,15.51 C524.733348,15.9976736 523.813903,16.2474849 522.88,16.23 C521.38,16.23 520.16,15.71 519.22,14.66 C518.248823,13.5015147 517.74905,12.0200462 517.82,10.51 L517.82,10.38 L517.86,10.36 Z M519.76,10.59 C519.76,11.82 520.04,12.81 520.61,13.55 C521.18,14.3 521.95,14.67 522.91,14.67 C523.87,14.67 524.64,14.29 525.21,13.54 C525.830204,12.6000075 526.128487,11.4840765 526.06,10.36 C526.109052,9.30692384 525.802638,8.26793369 525.19,7.41 C524.660949,6.67077068 523.798651,6.24337076 522.89,6.27 C521.994366,6.24354345 521.14395,6.6631321 520.62,7.39 C520.05,8.14 519.76,9.19 519.76,10.59 L519.76,10.59 Z M532.12,4.92 L532.17,6.15 C532.986927,5.18967899 534.20026,4.65861554 535.46,4.71 C537.01,4.71 538.06,5.31 538.63,6.49 C539.007302,5.95492755 539.499258,5.51080024 540.07,5.19 C540.716096,4.84747783 541.438872,4.67538835 542.17,4.69 C544.6,4.69 545.84,5.99 545.87,8.56 L545.87,16 L543.97,16 L543.97,8.68 C543.97,7.88 543.79,7.3 543.43,6.91 C543.07,6.51 542.46,6.31 541.61,6.31 C540.965989,6.289848 540.339064,6.51912336 539.86,6.95 C539.4,7.37 539.13,7.93 539.06,8.65 L539.06,16 L537.16,16 L537.16,8.73 C537.268715,8.06985361 537.056371,7.39741128 536.588253,6.9194176 C536.120135,6.44142392 535.452272,6.21508891 534.79,6.31 C533.54,6.31 532.69,6.84 532.24,7.91 L532.24,16.01 L530.34,16.01 L530.34,4.91 L532.14,4.91 L532.12,4.92 Z M553.36,16.22 C551.86,16.22 550.63,15.72 549.69,14.74 C548.75,13.74 548.29,12.44 548.29,10.77 L548.29,10.42 C548.267337,9.40423079 548.483109,8.39729323 548.92,7.48 C549.34,6.61 549.92,5.94 550.68,5.45 C551.408134,4.96412178 552.264646,4.70647183 553.14,4.70996424 C554.58,4.70996424 555.7,5.19 556.5,6.14 C557.3,7.09 557.7,8.44 557.7,10.22 L557.7,11.02 L550.18,11.02 C550.21,12.12 550.53,13 551.13,13.68 C551.75,14.35 552.53,14.68 553.47,14.68 C554.063226,14.6986966 554.650514,14.5570565 555.17,14.27 C555.642674,13.9880888 556.056835,13.6180595 556.39,13.18 L557.55,14.08 C556.645653,15.4961667 555.047642,16.314287 553.37,16.22 L553.36,16.22 Z M553.12,6.27 C552.35,6.27 551.72,6.55 551.19,7.11 C550.625328,7.76563517 550.288482,8.58669733 550.23,9.45 L555.79,9.45 L555.79,9.31 C555.74,8.35 555.49,7.61 555.01,7.07 C554.529288,6.53105072 553.83144,6.23721998 553.11,6.27 L553.12,6.27 Z M574.54,2.15 L568.34,16 L566.34,16 L572.5,2.63 L564.42,2.63 L564.42,1.07 L574.52,1.07 L574.52,2.14 L574.54,2.15 Z M577.56,8.53 L578.32,1.09 L585.97,1.09 L585.97,2.84 L579.93,2.84 L579.48,6.91 C580.235364,6.47072924 581.096308,6.24598482 581.97,6.26 C583.197761,6.20158636 584.386959,6.69708586 585.21,7.61 C586.01,8.51 586.41,9.71 586.41,11.25 C586.484706,12.5800192 586.036059,13.8864797 585.16,14.89 C584.33,15.77 583.16,16.21 581.68,16.21 C580.36,16.21 579.28,15.84 578.45,15.11 C577.62,14.38 577.15,13.37 577.02,12.08 L578.82,12.08 C578.94,12.93 579.24,13.58 579.72,14.02 C580.22,14.45 580.86,14.67 581.67,14.67 C582.55,14.67 583.24,14.37 583.74,13.77 C584.24,13.17 584.5,12.34 584.5,11.27 C584.5,10.27 584.23,9.47 583.68,8.87 C583.14,8.27 582.42,7.97 581.52,7.97 C580.69,7.97 580.04,8.15 579.57,8.51 L579.07,8.91 L577.55,8.51 L577.56,8.53 Z M497.22,70.26 C497.124359,71.6584244 496.498402,72.9675683 495.47,73.92 C494.374065,74.8161812 492.983847,75.2724576 491.57,75.2 C489.935521,75.2590955 488.36593,74.5573957 487.32,73.3 C486.26,72.04 485.72,70.34 485.72,68.22 L485.72,66.78 C485.72,65.38 485.97,64.18 486.46,63.12 C486.909361,62.1260186 487.639242,61.2849177 488.56,60.7 C489.509916,60.1192384 490.606916,59.8241593 491.72,59.85 C493.32,59.85 494.58,60.29 495.52,61.18 C496.48,62.06 497.02,63.28 497.19,64.85 L495.21,64.85 C495.04,63.65 494.67,62.8 494.09,62.27 C493.42372,61.7027124 492.563396,61.4159377 491.69,61.47 C490.532415,61.4179058 489.424082,61.9421175 488.73,62.87 C488.03,63.8 487.66,65.12 487.66,66.84 L487.66,68.29 C487.66,69.91 488,71.19 488.68,72.16 C489.36,73.13 490.3,73.6 491.52,73.6 C492.62,73.6 493.45,73.35 494.02,72.86 C494.62,72.36 495,71.5 495.19,70.26 L497.17,70.26 L497.22,70.26 Z M501.52,65.26 C502.307861,64.2551646 503.523457,63.6807213 504.8,63.71 C507.14,63.71 508.33,65.03 508.35,67.68 L508.35,75 L506.45,75 L506.45,67.66 C506.44,66.86 506.25,66.26 505.9,65.89 C505.54,65.51 505,65.32 504.23,65.32 C503.61,65.32 503.08,65.48 502.61,65.82 C502.14,66.16 501.78,66.58 501.51,67.12 L501.51,75.02 L499.61,75.02 L499.61,59.27 L501.51,59.27 L501.51,65.27 L501.52,65.26 Z M516.55,65.62 C516.242382,65.5717403 515.931376,65.5483313 515.62,65.55 C514.38,65.55 513.52,66.08 513.09,67.15 L513.09,75 L511.19,75 L511.19,63.9 L513.03,63.9 L513.06,65.18 C513.68,64.18 514.56,63.68 515.71,63.68 C516.08,63.68 516.36,63.73 516.55,63.82 L516.55,65.58 L516.55,65.62 Z M517.6,69.36 C517.585665,68.3471615 517.804651,67.344614 518.24,66.43 C518.626884,65.6048602 519.245313,64.9099952 520.02,64.43 C520.809045,63.9513246 521.717231,63.7052131 522.64,63.72 C524.14,63.72 525.37,64.24 526.3,65.29 C527.276849,66.4531451 527.777049,67.9430283 527.7,69.46 L527.7,69.59 C527.717518,70.5945466 527.505463,71.5898343 527.08,72.5 C526.68,73.35 526.08,74.02 525.31,74.5 C524.51623,74.9858355 523.600518,75.2355751 522.67,75.22 C521.17,75.22 519.94,74.7 519.01,73.65 C518.08,72.6 517.61,71.22 517.61,69.5 L517.61,69.37 L517.6,69.36 Z M519.5,69.59 C519.5,70.82 519.78,71.81 520.35,72.55 C520.92,73.3 521.69,73.67 522.65,73.67 C523.61,73.67 524.38,73.29 524.95,72.54 C525.570204,71.6000075 525.868487,70.4840765 525.8,69.36 C525.849052,68.3069238 525.542638,67.2679337 524.93,66.41 C524.400949,65.6707707 523.538651,65.2433708 522.63,65.27 C521.734366,65.2435434 520.88395,65.6631321 520.36,66.39 C519.79,67.14 519.5,68.19 519.5,69.59 L519.5,69.59 Z M531.86,63.92 L531.91,65.15 C532.726927,64.189679 533.94026,63.6586155 535.2,63.71 C536.75,63.71 537.8,64.31 538.37,65.49 C538.74,64.96 539.22,64.53 539.8,64.19 C540.447017,63.8509471 541.169743,63.6823111 541.9,63.7 C544.33,63.7 545.57,65 545.6,67.57 L545.6,75 L543.7,75 L543.7,67.68 C543.7,66.88 543.52,66.3 543.16,65.91 C542.8,65.51 542.19,65.31 541.33,65.31 C540.685989,65.289848 540.059064,65.5191234 539.58,65.95 C539.11,66.37 538.84,66.93 538.78,67.65 L538.78,75 L536.88,75 L536.88,67.73 C536.988715,67.0698536 536.776371,66.3974113 536.308253,65.9194176 C535.840135,65.4414239 535.172272,65.2150889 534.51,65.31 C533.27,65.31 532.41,65.84 531.96,66.91 L531.96,75.01 L530.06,75.01 L530.06,63.91 L531.86,63.91 L531.86,63.92 Z M553.1,75.22 C551.6,75.22 550.37,74.72 549.43,73.74 C548.49,72.74 548.01,71.44 548.01,69.77 L548.01,69.42 C547.987337,68.4042308 548.203109,67.3972932 548.64,66.48 C549.021468,65.6495929 549.632056,64.9453344 550.4,64.45 C551.128134,63.9641218 551.984646,63.7064718 552.86,63.7099642 C554.3,63.7099642 555.42,64.19 556.22,65.14 C557.02,66.09 557.42,67.44 557.42,69.22 L557.42,70.02 L549.9,70.02 C549.93,71.12 550.25,72 550.85,72.68 C551.47,73.35 552.25,73.68 553.19,73.68 C553.783226,73.6986966 554.370514,73.5570565 554.89,73.27 C555.35,73 555.76,72.63 556.11,72.17 L557.27,73.07 C556.365653,74.4861667 554.767642,75.304287 553.09,75.21 L553.1,75.22 Z M552.86,65.27 C552.09,65.27 551.46,65.55 550.93,66.11 C550.365328,66.7656352 550.028482,67.5866973 549.97,68.45 L555.53,68.45 L555.53,68.31 C555.52825,67.5000891 555.253446,66.7144298 554.75,66.08 C554.28,65.55 553.65,65.28 552.85,65.28 L552.86,65.27 Z M574.28,61.15 L568.1,75 L566.1,75 L572.26,61.63 L564.18,61.63 L564.18,60.07 L574.28,60.07 L574.28,61.14 L574.28,61.15 Z M577.3,67.53 L578.06,60.09 L585.71,60.09 L585.71,61.84 L579.67,61.84 L579.22,65.91 C579.975364,65.4707292 580.836308,65.2459848 581.71,65.26 C582.937761,65.2015864 584.126959,65.6970859 584.95,66.61 C585.75,67.51 586.15,68.71 586.15,70.25 C586.224706,71.5800192 585.776059,72.8864797 584.9,73.89 C584.07,74.77 582.9,75.21 581.42,75.21 C580.1,75.21 579.02,74.84 578.19,74.11 C577.36,73.38 576.89,72.37 576.76,71.07 L578.56,71.07 C578.68,71.92 578.98,72.57 579.46,73.01 C579.96,73.44 580.6,73.66 581.41,73.66 C582.29,73.66 582.98,73.36 583.48,72.76 C583.98,72.16 584.24,71.33 584.24,70.26 C584.24,69.26 583.97,68.46 583.42,67.86 C582.88,67.26 582.16,66.96 581.26,66.96 C580.43,66.96 579.78,67.14 579.31,67.5 L578.81,67.9 L577.29,67.5 L577.3,67.53 Z M497.22,129.26 C497.124359,130.658424 496.498402,131.967568 495.47,132.92 C494.374065,133.816181 492.983847,134.272458 491.57,134.2 C489.935521,134.259095 488.36593,133.557396 487.32,132.3 C486.26,131.04 485.72,129.34 485.72,127.22 L485.72,125.78 C485.72,124.38 485.97,123.18 486.46,122.12 C486.909361,121.126019 487.639242,120.284918 488.56,119.7 C489.509916,119.119238 490.606916,118.824159 491.72,118.85 C493.32,118.85 494.58,119.29 495.52,120.18 C496.48,121.06 497.02,122.28 497.19,123.85 L495.21,123.85 C495.04,122.65 494.67,121.8 494.09,121.27 C493.42372,120.702712 492.563396,120.415938 491.69,120.47 C490.532415,120.417906 489.424082,120.942117 488.73,121.87 C488.03,122.8 487.66,124.12 487.66,125.84 L487.66,127.29 C487.66,128.91 488,130.19 488.68,131.16 C489.36,132.13 490.3,132.6 491.52,132.6 C492.62,132.6 493.45,132.35 494.02,131.86 C494.62,131.36 495,130.5 495.19,129.26 L497.17,129.26 L497.22,129.26 Z M501.52,124.26 C502.307861,123.255165 503.523457,122.680721 504.8,122.71 C507.14,122.71 508.33,124.03 508.35,126.68 L508.35,134 L506.45,134 L506.45,126.66 C506.44,125.86 506.25,125.26 505.9,124.89 C505.54,124.51 505,124.32 504.23,124.32 C503.61,124.32 503.08,124.48 502.61,124.82 C502.14,125.16 501.78,125.58 501.51,126.12 L501.51,134.02 L499.61,134.02 L499.61,118.27 L501.51,118.27 L501.51,124.27 L501.52,124.26 Z M516.55,124.62 C516.242382,124.57174 515.931376,124.548331 515.62,124.55 C514.38,124.55 513.52,125.08 513.09,126.15 L513.09,134 L511.19,134 L511.19,122.9 L513.03,122.9 L513.06,124.18 C513.68,123.18 514.56,122.68 515.71,122.68 C516.08,122.68 516.36,122.73 516.55,122.82 L516.55,124.58 L516.55,124.62 Z M517.6,128.36 C517.585665,127.347162 517.804651,126.344614 518.24,125.43 C518.626884,124.60486 519.245313,123.909995 520.02,123.43 C520.809045,122.951325 521.717231,122.705213 522.64,122.72 C524.14,122.72 525.37,123.24 526.3,124.29 C527.276849,125.453145 527.777049,126.943028 527.7,128.46 L527.7,128.59 C527.717518,129.594547 527.505463,130.589834 527.08,131.5 C526.68,132.35 526.08,133.02 525.31,133.5 C524.51623,133.985835 523.600518,134.235575 522.67,134.22 C521.17,134.22 519.94,133.7 519.01,132.65 C518.08,131.6 517.61,130.22 517.61,128.5 L517.61,128.37 L517.6,128.36 Z M519.5,128.59 C519.5,129.82 519.78,130.81 520.35,131.55 C520.92,132.3 521.69,132.67 522.65,132.67 C523.61,132.67 524.38,132.29 524.95,131.54 C525.570204,130.600008 525.868487,129.484076 525.8,128.36 C525.849052,127.306924 525.542638,126.267934 524.93,125.41 C524.400949,124.670771 523.538651,124.243371 522.63,124.27 C521.734366,124.243543 520.88395,124.663132 520.36,125.39 C519.79,126.14 519.5,127.19 519.5,128.59 L519.5,128.59 Z M531.86,122.92 L531.91,124.15 C532.726927,123.189679 533.94026,122.658616 535.2,122.71 C536.75,122.71 537.8,123.31 538.37,124.49 C538.74,123.96 539.22,123.53 539.8,123.19 C540.447017,122.850947 541.169743,122.682311 541.9,122.7 C544.33,122.7 545.57,124 545.6,126.57 L545.6,134 L543.7,134 L543.7,126.68 C543.7,125.88 543.52,125.3 543.16,124.91 C542.8,124.51 542.19,124.31 541.33,124.31 C540.685989,124.289848 540.059064,124.519123 539.58,124.95 C539.11,125.37 538.84,125.93 538.78,126.65 L538.78,134 L536.88,134 L536.88,126.73 C536.988715,126.069854 536.776371,125.397411 536.308253,124.919418 C535.840135,124.441424 535.172272,124.215089 534.51,124.31 C533.27,124.31 532.41,124.84 531.96,125.91 L531.96,134.01 L530.06,134.01 L530.06,122.91 L531.86,122.91 L531.86,122.92 Z M553.1,134.22 C551.6,134.22 550.37,133.72 549.43,132.74 C548.49,131.74 548.01,130.44 548.01,128.77 L548.01,128.42 C547.987337,127.404231 548.203109,126.397293 548.64,125.48 C549.021468,124.649593 549.632056,123.945334 550.4,123.45 C551.128134,122.964122 551.984646,122.706472 552.86,122.709964 C554.3,122.709964 555.42,123.19 556.22,124.14 C557.02,125.09 557.42,126.44 557.42,128.22 L557.42,129.02 L549.9,129.02 C549.93,130.12 550.25,131 550.85,131.68 C551.47,132.35 552.25,132.68 553.19,132.68 C553.783226,132.698697 554.370514,132.557056 554.89,132.27 C555.35,132 555.76,131.63 556.11,131.17 L557.27,132.07 C556.365653,133.486167 554.767642,134.304287 553.09,134.21 L553.1,134.22 Z M552.86,124.27 C552.09,124.27 551.46,124.55 550.93,125.11 C550.365328,125.765635 550.028482,126.586697 549.97,127.45 L555.53,127.45 L555.53,127.31 C555.52825,126.500089 555.253446,125.71443 554.75,125.08 C554.28,124.55 553.65,124.28 552.85,124.28 L552.86,124.27 Z M574.28,120.15 L568.1,134 L566.1,134 L572.26,120.63 L564.18,120.63 L564.18,119.07 L574.28,119.07 L574.28,120.14 L574.28,120.15 Z M584.44,129 L586.51,129 L586.51,130.55 L584.44,130.55 L584.44,134 L582.54,134 L582.54,130.53 L575.74,130.53 L575.74,129.41 L582.44,119.06 L584.46,119.06 L584.46,129 L584.44,129 Z M577.89,129 L582.54,129 L582.54,121.68 L582.31,122.08 L577.89,128.98 L577.89,129 Z M488.35,189 L486.38,189 L486.38,174.07 L488.35,174.07 L488.35,189 L488.35,189 Z M500.4,182.1 L493.93,182.1 L493.93,187.4 L501.45,187.4 L501.45,189 L491.97,189 L491.97,174.07 L501.35,174.07 L501.35,175.69 L493.95,175.69 L493.95,180.49 L500.42,180.49 L500.42,182.09 L500.4,182.1 Z M514.85,189 L512.95,189 L512.95,176.36 L509.13,177.76 L509.13,176.04 L514.56,174 L514.86,174 L514.86,189 L514.85,189 Z M526.65,189 L524.75,189 L524.75,176.36 L520.92,177.76 L520.92,176.04 L526.36,174 L526.66,174 L526.66,189 L526.65,189 Z" id="Shape"></path>
                <g id="d-link" transform="translate(0.000000, 97.000000)" stroke="#000000" stroke-width="3">
                    <polygon id="d" points="9.15 4.5 0.15 9 2.4 4.5 0.15 0"></polygon>
                </g>
            </g>
            <path d="M70.5,333.5 L135.5,333.5" id="Path" stroke="#000000" stroke-width="3"></path>
            <path d="M4.52315363,319.599939 L33.0231536,336.568401 C33.6288737,336.929037 34,337.581925 34,338.286876 L34,371.982516 C34,373.087085 33.1045695,373.982516 32,373.982516 C31.639975,373.982516 31.2866257,373.885334 30.9772368,373.701223 L2.47723683,356.741531 C1.87129559,356.380949 1.5,355.727936 1.5,355.022824 L1.5,321.318414 C1.5,320.213845 2.3954305,319.318414 3.5,319.318414 C3.86017922,319.318414 4.21367413,319.41568 4.52315363,319.599939 Z M18.3309552,306.172257 L47.3730425,323.419575 C48.3227604,323.983587 48.6354369,325.210707 48.0714248,326.160425 C47.9005329,326.448183 47.660161,326.688456 47.3723323,326.859229 L36.9312421,333.054082 C36.3017137,333.42759 35.5184299,333.427349 34.8891323,333.053452 L5.95727887,315.863593 C5.00767629,315.299387 4.69525087,314.072203 5.25945715,313.1226 C5.42731129,312.840089 5.66219197,312.60329 5.94332893,312.433144 L16.2741853,306.180831 C16.9056657,305.798654 17.6963103,305.795358 18.3309552,306.172257 Z M53.2775806,322.055293 L24.2488946,304.886371 C23.2981654,304.324065 22.9832859,303.097508 23.5455917,302.146779 C23.7179248,301.855403 23.9613975,301.612539 24.2532031,301.440935 L35.0690062,295.080422 C35.6986049,294.71017 36.4799701,294.712576 37.1072766,295.086698 L65.9398985,312.282323 C66.8885646,312.848102 67.1989556,314.075803 66.6331761,315.024469 C66.4631896,315.309492 66.2249494,315.547737 65.9399289,315.717728 L55.3201899,322.05154 C54.6913395,322.426598 53.9078053,322.428038 53.2775806,322.055293 Z M70.5,321.383038 L70.5,354.924616 C70.5,355.628762 70.1297136,356.281029 69.5250915,356.641936 L41.1250915,373.594282 C40.176642,374.160424 38.9488226,373.850503 38.3826802,372.902053 C38.1976793,372.592124 38.1,372.237907 38.1,371.876962 L38.1,338.335384 C38.1,337.631238 38.4702864,336.978971 39.0749085,336.618064 L67.4749085,319.665718 C68.423358,319.099576 69.6511774,319.409497 70.2173198,320.357947 C70.4023207,320.667876 70.5,321.022093 70.5,321.383038 Z" id="Shape" stroke="#314354" fill="#647687" fill-rule="nonzero"></path>
            <polyline id="Path" stroke="#000000" stroke-width="3" points="69.5 233.5 131.5 233.5 131.5 333.5 191.4 333.5"></polyline>
            <path d="M3.52315363,218.599939 L32.0231536,235.568401 C32.6288737,235.929037 33,236.581925 33,237.286876 L33,270.982516 C33,272.087085 32.1045695,272.982516 31,272.982516 C30.639975,272.982516 30.2866257,272.885334 29.9772368,272.701223 L1.47723683,255.741531 C0.871295586,255.380949 0.5,254.727936 0.5,254.022824 L0.5,220.318414 C0.5,219.213845 1.3954305,218.318414 2.5,218.318414 C2.86017922,218.318414 3.21367413,218.41568 3.52315363,218.599939 Z M4.95134929,211.433126 L15.2740162,205.18137 C15.9055689,204.798881 16.6964825,204.79546 17.3313198,205.172473 L46.3730425,222.419575 C47.3227604,222.983587 47.6354369,224.210707 47.0714248,225.160425 C46.9005329,225.448183 46.660161,225.688456 46.3723323,225.859229 L35.9313977,232.05399 C35.3017868,232.427547 34.5183879,232.427253 33.8890578,232.053222 L4.96560273,214.863117 C4.01607567,214.298783 3.70381449,213.071557 4.26814785,212.12203 C4.43588568,211.8398 4.67052343,211.603204 4.95134929,211.433126 Z M23.2520089,200.441637 L34.0690062,194.080422 C34.6986049,193.71017 35.4799701,193.712576 36.1072766,194.086698 L64.940569,211.282722 C65.8892351,211.848502 66.199626,213.076203 65.6338466,214.024869 C65.4639311,214.309773 65.2258178,214.547939 64.9409512,214.717918 L54.3107188,221.060941 C53.6815989,221.436334 52.8975804,221.437715 52.267142,221.06454 L23.2470848,203.886709 C22.2965567,203.324063 21.982116,202.097393 22.5447617,201.146865 C22.7170755,200.85576 22.9604121,200.613118 23.2520089,200.441637 Z M68.5250915,255.641936 L40.1250915,272.594282 C39.176642,273.160424 37.9488226,272.850503 37.3826802,271.902053 C37.1976793,271.592124 37.1,271.237907 37.1,270.876962 L37.1,237.335384 C37.1,236.631238 37.4702864,235.978971 38.0749085,235.618064 L66.4749085,218.665718 C67.423358,218.099576 68.6511774,218.409497 69.2173198,219.357947 C69.4023207,219.667876 69.5,220.022093 69.5,220.383038 L69.5,253.924616 C69.5,254.628762 69.1297136,255.281029 68.5250915,255.641936 Z" id="Shape" stroke="#432D57" fill="#76608A" fill-rule="nonzero"></path>
            <polyline id="Path" stroke="#000000" stroke-width="3" points="70.5 425.5 131.5 425.5 131.5 333.5 191.4 333.5"></polyline>
            <path d="M4.52315363,410.599939 L33.0231536,427.568401 C33.6288737,427.929037 34,428.581925 34,429.286876 L34,462.982516 C34,464.087085 33.1045695,464.982516 32,464.982516 C31.639975,464.982516 31.2866257,464.885334 30.9772368,464.701223 L2.47723683,447.741531 C1.87129559,447.380949 1.5,446.727936 1.5,446.022824 L1.5,412.318414 C1.5,411.213845 2.3954305,410.318414 3.5,410.318414 C3.86017922,410.318414 4.21367413,410.41568 4.52315363,410.599939 Z M5.95134929,403.433126 L16.2740162,397.18137 C16.9055689,396.798881 17.6964825,396.79546 18.3313198,397.172473 L47.3730425,414.419575 C48.3227604,414.983587 48.6354369,416.210707 48.0714248,417.160425 C47.9005329,417.448183 47.660161,417.688456 47.3723323,417.859229 L36.9313977,424.05399 C36.3017868,424.427547 35.5183879,424.427253 34.8890578,424.053222 L5.96560273,406.863117 C5.01607567,406.298783 4.70381449,405.071557 5.26814785,404.12203 C5.43588568,403.8398 5.67052343,403.603204 5.95134929,403.433126 Z M24.2520089,392.441637 L35.0690062,386.080422 C35.6986049,385.71017 36.4799701,385.712576 37.1072766,386.086698 L65.940569,403.282722 C66.8892351,403.848502 67.199626,405.076203 66.6338466,406.024869 C66.4639311,406.309773 66.2258178,406.547939 65.9409512,406.717918 L55.3107188,413.060941 C54.6815989,413.436334 53.8975804,413.437715 53.267142,413.06454 L24.2470848,395.886709 C23.2965567,395.324063 22.982116,394.097393 23.5447617,393.146865 C23.7170755,392.85576 23.9604121,392.613118 24.2520089,392.441637 Z M70.5,412.383038 L70.5,445.924616 C70.5,446.628762 70.1297136,447.281029 69.5250915,447.641936 L41.1250915,464.594282 C40.176642,465.160424 38.9488226,464.850503 38.3826802,463.902053 C38.1976793,463.592124 38.1,463.237907 38.1,462.876962 L38.1,429.335384 C38.1,428.631238 38.4702864,427.978971 39.0749085,427.618064 L67.4749085,410.665718 C68.423358,410.099576 69.6511774,410.409497 70.2173198,411.357947 C70.4023207,411.667876 70.5,412.022093 70.5,412.383038 Z" id="Shape" stroke="#3A5431" fill="#6D8764" fill-rule="nonzero"></path>
            <g id="Group" transform="translate(373.000000, 230.000000)" stroke="#000000" stroke-width="3">
                <polyline id="Path" points="0.5 89.5 59.5 89.5 59.5 4.5 108.4 4.5"></polyline>
                <g id="d-link" transform="translate(106.000000, 0.000000)" fill="#000000" fill-rule="nonzero">
                    <polygon id="d" points="9.15 4.5 0.15 9 2.4 4.5 0.15 0"></polygon>
                </g>
                <polyline id="Path" points="0.5 89.5 59.5 89.5 59.5 63.5 108.4 63.5"></polyline>
                <g id="d-link" transform="translate(106.000000, 59.000000)" fill="#000000" fill-rule="nonzero">
                    <polygon id="d" points="9.15 4.5 0.15 9 2.4 4.5 0.15 0"></polygon>
                </g>
                <polyline id="Path" points="0.5 89.5 59.5 89.5 59.5 122.5 107.4 122.5"></polyline>
                <g id="d-link" transform="translate(105.000000, 118.000000)" fill="#000000" fill-rule="nonzero">
                    <polygon id="d" points="9.15 4.5 0.15 9 2.4 4.5 0.15 0"></polygon>
                </g>
            </g>
            <path d="M203.7,299.33 C203.844254,295.644362 206.861617,292.723906 210.55,292.7 L366.49,292.7 C370.178383,292.723906 373.195746,295.644362 373.34,299.33 L373.51,339.48 C373.51,341.36 372.77,343.16 371.44,344.48 C370.128295,345.786264 368.340727,346.501291 366.49,346.46 L210.54,346.46 C208.704743,346.446825 206.950353,345.703036 205.664853,344.393139 C204.379352,343.083242 203.668674,341.31518 203.689534,339.48 L203.689534,299.33 L203.7,299.33 Z M224.24,333.73 C224.24,330.35 221.56,327.63 218.24,327.63 C214.92,327.63 212.24,330.36 212.24,333.73 C212.24,337.1 214.92,339.83 218.24,339.83 C221.56,339.83 224.24,337.09 224.24,333.73 Z M326.94,333.2 C326.43608,333.205277 325.954898,333.410533 325.602324,333.770609 C325.249749,334.130685 325.054668,334.61608 325.059893,335.12 C325.054668,335.62392 325.249749,336.109315 325.602324,336.469391 C325.954898,336.829467 326.43608,337.034723 326.94,337.04 L361.17,337.04 C362.21,337.04 363.07,336.18 363.07,335.12 C363.07,334.06 362.22,333.2 361.17,333.2 L326.94,333.2 L326.94,333.2 Z M326.94,326.57 C326.43608,326.575277 325.954898,326.780533 325.602324,327.140609 C325.249749,327.500685 325.054668,327.98608 325.059893,328.49 C325.054668,328.99392 325.249749,329.479315 325.602324,329.839391 C325.954898,330.199467 326.43608,330.404723 326.94,330.41 L361.17,330.41 C362.21,330.41 363.07,329.55 363.07,328.49 C363.07,327.43 362.22,326.57 361.17,326.57 L326.94,326.57 L326.94,326.57 Z M326.94,319.77 C326.43608,319.775277 325.954898,319.980533 325.602324,320.340609 C325.249749,320.700685 325.054668,321.18608 325.059893,321.69 C325.054668,322.19392 325.249749,322.679315 325.602324,323.039391 C325.954898,323.399467 326.43608,323.604723 326.94,323.61 L361.17,323.61 C362.21,323.61 363.07,322.75 363.07,321.69 C363.07,320.63 362.22,319.77 361.17,319.77 L326.94,319.77 L326.94,319.77 Z M203.499642,241.13 C203.644254,237.444362 206.661617,234.523906 210.35,234.5 L366.3,234.5 C369.988383,234.523906 373.005746,237.444362 373.15,241.13 L373.32,281.28 C373.32,283.16 372.58,284.98 371.26,286.28 C369.94917,287.593806 368.155227,288.309936 366.3,288.26 L210.35,288.26 C208.515583,288.244166 206.762751,287.499535 205.477824,286.190223 C204.192897,284.88091 203.481348,283.11439 203.499642,281.28 L203.499642,241.13 L203.499642,241.13 Z M224.04,275.53 C224.04,272.16 221.36,269.43 218.04,269.43 C214.72,269.43 212.04,272.17 212.04,275.53 C212.04,278.89 214.72,281.63 218.04,281.63 C221.36,281.63 224.04,278.89 224.04,275.53 Z M326.74,275.01 C326.23608,275.015277 325.754898,275.220533 325.402324,275.580609 C325.049749,275.940685 324.854668,276.42608 324.859893,276.93 C324.854668,277.43392 325.049749,277.919315 325.402324,278.279391 C325.754898,278.639467 326.23608,278.844723 326.74,278.85 L361,278.85 C361.50392,278.844723 361.985102,278.639467 362.337676,278.279391 C362.690251,277.919315 362.885332,277.43392 362.880107,276.93 C362.885332,276.42608 362.690251,275.940685 362.337676,275.580609 C361.985102,275.220533 361.50392,275.015277 361,275.01 L326.76,275.01 L326.74,275.01 Z M326.74,268.37 C326.23608,268.375277 325.754898,268.580533 325.402324,268.940609 C325.049749,269.300685 324.854668,269.78608 324.859893,270.29 C324.854668,270.79392 325.049749,271.279315 325.402324,271.639391 C325.754898,271.999467 326.23608,272.204723 326.74,272.21 L361,272.21 C361.50392,272.204723 361.985102,271.999467 362.337676,271.639391 C362.690251,271.279315 362.885332,270.79392 362.880107,270.29 C362.885332,269.78608 362.690251,269.300685 362.337676,268.940609 C361.985102,268.580533 361.50392,268.375277 361,268.37 L326.76,268.37 L326.74,268.37 Z M326.74,261.57 C326.23608,261.575277 325.754898,261.780533 325.402324,262.140609 C325.049749,262.500685 324.854668,262.98608 324.859893,263.49 C324.854668,263.99392 325.049749,264.479315 325.402324,264.839391 C325.754898,265.199467 326.23608,265.404723 326.74,265.41 L361,265.41 C361.50392,265.404723 361.985102,265.199467 362.337676,264.839391 C362.690251,264.479315 362.885332,263.99392 362.880107,263.49 C362.885332,262.98608 362.690251,262.500685 362.337676,262.140609 C361.985102,261.780533 361.50392,261.575277 361,261.57 L326.76,261.57 L326.74,261.57 Z M203.7,357.32 C203.839047,353.630434 206.857894,350.704136 210.55,350.68 L366.49,350.68 C370.177944,350.714294 373.19093,353.63491 373.34,357.32 L373.51,397.47 C373.51,399.35 372.77,401.15 371.44,402.47 C370.128295,403.776264 368.340727,404.491291 366.49,404.45 L210.54,404.45 C208.704743,404.436825 206.950353,403.693036 205.664853,402.383139 C204.379352,401.073242 203.668674,399.30518 203.689534,397.47 L203.689534,357.32 L203.7,357.32 Z M224.24,391.72 C224.24,388.34 221.56,385.62 218.24,385.62 C214.92,385.62 212.24,388.35 212.24,391.72 C212.24,395.09 214.92,397.82 218.24,397.82 C221.56,397.82 224.24,395.09 224.24,391.72 Z M326.94,391.19 C326.43608,391.195277 325.954898,391.400533 325.602324,391.760609 C325.249749,392.120685 325.054668,392.60608 325.059893,393.11 C325.054668,393.61392 325.249749,394.099315 325.602324,394.459391 C325.954898,394.819467 326.43608,395.024723 326.94,395.03 L361.17,395.03 C362.21,395.03 363.07,394.17 363.07,393.11 C363.07,392.05 362.22,391.19 361.17,391.19 L326.94,391.19 L326.94,391.19 Z M326.94,384.56 C326.43608,384.565277 325.954898,384.770533 325.602324,385.130609 C325.249749,385.490685 325.054668,385.97608 325.059893,386.48 C325.054668,386.98392 325.249749,387.469315 325.602324,387.829391 C325.954898,388.189467 326.43608,388.394723 326.94,388.4 L361.17,388.4 C362.21,388.4 363.07,387.54 363.07,386.48 C363.07,385.42 362.22,384.56 361.17,384.56 L326.94,384.56 L326.94,384.56 Z M326.94,377.76 C326.43608,377.765277 325.954898,377.970533 325.602324,378.330609 C325.249749,378.690685 325.054668,379.17608 325.059893,379.68 C325.054668,380.18392 325.249749,380.669315 325.602324,381.029391 C325.954898,381.389467 326.43608,381.594723 326.94,381.6 L361.17,381.6 C362.21,381.6 363.07,380.74 363.07,379.68 C363.07,378.62 362.22,377.76 361.17,377.76 L326.94,377.76 L326.94,377.76 Z" id="Shape" stroke="#666666" fill="#F5F5F5" fill-rule="nonzero"></path>
            <g id="Group" transform="translate(373.000000, 319.000000)" stroke="#000000" stroke-width="3">
                <polyline id="Path" points="0.5 0.5 59.5 0.5 59.5 90.5 107.4 90.5"></polyline>
                <g id="d-link" transform="translate(105.000000, 86.000000)" fill="#000000" fill-rule="nonzero">
                    <polygon id="d" points="9.15 4.5 0.15 9 2.4 4.5 0.15 0"></polygon>
                </g>
            </g>
            <path d="M240.1,11.65 L230.96,11.65 L230.96,37 L227.23,37 L227.23,11.65 L218.11,11.65 L218.11,8.55 L240.11,8.55 L240.11,11.65 L240.1,11.65 Z M247.37,18.43 C248.870234,16.5144238 251.187592,15.4206309 253.62,15.48 C258.09,15.48 260.34,18 260.38,23.04 L260.38,37 L256.78,37 L256.78,23.02 C256.77,21.5 256.42,20.37 255.73,19.64 C255.05,18.91 253.99,18.54 252.55,18.54 C251.446335,18.5174059 250.364115,18.846625 249.46,19.48 C248.568234,20.1064942 247.854856,20.9542765 247.39,21.94 L247.39,37 L243.79,37 L243.79,7 L247.39,7 L247.39,18.43 L247.37,18.43 Z M274.57,37.39 C271.71,37.39 269.37,36.45 267.57,34.59 C265.77,32.69 264.87,30.19 264.87,27.03 L264.87,26.37 C264.833747,24.4337282 265.24079,22.5148098 266.06,20.76 C266.799924,19.1836833 267.963163,17.8438806 269.42,16.89 C270.812533,15.9662164 272.448953,15.478772 274.12,15.4898103 C276.87,15.4898103 279,16.39 280.52,18.19 C282.04,19.99 282.82,22.59 282.82,25.96 L282.82,27.46 L268.5,27.46 C268.467903,29.3124085 269.115343,31.1124318 270.32,32.52 C271.452503,33.7758656 273.079675,34.4706132 274.77,34.42 C275.900435,34.4555404 277.019593,34.1861135 278.01,33.64 C278.911267,33.1083656 279.699484,32.4050855 280.33,31.57 L282.53,33.29 C280.76,36.01 278.1,37.37 274.56,37.37 L274.57,37.39 Z M274.12,18.44 C272.722018,18.4133429 271.381903,18.9975893 270.45,20.04 C269.45,21.09 268.85,22.58 268.61,24.49 L279.21,24.49 L279.21,24.22 C279.11,22.38 278.61,20.96 277.73,19.96 C276.824083,18.9315524 275.498857,18.3720125 274.13,18.44 L274.12,18.44 Z M299.62,9.64 L299.02,16.64 L296.85,16.64 L296.87,6.99 L299.6,6.99 L299.6,9.65 L299.62,9.64 Z M304.89,9.64 L304.29,16.64 L302.12,16.64 L302.14,6.99 L304.87,6.99 L304.87,9.65 L304.89,9.64 Z M310.3,37 L310.3,8.56 L319.6,8.56 C322.7,8.56 325,9.2 326.55,10.46 C328.11,11.74 328.89,13.62 328.89,16.12 C328.911761,17.3919945 328.514708,18.6358614 327.76,19.66 C326.958775,20.708035 325.891949,21.522828 324.67,22.02 C326.128417,22.3947798 327.411471,23.2642878 328.3,24.48 C329.214466,25.72393 329.689377,27.2366077 329.65,28.78 C329.768252,31.057091 328.857874,33.266961 327.17,34.8 C325.52,36.26 323.17,37 320.17,37 L310.31,37 L310.3,37 Z M314.05,23.7 L314.05,33.93 L320.25,33.93 C322,33.93 323.37,33.48 324.37,32.58 C325.410368,31.6191003 325.967705,30.2440917 325.89,28.83 C325.89,25.41 324.03,23.69 320.29,23.69 L314.04,23.69 L314.05,23.7 Z M314.05,20.7 L319.71,20.7 C321.12521,20.7753104 322.520243,20.3386969 323.64,19.47 C324.629487,18.6501166 325.17734,17.4137467 325.12,16.13 C325.12,14.57 324.66,13.43 323.75,12.73 C322.85,12.01 321.45,11.66 319.59,11.66 L314.04,11.66 L314.04,20.7 L314.05,20.7 Z M343.43,37.4 C340.806018,37.4967083 338.26343,36.4796732 336.43,34.6 C334.63,32.7 333.73,30.2 333.73,27.04 L333.73,26.38 C333.693747,24.4437282 334.10079,22.5248098 334.92,20.77 C335.659924,19.1936833 336.823163,17.8538806 338.28,16.9 C339.672533,15.9762164 341.308953,15.488772 342.98,15.4998103 C345.73,15.4998103 347.86,16.4 349.38,18.2 C350.9,20 351.66,22.6 351.66,25.97 L351.66,27.47 L337.34,27.47 C337.307903,29.3224085 337.955343,31.1224318 339.16,32.53 C340.292503,33.7858656 341.919675,34.4806132 343.61,34.43 C344.740435,34.4655404 345.859593,34.1961135 346.85,33.65 C347.75,33.13 348.51,32.45 349.17,31.58 L351.37,33.3 C349.6,36.02 346.94,37.38 343.4,37.38 L343.43,37.4 Z M342.98,18.45 C341.582018,18.4233429 340.241903,19.0075893 339.31,20.05 C338.31,21.1 337.71,22.59 337.47,24.5 L348.07,24.5 L348.07,24.23 C347.97,22.39 347.47,20.97 346.59,19.97 C345.684083,18.9415524 344.358857,18.3820125 342.99,18.45 L342.98,18.45 Z M368.18,31.4 C368.18,30.42 367.81,29.67 367.08,29.13 C366.35,28.58 365.08,28.11 363.23,27.73 C361.723591,27.4435117 360.258903,26.9698395 358.87,26.32 C357.927695,25.876694 357.109975,25.2067139 356.49,24.37 C355.97349,23.5657442 355.708856,22.6255954 355.73,21.67 C355.73,19.94 356.46,18.47 357.93,17.27 C359.4,16.07 361.28,15.47 363.56,15.47 C365.96,15.47 367.9,16.09 369.38,17.33 C370.832776,18.4733716 371.66562,20.2315988 371.63,22.08 L368,22.08 C368,21.08 367.58,20.24 366.73,19.52 C365.844344,18.7864155 364.71915,18.4054163 363.57,18.45 C362.27,18.45 361.23,18.75 360.47,19.31 C359.752849,19.8321168 359.337917,20.6731946 359.36,21.56 C359.36,22.43 359.71,23.09 360.4,23.53 C361.09,23.97 362.33,24.4 364.13,24.8 C365.647422,25.1129912 367.123795,25.5995234 368.53,26.25 C369.522057,26.6947714 370.377977,27.3953835 371.01,28.28 C371.56,29.06 371.83,30.02 371.83,31.15 C371.879428,32.9503122 371.028074,34.6567709 369.56,35.7 C368.06,36.83 366.09,37.4 363.68,37.4 C361.98,37.4 360.48,37.1 359.18,36.5 C357.948597,35.9609673 356.887277,35.0966994 356.11,34 C355.395202,32.9727038 355.011397,31.7515078 355.01,30.5 L358.61,30.5 C358.67,31.7 359.16,32.67 360.06,33.4 C361.107226,34.1460173 362.37592,34.5160529 363.66,34.45 C364.810506,34.5084672 365.952362,34.2230032 366.94,33.63 C367.721538,33.1598606 368.196783,32.3120234 368.19,31.4 L368.18,31.4 Z M381.4,10.76 L381.4,15.88 L385.35,15.88 L385.35,18.68 L381.4,18.68 L381.4,31.78 C381.4,32.63 381.58,33.26 381.93,33.68 C382.28,34.1 382.88,34.31 383.73,34.31 C384.15,34.31 384.73,34.23 385.45,34.08 L385.45,37 C384.5,37.26 383.58,37.4 382.68,37.4 C381.06,37.4 379.85,36.9 379.03,35.94 C378.21,34.98 377.8,33.58 377.8,31.78 L377.8,18.68 L373.95,18.68 L373.95,15.88 L377.8,15.88 L377.8,10.76 L381.4,10.76 L381.4,10.76 Z M392.26,9.66 L391.66,16.66 L389.49,16.66 L389.49,7 L392.23,7 L392.23,9.66 L392.26,9.66 Z M397.53,9.66 L396.93,16.66 L394.76,16.66 L394.8,7 L397.53,7 L397.53,9.66 Z M417.73,8.56 L427.03,31.76 L436.33,8.56 L441.19,8.56 L441.19,37 L437.44,37 L437.44,25.93 L437.79,13.98 L428.45,37 L425.58,37 L416.26,14.03 L416.63,25.93 L416.63,37 L412.88,37 L412.88,8.56 L417.72,8.56 L417.73,8.56 Z M446.29,26.24 C446.29,24.17 446.69,22.31 447.49,20.64 C448.237982,19.0672587 449.417004,17.7391254 450.89,16.81 C452.389442,15.8992972 454.115896,15.4312825 455.87,15.46 C458.75,15.46 461.07,16.46 462.84,18.46 C464.62,20.46 465.52,23.1 465.52,26.41 L465.52,26.66 C465.52,28.72 465.12,30.56 464.32,32.21 C463.588538,33.7821442 462.413759,35.1063771 460.94,36.02 C459.425355,36.9487204 457.676374,37.4241377 455.9,37.39 C453.247019,37.4826785 450.691155,36.3862601 448.93,34.4 C447.16,32.4 446.27,29.77 446.27,26.5 L446.27,26.25 L446.29,26.24 Z M449.92,26.67 C449.92,29.01 450.46,30.9 451.54,32.31 C452.56242,33.695242 454.199064,34.4911444 455.92,34.44 C457.646477,34.4953021 459.287721,33.6896682 460.3,32.29 C461.38,30.84 461.92,28.83 461.92,26.24 C461.92,23.92 461.37,22.04 460.26,20.62 C459.254155,19.2157565 457.616667,18.4026331 455.89,18.45 C454.188161,18.4100874 452.574548,19.2056886 451.57,20.58 C450.47,22 449.93,24.03 449.93,26.68 L449.92,26.67 Z M469.18,26.27 C469.18,23.03 469.95,20.42 471.48,18.47 C472.889589,16.555527 475.143157,15.4473983 477.52,15.5 C479.99,15.5 481.95,16.35 483.4,18.04 L483.4,7 L487,7 L487,37 L483.68,37 L483.5,34.73 C482.05,36.5 480.04,37.39 477.46,37.39 C475.01,37.39 473.01,36.39 471.46,34.39 C469.92,32.39 469.16,29.77 469.16,26.54 L469.16,26.27 L469.18,26.27 Z M472.78,26.67 C472.78,29.07 473.28,30.94 474.26,32.3 C475.19555,33.6263419 476.738017,34.3900513 478.36,34.33 C480.66,34.33 482.32,33.3 483.38,31.23 L483.38,21.53 C482.462587,19.6314226 480.506988,18.4572782 478.4,18.54 C476.760287,18.4706395 475.198793,19.2438429 474.26,20.59 C473.26,21.96 472.78,23.99 472.78,26.66 L472.78,26.67 Z M501.38,37.39 C498.52,37.39 496.18,36.45 494.38,34.59 C492.58,32.69 491.68,30.19 491.68,27.03 L491.68,26.37 C491.643747,24.4337282 492.05079,22.5148098 492.87,20.76 C493.609924,19.1836833 494.773163,17.8438806 496.23,16.89 C497.622533,15.9662164 499.258953,15.478772 500.93,15.4898103 C503.68,15.4898103 505.81,16.39 507.33,18.19 C508.85,19.99 509.63,22.59 509.63,25.96 L509.63,27.46 L495.3,27.46 C495.267903,29.3124085 495.915343,31.1124318 497.12,32.52 C498.252503,33.7758656 499.879675,34.4706132 501.57,34.42 C502.700435,34.4555404 503.819593,34.1861135 504.81,33.64 C505.71,33.12 506.47,32.44 507.13,31.57 L509.33,33.29 C507.56,36.01 504.9,37.37 501.36,37.37 L501.38,37.39 Z M500.93,18.44 C499.532018,18.4133429 498.191903,18.9975893 497.26,20.04 C496.26,21.09 495.66,22.58 495.42,24.49 L506.02,24.49 L506.02,24.22 C505.92,22.38 505.42,20.96 504.54,19.96 C503.631467,18.9351913 502.308073,18.3764251 500.94,18.44 L500.93,18.44 Z M517.77,37 L514.17,37 L514.17,7 L517.77,7 L517.77,37 Z M8.44,117.66 L4.34,117.66 L3.54,120 L1.04,120 L5.27,108.63 L7.44,108.63 L11.72,120 L9.22,120 L8.42,117.66 L8.44,117.66 Z M4.96,115.76 L7.8,115.76 L6.37,111.5 L4.97,115.76 L4.96,115.76 Z M17.38,113.66 C17.1148788,113.623024 16.8476706,113.602984 16.58,113.6 C15.73,113.6 15.18,113.9 14.9,114.47 L14.9,120 L12.64,120 L12.64,111.55 L14.77,111.55 L14.83,112.55 C15.28,111.77 15.91,111.39 16.71,111.39 C16.96,111.39 17.19,111.42 17.41,111.49 L17.38,113.66 Z M21.58,109.46 L21.58,111.54 L23.03,111.54 L23.03,113.2 L21.58,113.2 L21.58,117.42 C21.58,117.72 21.64,117.96 21.76,118.09 C21.88,118.22 22.11,118.29 22.46,118.29 C22.71,118.29 22.93,118.27 23.12,118.24 L23.12,119.94 C22.6763847,120.07694 22.2142495,120.144405 21.75,120.14 C20.17,120.14 19.35,119.34 19.33,117.74 L19.33,113.19 L18.1,113.19 L18.1,111.53 L19.33,111.53 L19.33,109.45 L21.59,109.45 L21.58,109.46 Z M26.68,119.99 L24.4,119.99 L24.4,111.54 L26.67,111.54 L26.67,120 L26.68,119.99 Z M24.28,109.35 C24.28,109.01 24.38,108.73 24.62,108.51 C24.85,108.29 25.16,108.18 25.55,108.18 C25.95,108.18 26.25,108.28 26.47,108.51 C26.69,108.74 26.81,109.01 26.81,109.35 C26.82005,109.667394 26.6924451,109.973646 26.46,110.19 C26.23,110.41 25.93,110.52 25.56,110.52 C25.19,110.52 24.86,110.42 24.64,110.19 C24.4112391,109.971857 24.2873772,109.665846 24.3,109.35 L24.28,109.35 Z M29.14,120 L29.14,113.2 L27.88,113.2 L27.88,111.54 L29.14,111.54 L29.14,110.82 C29.14,109.87 29.41,109.14 29.94,108.62 C30.49,108.09 31.24,107.82 32.24,107.82 C32.6280361,107.831057 33.013683,107.884712 33.39,107.98 L33.37,109.73 C33.17,109.68 32.95,109.66 32.67,109.66 C31.82,109.66 31.4,110.06 31.4,110.86 L31.4,111.54 L33.08,111.54 L33.08,113.2 L31.4,113.2 L31.4,120 L29.13,120 L29.14,120 Z M39.16,120 C39.06,119.8 38.98,119.54 38.93,119.24 C38.38,119.84 37.67,120.14 36.8,120.14 C36.0472969,120.167105 35.3119373,119.910086 34.74,119.42 C34.2168994,118.970326 33.9232474,118.309609 33.94,117.62 C33.94,116.72 34.27,116.04 34.94,115.56 C35.61,115.08 36.57,114.84 37.82,114.83 L38.86,114.83 L38.86,114.35 C38.86,113.95 38.76,113.65 38.56,113.41 C38.36,113.18 38.06,113.06 37.61,113.06 C37.23,113.06 36.93,113.16 36.71,113.33 C36.4983313,113.520849 36.3813051,113.795129 36.39,114.08 L34.09,114.08 C34.09,113.58 34.24,113.14 34.54,112.72 C34.84,112.3 35.27,111.98 35.82,111.74 C36.4083052,111.492243 37.0417372,111.369643 37.68,111.38 C38.5775617,111.327625 39.4622357,111.613003 40.16,112.18 C40.76,112.7 41.08,113.43 41.08,114.38 L41.08,118.04 C41.09,118.84 41.2,119.44 41.42,119.86 L41.42,119.99 L39.14,119.99 L39.16,120 Z M37.29,118.43 C37.62,118.43 37.93,118.36 38.21,118.21 C38.49,118.06 38.71,117.86 38.84,117.61 L38.84,116.16 L38,116.16 C36.87,116.16 36.27,116.56 36.2,117.33 L36.2,117.46 C36.1914856,117.726231 36.3013399,117.982558 36.5,118.16 C36.7,118.34 36.97,118.43 37.3,118.43 L37.29,118.43 Z M46.35,118.33 C46.77,118.33 47.11,118.23 47.37,117.99 C47.6323162,117.760588 47.7819491,117.428476 47.78,117.08 L49.9,117.08 C49.8994674,117.641042 49.7362041,118.189885 49.43,118.66 C49.13,119.13 48.7,119.5 48.16,119.76 C47.63,120.02 47.04,120.16 46.39,120.16 C45.19,120.16 44.23,119.78 43.53,119.01 C42.83,118.24 42.48,117.18 42.48,115.81 L42.48,115.66 C42.420603,114.526034 42.7921027,113.411535 43.52,112.54 C44.2502123,111.748729 45.2947624,111.323579 46.37,111.38 C47.43,111.38 48.27,111.68 48.91,112.28 C49.55,112.88 49.88,113.68 49.89,114.68 L47.77,114.68 C47.76,114.24 47.62,113.88 47.37,113.62 C47.12,113.36 46.77,113.22 46.34,113.22 C45.81,113.22 45.42,113.42 45.14,113.8 C44.87,114.18 44.74,114.8 44.74,115.66 L44.74,115.89 C44.74,116.76 44.87,117.39 45.14,117.77 C45.41,118.15 45.81,118.34 46.34,118.34 L46.35,118.33 Z M53.88,109.46 L53.88,111.54 L55.33,111.54 L55.33,113.2 L53.88,113.2 L53.88,117.42 C53.88,117.72 53.94,117.96 54.06,118.09 C54.18,118.22 54.41,118.29 54.76,118.29 C55.01,118.29 55.23,118.27 55.42,118.24 L55.42,119.94 C54.9763847,120.07694 54.5142495,120.144405 54.05,120.14 C52.47,120.14 51.65,119.34 51.63,117.74 L51.63,113.19 L50.4,113.19 L50.4,111.53 L51.63,111.53 L51.63,109.45 L53.89,109.45 L53.88,109.46 Z M61.16,117.66 C61.16,117.38 61.02,117.16 60.76,117.01 C60.49,116.85 60.06,116.71 59.46,116.58 C57.46,116.16 56.44,115.3 56.44,114.02 C56.44,113.27 56.74,112.65 57.37,112.15 C58,111.65 58.81,111.39 59.82,111.39 C60.89,111.39 61.75,111.64 62.39,112.15 C63.04,112.65 63.36,113.31 63.36,114.12 L61.1,114.12 C61.1118793,113.823804 61.0037093,113.53535 60.8,113.32 C60.6,113.12 60.27,113 59.82,113 C59.44,113 59.15,113.1 58.94,113.26 C58.73,113.42 58.64,113.66 58.64,113.92 C58.64,114.17 58.76,114.37 58.99,114.52 C59.23,114.67 59.63,114.8 60.19,114.92 C60.6725269,115.009406 61.1473115,115.136461 61.61,115.3 C62.81,115.74 63.41,116.5 63.41,117.57 C63.41,118.34 63.08,118.97 62.41,119.45 C61.6529992,119.950946 60.7568839,120.199478 59.85,120.16 C59.15,120.16 58.51,120.04 57.95,119.79 C57.4361465,119.562608 56.9912299,119.203916 56.66,118.75 C56.36,118.31 56.19,117.83 56.19,117.32 L58.33,117.32 C58.35,117.72 58.5,118.02 58.78,118.24 C59.06,118.46 59.43,118.56 59.88,118.56 C60.31,118.56 60.64,118.48 60.86,118.32 C61.0731537,118.172275 61.2002273,117.92934 61.2,117.67 L61.16,117.66 Z M2.32,139 L2.32,127.63 L6.04,127.63 C7.27,127.63 8.2,127.88 8.82,128.4 C9.45,128.9 9.76,129.67 9.76,130.67 C9.76,131.2 9.61,131.67 9.31,132.07 C9.01,132.47 8.61,132.79 8.08,133.02 C8.68,133.19 9.18,133.52 9.53,134 C9.89,134.48 10.07,135.05 10.07,135.72 C10.1186583,136.630389 9.75069265,137.513507 9.07,138.12 C8.27723349,138.748797 7.27994667,139.06223 6.27,139 L2.32,139 L2.32,139 Z M3.82,133.68 L3.82,137.78 L6.3,137.78 C7,137.78 7.55,137.6 7.95,137.24 C8.35,136.88 8.55,136.38 8.55,135.74 C8.55,134.37 7.81,133.69 6.32,133.69 L3.82,133.69 L3.82,133.68 Z M3.82,132.48 L6.1,132.48 C6.66712284,132.51294 7.22637252,132.334835 7.67,131.98 C8.07,131.65 8.27,131.21 8.27,130.64 C8.27,130.02 8.09,129.56 7.72,129.28 C7.35,129 6.8,128.85 6.06,128.85 L3.82,128.85 L3.82,132.47 L3.82,132.48 Z M17.28,138.18 C16.72,138.84 15.88,139.18 14.8,139.18 C13.9,139.18 13.2,138.92 12.74,138.4 C12.27,137.87 12.04,137.1 12.04,136.07 L12.04,130.57 L13.49,130.57 L13.49,136 C13.49,137.28 14.01,137.92 15.05,137.92 C16.15,137.92 16.89,137.52 17.25,136.68 L17.25,130.53 L18.7,130.53 L18.7,139 L17.3,139 L17.27,138.16 L17.28,138.18 Z M22.26,130.56 L22.31,131.62 C22.96,130.82 23.81,130.4 24.84,130.4 C26.64,130.4 27.54,131.4 27.54,133.42 L27.54,139.02 L26.1,139.02 L26.1,133.42 C26.09,132.82 25.95,132.36 25.68,132.07 C25.41,131.77 24.98,131.63 24.41,131.63 C23.94,131.63 23.53,131.76 23.18,132.01 C22.83,132.26 22.55,132.59 22.35,133.01 L22.35,139.01 L20.9,139.01 L20.9,130.56 L22.27,130.56 L22.26,130.56 Z M29.36,134.72 C29.36,133.42 29.66,132.38 30.28,131.6 C30.839924,130.832532 31.7402436,130.387976 32.69,130.41 C33.5891892,130.366824 34.4574417,130.743683 35.04,131.43 L35.04,127 L36.49,127 L36.49,139 L35.16,139 L35.09,138.1 C34.4988351,138.807949 33.6114538,139.199875 32.69,139.16 C31.741927,139.17642 30.8457081,138.72831 30.29,137.96 C29.6467894,137.042785 29.3234762,135.939303 29.37,134.82 L29.37,134.72 L29.36,134.72 Z M30.81,134.88 C30.81,135.84 31.01,136.58 31.41,137.13 C31.81,137.68 32.35,137.93 33.05,137.93 C33.9109684,137.968266 34.7079148,137.476617 35.06,136.69 L35.06,132.81 C34.63,132.01 33.96,131.61 33.06,131.61 C32.36,131.61 31.8,131.88 31.4,132.43 C31,132.98 30.8,133.79 30.8,134.86 L30.81,134.88 Z M40.31,139.01 L38.86,139.01 L38.86,127.01 L40.31,127.01 L40.31,139.01 Z M46.14,139.17 C45.0899682,139.211221 44.0719395,138.80401 43.34,138.05 C42.5946732,137.225837 42.2063242,136.139899 42.26,135.03 L42.26,134.76 C42.2480636,133.986595 42.4122041,133.220606 42.74,132.52 C43.06,131.86 43.51,131.34 44.08,130.97 C44.66,130.6 45.28,130.41 45.96,130.41 C47.06,130.41 47.91,130.77 48.52,131.51 C49.182405,132.406018 49.5049192,133.508237 49.43,134.62 L49.43,135.22 L43.7,135.22 C43.6856963,135.960351 43.9457078,136.679835 44.43,137.24 C44.9,137.74 45.49,138.01 46.21,138.01 C46.71,138.01 47.15,137.91 47.51,137.71 C47.87,137.51 48.17,137.23 48.44,136.88 L49.32,137.58 C48.62,138.68 47.55,139.21 46.12,139.21 L46.14,139.17 Z M45.96,131.59 C45.38,131.59 44.89,131.79 44.49,132.23 C44.09,132.67 43.85,133.25 43.76,134.01 L48.0000016,134.01 L48.0000016,133.91 C48.0006741,133.291328 47.7888606,132.69119 47.4,132.21 C47.05,131.81 46.57,131.61 45.96,131.61 L45.96,131.59 Z M50.76,134.72 C50.76,133.42 51.06,132.38 51.68,131.6 C52.239924,130.832532 53.1402436,130.387976 54.09,130.41 C54.9891892,130.366824 55.8574417,130.743683 56.44,131.43 L56.44,127 L57.89,127 L57.89,139 L56.56,139 L56.49,138.1 C55.8988351,138.807949 55.0114538,139.199875 54.09,139.16 C53.141927,139.17642 52.2457081,138.72831 51.69,137.96 C51.0467894,137.042785 50.7234762,135.939303 50.77,134.82 L50.77,134.72 L50.76,134.72 Z M52.21,134.88 C52.21,135.84 52.41,136.58 52.81,137.13 C53.21,137.68 53.75,137.93 54.45,137.93 C55.3109684,137.968266 56.1079148,137.476617 56.46,136.69 L56.46,132.81 C56.03,132.01 55.36,131.61 54.46,131.61 C53.76,131.61 53.2,131.88 52.8,132.43 C52.4,132.98 52.2,133.79 52.2,134.86 L52.21,134.88 Z M72.71,135.4 C72.634787,136.466673 72.1555476,137.464492 71.37,138.19 C70.63,138.84 69.63,139.17 68.39,139.17 C67.1486838,139.21479 65.9563762,138.683235 65.16,137.73 C64.3117735,136.624131 63.8862319,135.251759 63.96,133.86 L63.96,132.76 C63.9383035,131.800053 64.1295527,130.847222 64.52,129.97 C65.2291143,128.40923 66.806504,127.427305 68.52,127.48 C69.5857721,127.428384 70.629682,127.794291 71.43,128.5 C72.1920136,129.239269 72.645779,130.239697 72.7,131.3 L71.2,131.3 C71.07,130.4 70.8,129.74 70.35,129.33 C69.92,128.93 69.31,128.73 68.53,128.73 C67.6487496,128.692978 66.8049729,129.088732 66.27,129.79 C65.6809626,130.682413 65.4000098,131.74301 65.47,132.81 L65.47,133.91 C65.4132946,134.949516 65.6824793,135.980808 66.24,136.86 C66.7245325,137.570739 67.5404262,137.982463 68.4,137.95 C69.23,137.95 69.87,137.75 70.3,137.39 C70.75,137.01 71.04,136.35 71.2,135.41 L72.7,135.41 L72.71,135.4 Z M74.16,134.7 C74.16,133.87 74.32,133.13 74.64,132.47 C75.2662551,131.193713 76.5683864,130.389113 77.99,130.4 C79.14,130.4 80.07,130.8 80.79,131.6 C81.49,132.4 81.86,133.46 81.86,134.78 L81.86,134.88 C81.8724201,135.647024 81.7081831,136.40662 81.38,137.1 C81.08,137.75 80.62,138.26 80.03,138.62 C79.45,138.98 78.77,139.17 78.01,139.17 C76.86,139.17 75.93,138.77 75.21,137.97 C74.4757815,137.085254 74.0978311,135.958534 74.15,134.81 L74.15,134.71 L74.16,134.7 Z M75.61,134.87 C75.61,135.81 75.83,136.57 76.26,137.13 C76.6689944,137.682751 77.3226864,138.000259 78.01,137.98 C78.74,137.98 79.33,137.68 79.76,137.12 C80.19,136.56 80.41,135.74 80.41,134.7 C80.41,133.77 80.19,133.02 79.75,132.45 C79.3477066,131.886949 78.6917364,131.560838 78,131.58 C77.3,131.58 76.7,131.86 76.27,132.43 C75.84,133 75.61,133.81 75.61,134.87 L75.61,134.87 Z M83.31,134.71 C83.31,133.41 83.61,132.37 84.23,131.59 C84.789924,130.822532 85.6902436,130.377976 86.64,130.4 C87.5391892,130.356824 88.4074417,130.733683 88.99,131.42 L88.99,127 L90.44,127 L90.44,139 L89.1,139 L89.03,138.1 C88.4388351,138.807949 87.5514538,139.199875 86.63,139.16 C85.681927,139.17642 84.7857081,138.72831 84.23,137.96 C83.5867894,137.042785 83.2634762,135.939303 83.31,134.82 L83.31,134.72 L83.31,134.71 Z M84.76,134.87 C84.76,135.83 84.96,136.57 85.36,137.12 C85.76,137.67 86.3,137.92 87,137.92 C87.8609684,137.958266 88.6579148,137.466617 89.01,136.68 L89.01,132.8 C88.58,132 87.91,131.6 87.01,131.6 C86.31,131.6 85.75,131.87 85.35,132.42 C84.95,132.97 84.75,133.78 84.75,134.85 L84.76,134.87 Z M96.21,139.17 C95.1599682,139.211221 94.1419395,138.80401 93.41,138.05 C92.6646732,137.225837 92.2763242,136.139899 92.33,135.03 L92.33,134.76 C92.3180636,133.986595 92.4822041,133.220606 92.81,132.52 C93.13,131.86 93.58,131.34 94.15,130.97 C94.73,130.6 95.35,130.41 96.03,130.41 C97.13,130.41 97.98,130.77 98.59,131.51 C99.252405,132.406018 99.5749192,133.508237 99.5,134.62 L99.5,135.22 L93.77,135.22 C93.7556963,135.960351 94.0157078,136.679835 94.5,137.24 C94.97,137.74 95.56,138.01 96.28,138.01 C96.78,138.01 97.22,137.91 97.58,137.71 C97.94,137.51 98.24,137.23 98.51,136.88 L99.39,137.58 C98.69,138.68 97.62,139.21 96.19,139.21 L96.21,139.17 Z M96.03,131.59 C95.45,131.59 94.96,131.79 94.56,132.23 C94.16,132.67 93.92,133.25 93.83,134.01 L98.0600016,134.01 L98.0600016,133.91 C98.0606741,133.291328 97.8488606,132.69119 97.46,132.21 C97.11,131.81 96.63,131.61 96.02,131.61 L96.03,131.59 Z" id="Shape" fill="#000000" fill-rule="nonzero"></path>
            <path d="M491.5,216.42 C491.67,213.1 494.5,210.5 497.95,210.5 L644.9,210.5 C648.34,210.5 651.18,213.1 651.35,216.42 L651.51,252.22 C651.51,253.89 650.81,255.5 649.56,256.68 C648.302013,257.862205 646.625418,258.495425 644.9,258.44 L497.95,258.44 C496.25,258.44 494.6,257.79 493.39,256.62 C492.186574,255.472275 491.503898,253.882977 491.5,252.22 L491.5,216.42 L491.5,216.42 Z M510.85,247.09 C510.85,244.09 508.33,241.64 505.21,241.64 C502.09,241.64 499.56,244.08 499.56,247.09 C499.56,250.1 502.09,252.54 505.21,252.54 C508.33,252.54 510.85,250.1 510.85,247.09 Z M607.63,246.62 C606.65,246.62 605.85,247.39 605.85,248.32 C605.85,249.27 606.65,250.04 607.63,250.04 L639.89,250.04 C640.87,250.04 641.66,249.27 641.66,248.32 C641.66,247.38 640.86,246.62 639.89,246.62 L607.63,246.62 Z M607.63,240.7 C606.65,240.7 605.85,241.47 605.85,242.42 C605.85,243.36 606.65,244.12 607.63,244.12 L639.89,244.12 C640.87,244.12 641.66,243.35 641.66,242.42 C641.66,241.47 640.86,240.7 639.89,240.7 L607.63,240.7 Z M607.63,234.63 C606.65,234.63 605.85,235.4 605.85,236.33 C605.85,237.28 606.65,238.05 607.63,238.05 L639.89,238.05 C640.87,238.05 641.66,237.28 641.66,236.33 C641.66,235.39 640.86,234.63 639.89,234.63 L607.63,234.63 Z" id="b"></path>
            <path d="M490.5,334.42 C490.67,331.1 493.5,328.5 496.95,328.5 L643.9,328.5 C647.34,328.5 650.18,331.1 650.35,334.42 L650.51,370.22 C650.51,371.89 649.81,373.5 648.56,374.68 C647.302013,375.862205 645.625418,376.495425 643.9,376.44 L496.95,376.44 C495.25,376.44 493.6,375.79 492.39,374.62 C491.186574,373.472275 490.503898,371.882977 490.5,370.22 L490.5,334.42 L490.5,334.42 Z M509.85,365.09 C509.85,362.09 507.33,359.64 504.21,359.64 C501.09,359.64 498.56,362.08 498.56,365.09 C498.56,368.1 501.09,370.54 504.21,370.54 C507.33,370.54 509.85,368.1 509.85,365.09 Z M606.63,364.62 C605.65,364.62 604.85,365.39 604.85,366.32 C604.85,367.27 605.65,368.04 606.63,368.04 L638.89,368.04 C639.87,368.04 640.66,367.27 640.66,366.32 C640.66,365.38 639.86,364.62 638.89,364.62 L606.63,364.62 Z M606.63,358.7 C605.65,358.7 604.85,359.47 604.85,360.42 C604.85,361.36 605.65,362.12 606.63,362.12 L638.89,362.12 C639.87,362.12 640.66,361.35 640.66,360.42 C640.66,359.47 639.86,358.7 638.89,358.7 L606.63,358.7 Z M606.63,352.63 C605.65,352.63 604.85,353.4 604.85,354.33 C604.85,355.28 605.65,356.05 606.63,356.05 L638.89,356.05 C639.87,356.05 640.66,355.28 640.66,354.33 C640.66,353.39 639.86,352.63 638.89,352.63 L606.63,352.63 Z" id="c"></path>
            <polygon id="d" points="198.15 333.5 189.15 338 191.4 333.5 189.15 329"></polygon>
        </g>
    </g>
</svg>