<svg width="777" height="468" viewBox="0 0 777 468" fill="none" xmlns="http://www.w3.org/2000/svg">
<rect width="776.5" height="468" fill="white"/>
<path d="M493.016 120V108.625H497C498.38 108.625 499.427 108.891 500.141 109.422C500.854 109.948 501.211 110.721 501.211 111.742C501.211 112.299 501.068 112.792 500.781 113.219C500.495 113.641 500.096 113.951 499.586 114.148C500.169 114.294 500.628 114.589 500.961 115.031C501.299 115.474 501.469 116.016 501.469 116.656C501.469 117.75 501.12 118.578 500.422 119.141C499.724 119.703 498.729 119.99 497.438 120H493.016ZM495.359 115.047V118.117H497.367C497.919 118.117 498.349 117.987 498.656 117.727C498.969 117.461 499.125 117.096 499.125 116.633C499.125 115.591 498.586 115.062 497.508 115.047H495.359ZM495.359 113.391H497.094C498.276 113.37 498.867 112.898 498.867 111.977C498.867 111.461 498.716 111.091 498.414 110.867C498.117 110.638 497.646 110.523 497 110.523H495.359V113.391ZM506.977 120.156C505.737 120.156 504.727 119.776 503.945 119.016C503.169 118.255 502.781 117.242 502.781 115.977V115.758C502.781 114.909 502.945 114.151 503.273 113.484C503.602 112.812 504.065 112.297 504.664 111.938C505.268 111.573 505.956 111.391 506.727 111.391C507.883 111.391 508.792 111.755 509.453 112.484C510.12 113.214 510.453 114.247 510.453 115.586V116.508H505.07C505.143 117.06 505.362 117.503 505.727 117.836C506.096 118.169 506.562 118.336 507.125 118.336C507.995 118.336 508.674 118.021 509.164 117.391L510.273 118.633C509.935 119.112 509.477 119.487 508.898 119.758C508.32 120.023 507.68 120.156 506.977 120.156ZM506.719 113.219C506.271 113.219 505.906 113.37 505.625 113.672C505.349 113.974 505.172 114.406 505.094 114.969H508.234V114.789C508.224 114.289 508.089 113.904 507.828 113.633C507.568 113.357 507.198 113.219 506.719 113.219ZM516.32 117.664C516.32 117.388 516.182 117.172 515.906 117.016C515.635 116.854 515.198 116.711 514.594 116.586C512.583 116.164 511.578 115.31 511.578 114.023C511.578 113.273 511.888 112.648 512.508 112.148C513.133 111.643 513.948 111.391 514.953 111.391C516.026 111.391 516.883 111.643 517.523 112.148C518.169 112.654 518.492 113.31 518.492 114.117H516.234C516.234 113.794 516.13 113.529 515.922 113.32C515.714 113.107 515.388 113 514.945 113C514.565 113 514.271 113.086 514.062 113.258C513.854 113.43 513.75 113.648 513.75 113.914C513.75 114.164 513.867 114.367 514.102 114.523C514.341 114.674 514.742 114.807 515.305 114.922C515.867 115.031 516.341 115.156 516.727 115.297C517.919 115.734 518.516 116.492 518.516 117.57C518.516 118.341 518.185 118.966 517.523 119.445C516.862 119.919 516.008 120.156 514.961 120.156C514.253 120.156 513.622 120.031 513.07 119.781C512.523 119.526 512.094 119.18 511.781 118.742C511.469 118.299 511.312 117.823 511.312 117.312H513.453C513.474 117.714 513.622 118.021 513.898 118.234C514.174 118.448 514.544 118.555 515.008 118.555C515.44 118.555 515.766 118.474 515.984 118.312C516.208 118.146 516.32 117.93 516.32 117.664ZM522.68 109.469V111.547H524.125V113.203H522.68V117.422C522.68 117.734 522.74 117.958 522.859 118.094C522.979 118.229 523.208 118.297 523.547 118.297C523.797 118.297 524.018 118.279 524.211 118.242V119.953C523.768 120.089 523.312 120.156 522.844 120.156C521.26 120.156 520.453 119.357 520.422 117.758V113.203H519.188V111.547H520.422V109.469H522.68ZM535.938 117.656H531.828L531.047 120H528.555L532.789 108.625H534.961L539.219 120H536.727L535.938 117.656ZM532.461 115.758H535.305L533.875 111.5L532.461 115.758ZM539.805 115.711C539.805 114.414 540.112 113.37 540.727 112.578C541.346 111.786 542.18 111.391 543.227 111.391C544.154 111.391 544.875 111.708 545.391 112.344L545.484 111.547H547.531V119.719C547.531 120.458 547.362 121.102 547.023 121.648C546.69 122.195 546.219 122.612 545.609 122.898C545 123.185 544.286 123.328 543.469 123.328C542.849 123.328 542.245 123.203 541.656 122.953C541.068 122.708 540.622 122.391 540.32 122L541.32 120.625C541.883 121.255 542.565 121.57 543.367 121.57C543.966 121.57 544.432 121.409 544.766 121.086C545.099 120.768 545.266 120.315 545.266 119.727V119.273C544.745 119.862 544.06 120.156 543.211 120.156C542.195 120.156 541.372 119.76 540.742 118.969C540.117 118.172 539.805 117.117 539.805 115.805V115.711ZM542.062 115.875C542.062 116.641 542.216 117.242 542.523 117.68C542.831 118.112 543.253 118.328 543.789 118.328C544.477 118.328 544.969 118.07 545.266 117.555V114C544.964 113.484 544.477 113.227 543.805 113.227C543.263 113.227 542.836 113.448 542.523 113.891C542.216 114.333 542.062 114.995 542.062 115.875ZM553.164 120.156C551.924 120.156 550.914 119.776 550.133 119.016C549.357 118.255 548.969 117.242 548.969 115.977V115.758C548.969 114.909 549.133 114.151 549.461 113.484C549.789 112.812 550.253 112.297 550.852 111.938C551.456 111.573 552.143 111.391 552.914 111.391C554.07 111.391 554.979 111.755 555.641 112.484C556.307 113.214 556.641 114.247 556.641 115.586V116.508H551.258C551.331 117.06 551.549 117.503 551.914 117.836C552.284 118.169 552.75 118.336 553.312 118.336C554.182 118.336 554.862 118.021 555.352 117.391L556.461 118.633C556.122 119.112 555.664 119.487 555.086 119.758C554.508 120.023 553.867 120.156 553.164 120.156ZM552.906 113.219C552.458 113.219 552.094 113.37 551.812 113.672C551.536 113.974 551.359 114.406 551.281 114.969H554.422V114.789C554.411 114.289 554.276 113.904 554.016 113.633C553.755 113.357 553.385 113.219 552.906 113.219ZM560.008 111.547L560.078 112.523C560.682 111.768 561.492 111.391 562.508 111.391C563.404 111.391 564.07 111.654 564.508 112.18C564.945 112.706 565.169 113.492 565.18 114.539V120H562.922V114.594C562.922 114.115 562.818 113.768 562.609 113.555C562.401 113.336 562.055 113.227 561.57 113.227C560.935 113.227 560.458 113.497 560.141 114.039V120H557.883V111.547H560.008ZM569.602 109.469V111.547H571.047V113.203H569.602V117.422C569.602 117.734 569.661 117.958 569.781 118.094C569.901 118.229 570.13 118.297 570.469 118.297C570.719 118.297 570.94 118.279 571.133 118.242V119.953C570.69 120.089 570.234 120.156 569.766 120.156C568.182 120.156 567.375 119.357 567.344 117.758V113.203H566.109V111.547H567.344V109.469H569.602ZM576.883 117.664C576.883 117.388 576.745 117.172 576.469 117.016C576.198 116.854 575.76 116.711 575.156 116.586C573.146 116.164 572.141 115.31 572.141 114.023C572.141 113.273 572.451 112.648 573.07 112.148C573.695 111.643 574.51 111.391 575.516 111.391C576.589 111.391 577.445 111.643 578.086 112.148C578.732 112.654 579.055 113.31 579.055 114.117H576.797C576.797 113.794 576.693 113.529 576.484 113.32C576.276 113.107 575.951 113 575.508 113C575.128 113 574.833 113.086 574.625 113.258C574.417 113.43 574.312 113.648 574.312 113.914C574.312 114.164 574.43 114.367 574.664 114.523C574.904 114.674 575.305 114.807 575.867 114.922C576.43 115.031 576.904 115.156 577.289 115.297C578.482 115.734 579.078 116.492 579.078 117.57C579.078 118.341 578.747 118.966 578.086 119.445C577.424 119.919 576.57 120.156 575.523 120.156C574.815 120.156 574.185 120.031 573.633 119.781C573.086 119.526 572.656 119.18 572.344 118.742C572.031 118.299 571.875 117.823 571.875 117.312H574.016C574.036 117.714 574.185 118.021 574.461 118.234C574.737 118.448 575.107 118.555 575.57 118.555C576.003 118.555 576.328 118.474 576.547 118.312C576.771 118.146 576.883 117.93 576.883 117.664ZM493.32 139V127.625H496.531C497.521 127.625 498.396 127.844 499.156 128.281C499.917 128.719 500.503 129.341 500.914 130.148C501.331 130.956 501.542 131.883 501.547 132.93V133.656C501.547 134.729 501.339 135.669 500.922 136.477C500.51 137.284 499.919 137.904 499.148 138.336C498.383 138.768 497.49 138.99 496.469 139H493.32ZM494.82 128.859V137.773H496.398C497.555 137.773 498.453 137.414 499.094 136.695C499.74 135.977 500.062 134.953 500.062 133.625V132.961C500.062 131.669 499.758 130.667 499.148 129.953C498.544 129.234 497.685 128.87 496.57 128.859H494.82ZM507.102 139.156C505.956 139.156 505.023 138.781 504.305 138.031C503.586 137.276 503.227 136.268 503.227 135.008V134.742C503.227 133.904 503.385 133.156 503.703 132.5C504.026 131.839 504.474 131.323 505.047 130.953C505.625 130.578 506.25 130.391 506.922 130.391C508.021 130.391 508.875 130.753 509.484 131.477C510.094 132.201 510.398 133.237 510.398 134.586V135.188H504.672C504.693 136.021 504.935 136.695 505.398 137.211C505.867 137.721 506.461 137.977 507.18 137.977C507.69 137.977 508.122 137.872 508.477 137.664C508.831 137.456 509.141 137.18 509.406 136.836L510.289 137.523C509.581 138.612 508.518 139.156 507.102 139.156ZM506.922 131.578C506.339 131.578 505.849 131.792 505.453 132.219C505.057 132.641 504.812 133.234 504.719 134H508.953V133.891C508.911 133.156 508.714 132.589 508.359 132.188C508.005 131.781 507.526 131.578 506.922 131.578ZM511.727 134.703C511.727 133.406 512.034 132.365 512.648 131.578C513.263 130.786 514.068 130.391 515.062 130.391C516.052 130.391 516.836 130.729 517.414 131.406V127H518.859V139H517.531L517.461 138.094C516.883 138.802 516.078 139.156 515.047 139.156C514.068 139.156 513.268 138.755 512.648 137.953C512.034 137.151 511.727 136.104 511.727 134.812V134.703ZM513.172 134.867C513.172 135.826 513.37 136.576 513.766 137.117C514.161 137.659 514.708 137.93 515.406 137.93C516.323 137.93 516.992 137.518 517.414 136.695V132.812C516.982 132.016 516.318 131.617 515.422 131.617C514.714 131.617 514.161 131.891 513.766 132.438C513.37 132.984 513.172 133.794 513.172 134.867ZM522.68 139H521.234V130.547H522.68V139ZM521.117 128.305C521.117 128.07 521.188 127.872 521.328 127.711C521.474 127.549 521.688 127.469 521.969 127.469C522.25 127.469 522.464 127.549 522.609 127.711C522.755 127.872 522.828 128.07 522.828 128.305C522.828 128.539 522.755 128.734 522.609 128.891C522.464 129.047 522.25 129.125 521.969 129.125C521.688 129.125 521.474 129.047 521.328 128.891C521.188 128.734 521.117 128.539 521.117 128.305ZM528.391 137.977C528.906 137.977 529.357 137.82 529.742 137.508C530.128 137.195 530.341 136.805 530.383 136.336H531.75C531.724 136.82 531.557 137.281 531.25 137.719C530.943 138.156 530.531 138.505 530.016 138.766C529.505 139.026 528.964 139.156 528.391 139.156C527.24 139.156 526.323 138.773 525.641 138.008C524.964 137.237 524.625 136.185 524.625 134.852V134.609C524.625 133.786 524.776 133.055 525.078 132.414C525.38 131.773 525.812 131.276 526.375 130.922C526.943 130.568 527.612 130.391 528.383 130.391C529.331 130.391 530.117 130.674 530.742 131.242C531.372 131.81 531.708 132.547 531.75 133.453H530.383C530.341 132.906 530.133 132.458 529.758 132.109C529.388 131.755 528.93 131.578 528.383 131.578C527.648 131.578 527.078 131.844 526.672 132.375C526.271 132.901 526.07 133.664 526.07 134.664V134.938C526.07 135.911 526.271 136.661 526.672 137.188C527.073 137.714 527.646 137.977 528.391 137.977ZM538.594 139C538.51 138.833 538.443 138.536 538.391 138.109C537.719 138.807 536.917 139.156 535.984 139.156C535.151 139.156 534.466 138.922 533.93 138.453C533.398 137.979 533.133 137.38 533.133 136.656C533.133 135.776 533.466 135.094 534.133 134.609C534.805 134.12 535.747 133.875 536.961 133.875H538.367V133.211C538.367 132.706 538.216 132.305 537.914 132.008C537.612 131.706 537.167 131.555 536.578 131.555C536.062 131.555 535.63 131.685 535.281 131.945C534.932 132.206 534.758 132.521 534.758 132.891H533.305C533.305 132.469 533.453 132.062 533.75 131.672C534.052 131.276 534.458 130.964 534.969 130.734C535.484 130.505 536.049 130.391 536.664 130.391C537.638 130.391 538.401 130.635 538.953 131.125C539.505 131.609 539.792 132.279 539.812 133.133V137.023C539.812 137.799 539.911 138.417 540.109 138.875V139H538.594ZM536.195 137.898C536.648 137.898 537.078 137.781 537.484 137.547C537.891 137.312 538.185 137.008 538.367 136.633V134.898H537.234C535.464 134.898 534.578 135.417 534.578 136.453C534.578 136.906 534.729 137.26 535.031 137.516C535.333 137.771 535.721 137.898 536.195 137.898ZM544.039 128.5V130.547H545.617V131.664H544.039V136.906C544.039 137.245 544.109 137.5 544.25 137.672C544.391 137.839 544.63 137.922 544.969 137.922C545.135 137.922 545.365 137.891 545.656 137.828V139C545.276 139.104 544.906 139.156 544.547 139.156C543.901 139.156 543.414 138.961 543.086 138.57C542.758 138.18 542.594 137.625 542.594 136.906V131.664H541.055V130.547H542.594V128.5H544.039ZM550.82 139.156C549.674 139.156 548.742 138.781 548.023 138.031C547.305 137.276 546.945 136.268 546.945 135.008V134.742C546.945 133.904 547.104 133.156 547.422 132.5C547.745 131.839 548.193 131.323 548.766 130.953C549.344 130.578 549.969 130.391 550.641 130.391C551.74 130.391 552.594 130.753 553.203 131.477C553.812 132.201 554.117 133.237 554.117 134.586V135.188H548.391C548.411 136.021 548.654 136.695 549.117 137.211C549.586 137.721 550.18 137.977 550.898 137.977C551.409 137.977 551.841 137.872 552.195 137.664C552.549 137.456 552.859 137.18 553.125 136.836L554.008 137.523C553.299 138.612 552.237 139.156 550.82 139.156ZM550.641 131.578C550.057 131.578 549.568 131.792 549.172 132.219C548.776 132.641 548.531 133.234 548.438 134H552.672V133.891C552.63 133.156 552.432 132.589 552.078 132.188C551.724 131.781 551.245 131.578 550.641 131.578ZM555.445 134.703C555.445 133.406 555.753 132.365 556.367 131.578C556.982 130.786 557.786 130.391 558.781 130.391C559.771 130.391 560.555 130.729 561.133 131.406V127H562.578V139H561.25L561.18 138.094C560.602 138.802 559.797 139.156 558.766 139.156C557.786 139.156 556.987 138.755 556.367 137.953C555.753 137.151 555.445 136.104 555.445 134.812V134.703ZM556.891 134.867C556.891 135.826 557.089 136.576 557.484 137.117C557.88 137.659 558.427 137.93 559.125 137.93C560.042 137.93 560.711 137.518 561.133 136.695V132.812C560.701 132.016 560.036 131.617 559.141 131.617C558.432 131.617 557.88 131.891 557.484 132.438C557.089 132.984 556.891 133.794 556.891 134.867ZM577.766 139H576.258V133.742H570.523V139H569.023V127.625H570.523V132.516H576.258V127.625H577.766V139ZM585.422 139C585.339 138.833 585.271 138.536 585.219 138.109C584.547 138.807 583.745 139.156 582.812 139.156C581.979 139.156 581.294 138.922 580.758 138.453C580.227 137.979 579.961 137.38 579.961 136.656C579.961 135.776 580.294 135.094 580.961 134.609C581.633 134.12 582.576 133.875 583.789 133.875H585.195V133.211C585.195 132.706 585.044 132.305 584.742 132.008C584.44 131.706 583.995 131.555 583.406 131.555C582.891 131.555 582.458 131.685 582.109 131.945C581.76 132.206 581.586 132.521 581.586 132.891H580.133C580.133 132.469 580.281 132.062 580.578 131.672C580.88 131.276 581.286 130.964 581.797 130.734C582.312 130.505 582.878 130.391 583.492 130.391C584.466 130.391 585.229 130.635 585.781 131.125C586.333 131.609 586.62 132.279 586.641 133.133V137.023C586.641 137.799 586.74 138.417 586.938 138.875V139H585.422ZM583.023 137.898C583.477 137.898 583.906 137.781 584.312 137.547C584.719 137.312 585.013 137.008 585.195 136.633V134.898H584.062C582.292 134.898 581.406 135.417 581.406 136.453C581.406 136.906 581.557 137.26 581.859 137.516C582.161 137.771 582.549 137.898 583.023 137.898ZM592.992 131.844C592.773 131.807 592.536 131.789 592.281 131.789C591.333 131.789 590.69 132.193 590.352 133V139H588.906V130.547H590.312L590.336 131.523C590.81 130.768 591.482 130.391 592.352 130.391C592.633 130.391 592.846 130.427 592.992 130.5V131.844ZM593.82 134.703C593.82 133.406 594.128 132.365 594.742 131.578C595.357 130.786 596.161 130.391 597.156 130.391C598.146 130.391 598.93 130.729 599.508 131.406V127H600.953V139H599.625L599.555 138.094C598.977 138.802 598.172 139.156 597.141 139.156C596.161 139.156 595.362 138.755 594.742 137.953C594.128 137.151 593.82 136.104 593.82 134.812V134.703ZM595.266 134.867C595.266 135.826 595.464 136.576 595.859 137.117C596.255 137.659 596.802 137.93 597.5 137.93C598.417 137.93 599.086 137.518 599.508 136.695V132.812C599.076 132.016 598.411 131.617 597.516 131.617C596.807 131.617 596.255 131.891 595.859 132.438C595.464 132.984 595.266 133.794 595.266 134.867ZM610.688 137.008L612.312 130.547H613.758L611.297 139H610.125L608.07 132.594L606.07 139H604.898L602.445 130.547H603.883L605.547 136.875L607.516 130.547H608.68L610.688 137.008ZM620.453 139C620.37 138.833 620.302 138.536 620.25 138.109C619.578 138.807 618.776 139.156 617.844 139.156C617.01 139.156 616.326 138.922 615.789 138.453C615.258 137.979 614.992 137.38 614.992 136.656C614.992 135.776 615.326 135.094 615.992 134.609C616.664 134.12 617.607 133.875 618.82 133.875H620.227V133.211C620.227 132.706 620.076 132.305 619.773 132.008C619.471 131.706 619.026 131.555 618.438 131.555C617.922 131.555 617.49 131.685 617.141 131.945C616.792 132.206 616.617 132.521 616.617 132.891H615.164C615.164 132.469 615.312 132.062 615.609 131.672C615.911 131.276 616.318 130.964 616.828 130.734C617.344 130.505 617.909 130.391 618.523 130.391C619.497 130.391 620.26 130.635 620.812 131.125C621.365 131.609 621.651 132.279 621.672 133.133V137.023C621.672 137.799 621.771 138.417 621.969 138.875V139H620.453ZM618.055 137.898C618.508 137.898 618.938 137.781 619.344 137.547C619.75 137.312 620.044 137.008 620.227 136.633V134.898H619.094C617.323 134.898 616.438 135.417 616.438 136.453C616.438 136.906 616.589 137.26 616.891 137.516C617.193 137.771 617.581 137.898 618.055 137.898ZM628.023 131.844C627.805 131.807 627.568 131.789 627.312 131.789C626.365 131.789 625.721 132.193 625.383 133V139H623.938V130.547H625.344L625.367 131.523C625.841 130.768 626.513 130.391 627.383 130.391C627.664 130.391 627.878 130.427 628.023 130.5V131.844ZM632.711 139.156C631.565 139.156 630.633 138.781 629.914 138.031C629.195 137.276 628.836 136.268 628.836 135.008V134.742C628.836 133.904 628.995 133.156 629.312 132.5C629.635 131.839 630.083 131.323 630.656 130.953C631.234 130.578 631.859 130.391 632.531 130.391C633.63 130.391 634.484 130.753 635.094 131.477C635.703 132.201 636.008 133.237 636.008 134.586V135.188H630.281C630.302 136.021 630.544 136.695 631.008 137.211C631.477 137.721 632.07 137.977 632.789 137.977C633.299 137.977 633.732 137.872 634.086 137.664C634.44 137.456 634.75 137.18 635.016 136.836L635.898 137.523C635.19 138.612 634.128 139.156 632.711 139.156ZM632.531 131.578C631.948 131.578 631.458 131.792 631.062 132.219C630.667 132.641 630.422 133.234 630.328 134H634.562V133.891C634.521 133.156 634.323 132.589 633.969 132.188C633.615 131.781 633.135 131.578 632.531 131.578Z" fill="black"/>
<path d="M204.016 120V108.625H208C209.38 108.625 210.427 108.891 211.141 109.422C211.854 109.948 212.211 110.721 212.211 111.742C212.211 112.299 212.068 112.792 211.781 113.219C211.495 113.641 211.096 113.951 210.586 114.148C211.169 114.294 211.628 114.589 211.961 115.031C212.299 115.474 212.469 116.016 212.469 116.656C212.469 117.75 212.12 118.578 211.422 119.141C210.724 119.703 209.729 119.99 208.438 120H204.016ZM206.359 115.047V118.117H208.367C208.919 118.117 209.349 117.987 209.656 117.727C209.969 117.461 210.125 117.096 210.125 116.633C210.125 115.591 209.586 115.062 208.508 115.047H206.359ZM206.359 113.391H208.094C209.276 113.37 209.867 112.898 209.867 111.977C209.867 111.461 209.716 111.091 209.414 110.867C209.117 110.638 208.646 110.523 208 110.523H206.359V113.391ZM217.977 120.156C216.737 120.156 215.727 119.776 214.945 119.016C214.169 118.255 213.781 117.242 213.781 115.977V115.758C213.781 114.909 213.945 114.151 214.273 113.484C214.602 112.812 215.065 112.297 215.664 111.938C216.268 111.573 216.956 111.391 217.727 111.391C218.883 111.391 219.792 111.755 220.453 112.484C221.12 113.214 221.453 114.247 221.453 115.586V116.508H216.07C216.143 117.06 216.362 117.503 216.727 117.836C217.096 118.169 217.562 118.336 218.125 118.336C218.995 118.336 219.674 118.021 220.164 117.391L221.273 118.633C220.935 119.112 220.477 119.487 219.898 119.758C219.32 120.023 218.68 120.156 217.977 120.156ZM217.719 113.219C217.271 113.219 216.906 113.37 216.625 113.672C216.349 113.974 216.172 114.406 216.094 114.969H219.234V114.789C219.224 114.289 219.089 113.904 218.828 113.633C218.568 113.357 218.198 113.219 217.719 113.219ZM227.32 117.664C227.32 117.388 227.182 117.172 226.906 117.016C226.635 116.854 226.198 116.711 225.594 116.586C223.583 116.164 222.578 115.31 222.578 114.023C222.578 113.273 222.888 112.648 223.508 112.148C224.133 111.643 224.948 111.391 225.953 111.391C227.026 111.391 227.883 111.643 228.523 112.148C229.169 112.654 229.492 113.31 229.492 114.117H227.234C227.234 113.794 227.13 113.529 226.922 113.32C226.714 113.107 226.388 113 225.945 113C225.565 113 225.271 113.086 225.062 113.258C224.854 113.43 224.75 113.648 224.75 113.914C224.75 114.164 224.867 114.367 225.102 114.523C225.341 114.674 225.742 114.807 226.305 114.922C226.867 115.031 227.341 115.156 227.727 115.297C228.919 115.734 229.516 116.492 229.516 117.57C229.516 118.341 229.185 118.966 228.523 119.445C227.862 119.919 227.008 120.156 225.961 120.156C225.253 120.156 224.622 120.031 224.07 119.781C223.523 119.526 223.094 119.18 222.781 118.742C222.469 118.299 222.312 117.823 222.312 117.312H224.453C224.474 117.714 224.622 118.021 224.898 118.234C225.174 118.448 225.544 118.555 226.008 118.555C226.44 118.555 226.766 118.474 226.984 118.312C227.208 118.146 227.32 117.93 227.32 117.664ZM233.68 109.469V111.547H235.125V113.203H233.68V117.422C233.68 117.734 233.74 117.958 233.859 118.094C233.979 118.229 234.208 118.297 234.547 118.297C234.797 118.297 235.018 118.279 235.211 118.242V119.953C234.768 120.089 234.312 120.156 233.844 120.156C232.26 120.156 231.453 119.357 231.422 117.758V113.203H230.188V111.547H231.422V109.469H233.68ZM249.773 120H247.43V115.125H242.859V120H240.516V108.625H242.859V113.234H247.43V108.625H249.773V120ZM256.742 119.141C256.185 119.818 255.414 120.156 254.43 120.156C253.523 120.156 252.831 119.896 252.352 119.375C251.878 118.854 251.635 118.091 251.625 117.086V111.547H253.883V117.008C253.883 117.888 254.284 118.328 255.086 118.328C255.852 118.328 256.378 118.062 256.664 117.531V111.547H258.93V120H256.805L256.742 119.141ZM268.25 115.852C268.25 117.206 267.961 118.263 267.383 119.023C266.805 119.779 265.997 120.156 264.961 120.156C264.044 120.156 263.312 119.805 262.766 119.102L262.664 120H260.633V108H262.891V112.305C263.411 111.695 264.096 111.391 264.945 111.391C265.977 111.391 266.784 111.771 267.367 112.531C267.956 113.286 268.25 114.352 268.25 115.727V115.852ZM265.992 115.688C265.992 114.833 265.857 114.211 265.586 113.82C265.315 113.424 264.911 113.227 264.375 113.227C263.656 113.227 263.161 113.521 262.891 114.109V117.445C263.167 118.039 263.667 118.336 264.391 118.336C265.12 118.336 265.599 117.977 265.828 117.258C265.938 116.914 265.992 116.391 265.992 115.688ZM207.672 133.93C206.385 133.56 205.448 133.107 204.859 132.57C204.276 132.029 203.984 131.362 203.984 130.57C203.984 129.674 204.341 128.935 205.055 128.352C205.773 127.763 206.706 127.469 207.852 127.469C208.633 127.469 209.328 127.62 209.938 127.922C210.552 128.224 211.026 128.641 211.359 129.172C211.698 129.703 211.867 130.284 211.867 130.914H210.359C210.359 130.227 210.141 129.688 209.703 129.297C209.266 128.901 208.648 128.703 207.852 128.703C207.112 128.703 206.534 128.867 206.117 129.195C205.706 129.518 205.5 129.969 205.5 130.547C205.5 131.01 205.695 131.404 206.086 131.727C206.482 132.044 207.151 132.336 208.094 132.602C209.042 132.867 209.781 133.161 210.312 133.484C210.849 133.802 211.245 134.174 211.5 134.602C211.76 135.029 211.891 135.531 211.891 136.109C211.891 137.031 211.531 137.771 210.812 138.328C210.094 138.88 209.133 139.156 207.93 139.156C207.148 139.156 206.419 139.008 205.742 138.711C205.065 138.409 204.542 137.997 204.172 137.477C203.807 136.956 203.625 136.365 203.625 135.703H205.133C205.133 136.391 205.385 136.935 205.891 137.336C206.401 137.732 207.081 137.93 207.93 137.93C208.721 137.93 209.328 137.768 209.75 137.445C210.172 137.122 210.383 136.682 210.383 136.125C210.383 135.568 210.188 135.138 209.797 134.836C209.406 134.529 208.698 134.227 207.672 133.93ZM215.039 131.57C215.68 130.784 216.513 130.391 217.539 130.391C219.326 130.391 220.227 131.398 220.242 133.414V139H218.797V133.406C218.792 132.797 218.651 132.346 218.375 132.055C218.104 131.763 217.68 131.617 217.102 131.617C216.633 131.617 216.221 131.742 215.867 131.992C215.513 132.242 215.237 132.57 215.039 132.977V139H213.594V127H215.039V131.57ZM227.625 139C227.542 138.833 227.474 138.536 227.422 138.109C226.75 138.807 225.948 139.156 225.016 139.156C224.182 139.156 223.497 138.922 222.961 138.453C222.43 137.979 222.164 137.38 222.164 136.656C222.164 135.776 222.497 135.094 223.164 134.609C223.836 134.12 224.779 133.875 225.992 133.875H227.398V133.211C227.398 132.706 227.247 132.305 226.945 132.008C226.643 131.706 226.198 131.555 225.609 131.555C225.094 131.555 224.661 131.685 224.312 131.945C223.964 132.206 223.789 132.521 223.789 132.891H222.336C222.336 132.469 222.484 132.062 222.781 131.672C223.083 131.276 223.49 130.964 224 130.734C224.516 130.505 225.081 130.391 225.695 130.391C226.669 130.391 227.432 130.635 227.984 131.125C228.536 131.609 228.823 132.279 228.844 133.133V137.023C228.844 137.799 228.943 138.417 229.141 138.875V139H227.625ZM225.227 137.898C225.68 137.898 226.109 137.781 226.516 137.547C226.922 137.312 227.216 137.008 227.398 136.633V134.898H226.266C224.495 134.898 223.609 135.417 223.609 136.453C223.609 136.906 223.76 137.26 224.062 137.516C224.365 137.771 224.753 137.898 225.227 137.898ZM235.195 131.844C234.977 131.807 234.74 131.789 234.484 131.789C233.536 131.789 232.893 132.193 232.555 133V139H231.109V130.547H232.516L232.539 131.523C233.013 130.768 233.685 130.391 234.555 130.391C234.836 130.391 235.049 130.427 235.195 130.5V131.844ZM239.883 139.156C238.737 139.156 237.805 138.781 237.086 138.031C236.367 137.276 236.008 136.268 236.008 135.008V134.742C236.008 133.904 236.167 133.156 236.484 132.5C236.807 131.839 237.255 131.323 237.828 130.953C238.406 130.578 239.031 130.391 239.703 130.391C240.802 130.391 241.656 130.753 242.266 131.477C242.875 132.201 243.18 133.237 243.18 134.586V135.188H237.453C237.474 136.021 237.716 136.695 238.18 137.211C238.648 137.721 239.242 137.977 239.961 137.977C240.471 137.977 240.904 137.872 241.258 137.664C241.612 137.456 241.922 137.18 242.188 136.836L243.07 137.523C242.362 138.612 241.299 139.156 239.883 139.156ZM239.703 131.578C239.12 131.578 238.63 131.792 238.234 132.219C237.839 132.641 237.594 133.234 237.5 134H241.734V133.891C241.693 133.156 241.495 132.589 241.141 132.188C240.786 131.781 240.307 131.578 239.703 131.578ZM244.508 134.703C244.508 133.406 244.815 132.365 245.43 131.578C246.044 130.786 246.849 130.391 247.844 130.391C248.833 130.391 249.617 130.729 250.195 131.406V127H251.641V139H250.312L250.242 138.094C249.664 138.802 248.859 139.156 247.828 139.156C246.849 139.156 246.049 138.755 245.43 137.953C244.815 137.151 244.508 136.104 244.508 134.812V134.703ZM245.953 134.867C245.953 135.826 246.151 136.576 246.547 137.117C246.943 137.659 247.49 137.93 248.188 137.93C249.104 137.93 249.773 137.518 250.195 136.695V132.812C249.763 132.016 249.099 131.617 248.203 131.617C247.495 131.617 246.943 131.891 246.547 132.438C246.151 132.984 245.953 133.794 245.953 134.867ZM258.086 139V127.625H261.805C263.039 127.625 263.966 127.88 264.586 128.391C265.211 128.901 265.523 129.656 265.523 130.656C265.523 131.188 265.372 131.659 265.07 132.07C264.768 132.477 264.357 132.792 263.836 133.016C264.451 133.188 264.935 133.516 265.289 134C265.648 134.479 265.828 135.052 265.828 135.719C265.828 136.74 265.497 137.542 264.836 138.125C264.174 138.708 263.24 139 262.031 139H258.086ZM259.586 133.68V137.773H262.062C262.76 137.773 263.31 137.594 263.711 137.234C264.117 136.87 264.32 136.37 264.32 135.734C264.32 134.365 263.576 133.68 262.086 133.68H259.586ZM259.586 132.477H261.852C262.508 132.477 263.031 132.312 263.422 131.984C263.818 131.656 264.016 131.211 264.016 130.648C264.016 130.023 263.833 129.57 263.469 129.289C263.104 129.003 262.549 128.859 261.805 128.859H259.586V132.477ZM270.594 136.883L272.562 130.547H274.109L270.711 140.305C270.185 141.711 269.349 142.414 268.203 142.414L267.93 142.391L267.391 142.289V141.117L267.781 141.148C268.271 141.148 268.651 141.049 268.922 140.852C269.198 140.654 269.424 140.292 269.602 139.766L269.922 138.906L266.906 130.547H268.484L270.594 136.883ZM288.352 133.68C288.352 134.794 288.164 135.768 287.789 136.602C287.414 137.43 286.883 138.062 286.195 138.5C285.508 138.938 284.706 139.156 283.789 139.156C282.893 139.156 282.099 138.938 281.406 138.5C280.714 138.057 280.174 137.43 279.789 136.617C279.409 135.799 279.214 134.854 279.203 133.781V132.961C279.203 131.867 279.393 130.901 279.773 130.062C280.154 129.224 280.69 128.583 281.383 128.141C282.081 127.693 282.878 127.469 283.773 127.469C284.685 127.469 285.487 127.69 286.18 128.133C286.878 128.57 287.414 129.208 287.789 130.047C288.164 130.88 288.352 131.852 288.352 132.961V133.68ZM286.859 132.945C286.859 131.596 286.589 130.562 286.047 129.844C285.505 129.12 284.747 128.758 283.773 128.758C282.826 128.758 282.078 129.12 281.531 129.844C280.99 130.562 280.711 131.562 280.695 132.844V133.68C280.695 134.987 280.969 136.016 281.516 136.766C282.068 137.51 282.826 137.883 283.789 137.883C284.758 137.883 285.508 137.531 286.039 136.828C286.57 136.12 286.844 135.107 286.859 133.789V132.945ZM294.461 131.844C294.242 131.807 294.005 131.789 293.75 131.789C292.802 131.789 292.159 132.193 291.82 133V139H290.375V130.547H291.781L291.805 131.523C292.279 130.768 292.951 130.391 293.82 130.391C294.102 130.391 294.315 130.427 294.461 130.5V131.844ZM295.297 134.703C295.297 133.385 295.602 132.339 296.211 131.562C296.82 130.781 297.628 130.391 298.633 130.391C299.664 130.391 300.469 130.755 301.047 131.484L301.117 130.547H302.438V138.797C302.438 139.891 302.112 140.753 301.461 141.383C300.815 142.013 299.945 142.328 298.852 142.328C298.242 142.328 297.646 142.198 297.062 141.938C296.479 141.677 296.034 141.32 295.727 140.867L296.477 140C297.096 140.766 297.854 141.148 298.75 141.148C299.453 141.148 300 140.951 300.391 140.555C300.786 140.159 300.984 139.602 300.984 138.883V138.156C300.406 138.823 299.617 139.156 298.617 139.156C297.628 139.156 296.826 138.758 296.211 137.961C295.602 137.164 295.297 136.078 295.297 134.703ZM296.75 134.867C296.75 135.82 296.945 136.57 297.336 137.117C297.727 137.659 298.273 137.93 298.977 137.93C299.888 137.93 300.557 137.516 300.984 136.688V132.828C300.542 132.021 299.878 131.617 298.992 131.617C298.289 131.617 297.74 131.891 297.344 132.438C296.948 132.984 296.75 133.794 296.75 134.867Z" fill="black"/>
<path d="M491.5 216.42C491.67 213.1 494.51 210.5 497.95 210.5H644.89C648.33 210.5 651.17 213.1 651.34 216.42L651.5 252.23C651.5 253.9 650.8 255.51 649.55 256.69C648.31 257.86 646.63 258.5 644.89 258.45H497.95C496.24 258.45 494.6 257.8 493.39 256.63C492.18 255.46 491.5 253.88 491.5 252.23V216.42ZM510.85 247.09C510.85 244.08 508.33 241.64 505.21 241.64C502.09 241.64 499.56 244.08 499.56 247.09C499.56 250.1 502.09 252.54 505.21 252.54C508.33 252.54 510.85 250.1 510.85 247.09ZM607.63 246.62C606.65 246.62 605.85 247.39 605.85 248.33C605.85 249.28 606.65 250.05 607.63 250.05H639.89C640.87 250.05 641.66 249.28 641.66 248.33C641.66 247.39 640.87 246.62 639.89 246.62H607.63ZM607.63 240.7C606.65 240.7 605.85 241.47 605.85 242.42C605.85 243.36 606.65 244.13 607.63 244.13H639.89C640.87 244.13 641.66 243.36 641.66 242.42C641.66 241.47 640.87 240.7 639.89 240.7H607.63ZM607.63 234.63C606.65 234.63 605.85 235.4 605.85 236.34C605.85 237.29 606.65 238.06 607.63 238.06H639.89C640.87 238.06 641.66 237.29 641.66 236.34C641.66 235.4 640.87 234.63 639.89 234.63H607.63Z" fill="#F0A30A" stroke="#BD7000" stroke-miterlimit="10"/>
<path d="M491.5 275.42C491.67 272.1 494.51 269.5 497.95 269.5H644.89C648.33 269.5 651.17 272.1 651.34 275.42L651.5 311.23C651.5 312.9 650.8 314.51 649.55 315.69C648.31 316.86 646.63 317.5 644.89 317.45H497.95C496.24 317.45 494.6 316.8 493.39 315.63C492.18 314.46 491.5 312.88 491.5 311.23V275.42ZM510.85 306.09C510.85 303.08 508.33 300.64 505.21 300.64C502.09 300.64 499.56 303.08 499.56 306.09C499.56 309.1 502.09 311.54 505.21 311.54C508.33 311.54 510.85 309.1 510.85 306.09ZM607.63 305.62C606.65 305.62 605.85 306.39 605.85 307.33C605.85 308.28 606.65 309.05 607.63 309.05H639.89C640.87 309.05 641.66 308.28 641.66 307.33C641.66 306.39 640.87 305.62 639.89 305.62H607.63ZM607.63 299.7C606.65 299.7 605.85 300.47 605.85 301.42C605.85 302.36 606.65 303.13 607.63 303.13H639.89C640.87 303.13 641.66 302.36 641.66 301.42C641.66 300.47 640.87 299.7 639.89 299.7H607.63ZM607.63 293.63C606.65 293.63 605.85 294.4 605.85 295.34C605.85 296.29 606.65 297.06 607.63 297.06H639.89C640.87 297.06 641.66 296.29 641.66 295.34C641.66 294.4 640.87 293.63 639.89 293.63H607.63Z" fill="#F0A30A" stroke="#BD7000" stroke-miterlimit="10"/>
<path d="M490.5 334.42C490.67 331.1 493.51 328.5 496.95 328.5H643.89C647.33 328.5 650.17 331.1 650.34 334.42L650.5 370.23C650.5 371.9 649.8 373.51 648.55 374.69C647.31 375.86 645.63 376.5 643.89 376.45H496.95C495.24 376.45 493.6 375.8 492.39 374.63C491.18 373.46 490.5 371.88 490.5 370.23V334.42ZM509.85 365.09C509.85 362.08 507.33 359.64 504.21 359.64C501.09 359.64 498.56 362.08 498.56 365.09C498.56 368.1 501.09 370.54 504.21 370.54C507.33 370.54 509.85 368.1 509.85 365.09ZM606.63 364.62C605.65 364.62 604.85 365.39 604.85 366.33C604.85 367.28 605.65 368.05 606.63 368.05H638.89C639.87 368.05 640.66 367.28 640.66 366.33C640.66 365.39 639.87 364.62 638.89 364.62H606.63ZM606.63 358.7C605.65 358.7 604.85 359.47 604.85 360.42C604.85 361.36 605.65 362.13 606.63 362.13H638.89C639.87 362.13 640.66 361.36 640.66 360.42C640.66 359.47 639.87 358.7 638.89 358.7H606.63ZM606.63 352.63C605.65 352.63 604.85 353.4 604.85 354.34C604.85 355.29 605.65 356.06 606.63 356.06H638.89C639.87 356.06 640.66 355.29 640.66 354.34C640.66 353.4 639.87 352.63 638.89 352.63H606.63Z" fill="#F0A30A" stroke="#BD7000" stroke-miterlimit="10"/>
<path d="M490.5 391.42C490.67 388.1 493.51 385.5 496.95 385.5H643.89C647.33 385.5 650.17 388.1 650.34 391.42L650.5 427.23C650.5 428.9 649.8 430.51 648.55 431.69C647.31 432.86 645.63 433.5 643.89 433.45H496.95C495.24 433.45 493.6 432.8 492.39 431.63C491.18 430.46 490.5 428.88 490.5 427.23V391.42ZM509.85 422.09C509.85 419.08 507.33 416.64 504.21 416.64C501.09 416.64 498.56 419.08 498.56 422.09C498.56 425.1 501.09 427.54 504.21 427.54C507.33 427.54 509.85 425.1 509.85 422.09ZM606.63 421.62C605.65 421.62 604.85 422.39 604.85 423.33C604.85 424.28 605.65 425.05 606.63 425.05H638.89C639.87 425.05 640.66 424.28 640.66 423.33C640.66 422.39 639.87 421.62 638.89 421.62H606.63ZM606.63 415.7C605.65 415.7 604.85 416.47 604.85 417.42C604.85 418.36 605.65 419.13 606.63 419.13H638.89C639.87 419.13 640.66 418.36 640.66 417.42C640.66 416.47 639.87 415.7 638.89 415.7H606.63ZM606.63 409.63C605.65 409.63 604.85 410.4 604.85 411.34C604.85 412.29 605.65 413.06 606.63 413.06H638.89C639.87 413.06 640.66 412.29 640.66 411.34C640.66 410.4 639.87 409.63 638.89 409.63H606.63Z" fill="#00188D" stroke="black" stroke-miterlimit="10"/>
<path d="M686.476 243.263C686.292 244.842 685.707 246.062 684.723 246.923C683.745 247.778 682.443 248.205 680.816 248.205C679.052 248.205 677.637 247.573 676.571 246.308C675.511 245.043 674.981 243.352 674.981 241.232V239.797C674.981 238.409 675.228 237.189 675.72 236.136C676.219 235.083 676.923 234.277 677.832 233.716C678.741 233.149 679.794 232.865 680.99 232.865C682.576 232.865 683.848 233.31 684.805 234.198C685.762 235.08 686.319 236.304 686.476 237.869H684.497C684.326 236.68 683.954 235.818 683.379 235.285C682.812 234.752 682.016 234.485 680.99 234.485C679.732 234.485 678.745 234.95 678.027 235.88C677.316 236.81 676.96 238.132 676.96 239.848V241.294C676.96 242.914 677.299 244.203 677.976 245.16C678.652 246.117 679.599 246.595 680.816 246.595C681.91 246.595 682.747 246.349 683.328 245.857C683.916 245.358 684.306 244.493 684.497 243.263H686.476ZM690.772 238.249C691.613 237.216 692.707 236.7 694.054 236.7C696.398 236.7 697.581 238.023 697.602 240.668V248H695.705V240.658C695.698 239.858 695.513 239.267 695.151 238.884C694.795 238.501 694.238 238.31 693.479 238.31C692.864 238.31 692.324 238.474 691.859 238.802C691.395 239.13 691.032 239.561 690.772 240.094V248H688.875V232.25H690.772V238.249ZM705.805 238.607C705.518 238.56 705.207 238.536 704.872 238.536C703.627 238.536 702.783 239.065 702.339 240.125V248H700.442V236.905H702.288L702.318 238.187C702.94 237.196 703.822 236.7 704.964 236.7C705.333 236.7 705.613 236.748 705.805 236.844V238.607ZM706.851 242.35C706.851 241.263 707.062 240.286 707.486 239.417C707.917 238.549 708.512 237.879 709.271 237.408C710.036 236.936 710.908 236.7 711.885 236.7C713.396 236.7 714.616 237.223 715.546 238.269C716.482 239.315 716.951 240.706 716.951 242.442V242.576C716.951 243.656 716.742 244.626 716.325 245.488C715.915 246.342 715.324 247.009 714.551 247.487C713.786 247.966 712.904 248.205 711.906 248.205C710.402 248.205 709.182 247.682 708.245 246.636C707.315 245.59 706.851 244.206 706.851 242.483V242.35ZM708.758 242.576C708.758 243.806 709.042 244.794 709.609 245.539C710.183 246.284 710.949 246.657 711.906 246.657C712.87 246.657 713.635 246.281 714.203 245.529C714.77 244.77 715.054 243.71 715.054 242.35C715.054 241.133 714.763 240.149 714.182 239.397C713.608 238.638 712.842 238.259 711.885 238.259C710.949 238.259 710.193 238.631 709.619 239.376C709.045 240.122 708.758 241.188 708.758 242.576ZM721.114 236.905L721.165 238.136C721.979 237.179 723.076 236.7 724.457 236.7C726.008 236.7 727.064 237.295 727.625 238.484C727.994 237.951 728.473 237.521 729.061 237.192C729.655 236.864 730.356 236.7 731.163 236.7C733.596 236.7 734.833 237.989 734.875 240.566V248H732.978V240.679C732.978 239.886 732.796 239.294 732.434 238.905C732.072 238.508 731.463 238.31 730.609 238.31C729.905 238.31 729.32 238.522 728.855 238.946C728.391 239.363 728.121 239.927 728.045 240.638V248H726.138V240.73C726.138 239.117 725.349 238.31 723.77 238.31C722.525 238.31 721.674 238.84 721.216 239.899V248H719.319V236.905H721.114ZM742.35 248.205C740.846 248.205 739.622 247.713 738.679 246.729C737.735 245.737 737.264 244.415 737.264 242.76V242.412C737.264 241.311 737.472 240.33 737.889 239.469C738.313 238.601 738.901 237.924 739.653 237.438C740.412 236.946 741.232 236.7 742.114 236.7C743.556 236.7 744.677 237.175 745.477 238.125C746.277 239.076 746.677 240.436 746.677 242.207V242.996H739.161C739.188 244.09 739.506 244.975 740.114 245.652C740.729 246.322 741.509 246.657 742.452 246.657C743.122 246.657 743.689 246.52 744.154 246.247C744.619 245.973 745.026 245.611 745.375 245.16L746.533 246.062C745.604 247.491 744.209 248.205 742.35 248.205ZM742.114 238.259C741.348 238.259 740.706 238.539 740.186 239.1C739.667 239.653 739.345 240.433 739.222 241.438H744.78V241.294C744.725 240.33 744.465 239.585 744 239.059C743.536 238.525 742.907 238.259 742.114 238.259ZM763.534 234.137L757.351 248H755.362L761.524 234.629H753.444V233.07H763.534V234.137ZM766.559 240.515L767.318 233.07H774.967V234.824H768.928L768.477 238.895C769.208 238.464 770.039 238.249 770.968 238.249C772.329 238.249 773.409 238.7 774.208 239.602C775.008 240.498 775.408 241.711 775.408 243.242C775.408 244.78 774.991 245.994 774.157 246.882C773.33 247.764 772.171 248.205 770.681 248.205C769.362 248.205 768.285 247.839 767.451 247.108C766.617 246.376 766.142 245.365 766.026 244.073H767.82C767.937 244.927 768.241 245.573 768.733 246.011C769.225 246.441 769.875 246.657 770.681 246.657C771.563 246.657 772.253 246.356 772.752 245.754C773.258 245.153 773.511 244.322 773.511 243.263C773.511 242.265 773.238 241.465 772.691 240.863C772.151 240.255 771.43 239.951 770.527 239.951C769.7 239.951 769.051 240.132 768.579 240.494L768.077 240.904L766.559 240.515Z" fill="black"/>
<path d="M686.215 302.263C686.03 303.842 685.446 305.062 684.461 305.923C683.484 306.778 682.182 307.205 680.555 307.205C678.791 307.205 677.376 306.573 676.31 305.308C675.25 304.043 674.72 302.352 674.72 300.232V298.797C674.72 297.409 674.966 296.189 675.458 295.136C675.958 294.083 676.662 293.277 677.571 292.716C678.48 292.149 679.533 291.865 680.729 291.865C682.315 291.865 683.586 292.31 684.543 293.198C685.5 294.08 686.058 295.304 686.215 296.869H684.236C684.065 295.68 683.692 294.818 683.118 294.285C682.551 293.752 681.754 293.485 680.729 293.485C679.471 293.485 678.483 293.95 677.766 294.88C677.055 295.81 676.699 297.132 676.699 298.848V300.294C676.699 301.914 677.038 303.203 677.714 304.16C678.391 305.117 679.338 305.595 680.555 305.595C681.648 305.595 682.486 305.349 683.067 304.857C683.655 304.358 684.044 303.493 684.236 302.263H686.215ZM690.511 297.249C691.352 296.216 692.446 295.7 693.792 295.7C696.137 295.7 697.32 297.023 697.34 299.668V307H695.443V299.658C695.437 298.858 695.252 298.267 694.89 297.884C694.534 297.501 693.977 297.31 693.218 297.31C692.603 297.31 692.063 297.474 691.598 297.802C691.133 298.13 690.771 298.561 690.511 299.094V307H688.614V291.25H690.511V297.249ZM705.543 297.607C705.256 297.56 704.945 297.536 704.61 297.536C703.366 297.536 702.522 298.065 702.078 299.125V307H700.181V295.905H702.026L702.057 297.187C702.679 296.196 703.561 295.7 704.703 295.7C705.072 295.7 705.352 295.748 705.543 295.844V297.607ZM706.589 301.35C706.589 300.263 706.801 299.286 707.225 298.417C707.656 297.549 708.25 296.879 709.009 296.408C709.775 295.936 710.646 295.7 711.624 295.7C713.135 295.7 714.355 296.223 715.285 297.269C716.221 298.315 716.689 299.706 716.689 301.442V301.576C716.689 302.656 716.481 303.626 716.064 304.488C715.654 305.342 715.062 306.009 714.29 306.487C713.524 306.966 712.643 307.205 711.645 307.205C710.141 307.205 708.92 306.682 707.984 305.636C707.054 304.59 706.589 303.206 706.589 301.483V301.35ZM708.497 301.576C708.497 302.806 708.78 303.794 709.348 304.539C709.922 305.284 710.688 305.657 711.645 305.657C712.608 305.657 713.374 305.281 713.941 304.529C714.509 303.77 714.792 302.71 714.792 301.35C714.792 300.133 714.502 299.149 713.921 298.397C713.347 297.638 712.581 297.259 711.624 297.259C710.688 297.259 709.932 297.631 709.358 298.376C708.784 299.122 708.497 300.188 708.497 301.576ZM720.853 295.905L720.904 297.136C721.717 296.179 722.814 295.7 724.195 295.7C725.747 295.7 726.803 296.295 727.364 297.484C727.733 296.951 728.211 296.521 728.799 296.192C729.394 295.864 730.095 295.7 730.901 295.7C733.335 295.7 734.572 296.989 734.613 299.566V307H732.716V299.679C732.716 298.886 732.535 298.294 732.173 297.905C731.811 297.508 731.202 297.31 730.348 297.31C729.644 297.31 729.059 297.522 728.594 297.946C728.129 298.363 727.859 298.927 727.784 299.638V307H725.877V299.73C725.877 298.117 725.087 297.31 723.508 297.31C722.264 297.31 721.413 297.84 720.955 298.899V307H719.058V295.905H720.853ZM742.088 307.205C740.584 307.205 739.361 306.713 738.417 305.729C737.474 304.737 737.002 303.415 737.002 301.76V301.412C737.002 300.311 737.211 299.33 737.628 298.469C738.052 297.601 738.64 296.924 739.392 296.438C740.15 295.946 740.971 295.7 741.853 295.7C743.295 295.7 744.416 296.175 745.216 297.125C746.016 298.076 746.416 299.436 746.416 301.207V301.996H738.899C738.927 303.09 739.245 303.975 739.853 304.652C740.468 305.322 741.248 305.657 742.191 305.657C742.861 305.657 743.428 305.52 743.893 305.247C744.358 304.973 744.765 304.611 745.113 304.16L746.272 305.062C745.342 306.491 743.948 307.205 742.088 307.205ZM741.853 297.259C741.087 297.259 740.444 297.539 739.925 298.1C739.405 298.653 739.084 299.433 738.961 300.438H744.519V300.294C744.464 299.33 744.204 298.585 743.739 298.059C743.274 297.525 742.646 297.259 741.853 297.259ZM763.273 293.137L757.09 307H755.101L761.263 293.629H753.183V292.07H763.273V293.137ZM766.298 299.515L767.057 292.07H774.706V293.824H768.667L768.215 297.895C768.947 297.464 769.777 297.249 770.707 297.249C772.067 297.249 773.147 297.7 773.947 298.602C774.747 299.498 775.147 300.711 775.147 302.242C775.147 303.78 774.73 304.994 773.896 305.882C773.069 306.764 771.91 307.205 770.42 307.205C769.101 307.205 768.024 306.839 767.19 306.108C766.356 305.376 765.881 304.365 765.765 303.073H767.559C767.675 303.927 767.979 304.573 768.472 305.011C768.964 305.441 769.613 305.657 770.42 305.657C771.302 305.657 771.992 305.356 772.491 304.754C772.997 304.153 773.25 303.322 773.25 302.263C773.25 301.265 772.977 300.465 772.43 299.863C771.89 299.255 771.168 298.951 770.266 298.951C769.439 298.951 768.79 299.132 768.318 299.494L767.815 299.904L766.298 299.515Z" fill="black"/>
<path d="M686.215 361.263C686.03 362.842 685.446 364.062 684.461 364.923C683.484 365.778 682.182 366.205 680.555 366.205C678.791 366.205 677.376 365.573 676.31 364.308C675.25 363.043 674.72 361.352 674.72 359.232V357.797C674.72 356.409 674.966 355.189 675.458 354.136C675.958 353.083 676.662 352.277 677.571 351.716C678.48 351.149 679.533 350.865 680.729 350.865C682.315 350.865 683.586 351.31 684.543 352.198C685.5 353.08 686.058 354.304 686.215 355.869H684.236C684.065 354.68 683.692 353.818 683.118 353.285C682.551 352.752 681.754 352.485 680.729 352.485C679.471 352.485 678.483 352.95 677.766 353.88C677.055 354.81 676.699 356.132 676.699 357.848V359.294C676.699 360.914 677.038 362.203 677.714 363.16C678.391 364.117 679.338 364.595 680.555 364.595C681.648 364.595 682.486 364.349 683.067 363.857C683.655 363.358 684.044 362.493 684.236 361.263H686.215ZM690.511 356.249C691.352 355.216 692.446 354.7 693.792 354.7C696.137 354.7 697.32 356.023 697.34 358.668V366H695.443V358.658C695.437 357.858 695.252 357.267 694.89 356.884C694.534 356.501 693.977 356.31 693.218 356.31C692.603 356.31 692.063 356.474 691.598 356.802C691.133 357.13 690.771 357.561 690.511 358.094V366H688.614V350.25H690.511V356.249ZM705.543 356.607C705.256 356.56 704.945 356.536 704.61 356.536C703.366 356.536 702.522 357.065 702.078 358.125V366H700.181V354.905H702.026L702.057 356.187C702.679 355.196 703.561 354.7 704.703 354.7C705.072 354.7 705.352 354.748 705.543 354.844V356.607ZM706.589 360.35C706.589 359.263 706.801 358.286 707.225 357.417C707.656 356.549 708.25 355.879 709.009 355.408C709.775 354.936 710.646 354.7 711.624 354.7C713.135 354.7 714.355 355.223 715.285 356.269C716.221 357.315 716.689 358.706 716.689 360.442V360.576C716.689 361.656 716.481 362.626 716.064 363.488C715.654 364.342 715.062 365.009 714.29 365.487C713.524 365.966 712.643 366.205 711.645 366.205C710.141 366.205 708.92 365.682 707.984 364.636C707.054 363.59 706.589 362.206 706.589 360.483V360.35ZM708.497 360.576C708.497 361.806 708.78 362.794 709.348 363.539C709.922 364.284 710.688 364.657 711.645 364.657C712.608 364.657 713.374 364.281 713.941 363.529C714.509 362.77 714.792 361.71 714.792 360.35C714.792 359.133 714.502 358.149 713.921 357.397C713.347 356.638 712.581 356.259 711.624 356.259C710.688 356.259 709.932 356.631 709.358 357.376C708.784 358.122 708.497 359.188 708.497 360.576ZM720.853 354.905L720.904 356.136C721.717 355.179 722.814 354.7 724.195 354.7C725.747 354.7 726.803 355.295 727.364 356.484C727.733 355.951 728.211 355.521 728.799 355.192C729.394 354.864 730.095 354.7 730.901 354.7C733.335 354.7 734.572 355.989 734.613 358.566V366H732.716V358.679C732.716 357.886 732.535 357.294 732.173 356.905C731.811 356.508 731.202 356.31 730.348 356.31C729.644 356.31 729.059 356.522 728.594 356.946C728.129 357.363 727.859 357.927 727.784 358.638V366H725.877V358.73C725.877 357.117 725.087 356.31 723.508 356.31C722.264 356.31 721.413 356.84 720.955 357.899V366H719.058V354.905H720.853ZM742.088 366.205C740.584 366.205 739.361 365.713 738.417 364.729C737.474 363.737 737.002 362.415 737.002 360.76V360.412C737.002 359.311 737.211 358.33 737.628 357.469C738.052 356.601 738.64 355.924 739.392 355.438C740.15 354.946 740.971 354.7 741.853 354.7C743.295 354.7 744.416 355.175 745.216 356.125C746.016 357.076 746.416 358.436 746.416 360.207V360.996H738.899C738.927 362.09 739.245 362.975 739.853 363.652C740.468 364.322 741.248 364.657 742.191 364.657C742.861 364.657 743.428 364.52 743.893 364.247C744.358 363.973 744.765 363.611 745.113 363.16L746.272 364.062C745.342 365.491 743.948 366.205 742.088 366.205ZM741.853 356.259C741.087 356.259 740.444 356.539 739.925 357.1C739.405 357.653 739.084 358.433 738.961 359.438H744.519V359.294C744.464 358.33 744.204 357.585 743.739 357.059C743.274 356.525 742.646 356.259 741.853 356.259ZM763.273 352.137L757.09 366H755.101L761.263 352.629H753.183V351.07H763.273V352.137ZM773.435 360.986H775.506V362.534H773.435V366H771.527V362.534H764.729V361.417L771.415 351.07H773.435V360.986ZM766.882 360.986H771.527V353.665L771.302 354.075L766.882 360.986Z" fill="black"/>
<path d="M677.345 421H675.376V406.07H677.345V421ZM689.394 414.099H682.923V419.39H690.439V421H680.955V406.07H690.337V407.69H682.923V412.489H689.394V414.099ZM703.841 421H701.934V408.357L698.109 409.762V408.039L703.544 405.999H703.841V421ZM715.633 421H713.726V408.357L709.901 409.762V408.039L715.336 405.999H715.633V421Z" fill="black"/>
<path d="M198.15 333.5L189.15 338L191.4 333.5L189.15 329L198.15 333.5Z" fill="black" stroke="black" stroke-width="3" stroke-miterlimit="10"/>
<path d="M70.5 333.5H135.5" stroke="black" stroke-width="3" stroke-miterlimit="10"/>
<path d="M1.5 317.81L33.99 337.15V375.5L1.5 356.16V317.81ZM3.1 314.17L17.31 305.58L50.28 325.16L35.92 333.68L3.1 314.17ZM54.29 322.68L21.32 303.18L36.08 294.5L68.82 314.01L54.29 322.68ZM70.5 317.89V356.08L38.09 375.42V337.23L70.5 317.89Z" fill="#647687" stroke="#314354" stroke-miterlimit="10"/>
<path d="M69.5 233.5H131.5V333.5H191.4" stroke="black" stroke-width="3" stroke-miterlimit="10"/>
<path d="M0.5 216.81L32.99 236.15V274.5L0.5 255.16V216.81ZM2.1 213.17L16.31 204.58L49.28 224.16L34.92 232.68L2.1 213.17ZM53.29 221.68L20.32 202.18L35.08 193.5L67.82 213.01L53.29 221.68ZM69.5 216.89V255.08L37.09 274.42V236.23L69.5 216.89Z" fill="#76608A" stroke="#432D57" stroke-miterlimit="10"/>
<path d="M70.5 425.5H131.5V333.5H191.4" stroke="black" stroke-width="3" stroke-miterlimit="10"/>
<path d="M1.5 408.81L33.99 428.15V466.5L1.5 447.16V408.81ZM3.1 405.17L17.31 396.58L50.28 416.16L35.92 424.68L3.1 405.17ZM54.29 413.68L21.32 394.18L36.08 385.5L68.82 405.01L54.29 413.68ZM70.5 408.89V447.08L38.09 466.42V428.23L70.5 408.89Z" fill="#6D8764" stroke="#3A5431" stroke-miterlimit="10"/>
<path d="M373.5 319.5H432.5V234.5H481.4" stroke="black" stroke-width="3" stroke-miterlimit="10"/>
<path d="M488.15 234.5L479.15 239L481.4 234.5L479.15 230L488.15 234.5Z" fill="black" stroke="black" stroke-width="3" stroke-miterlimit="10"/>
<path d="M373.5 319.5H432.5V293.5H481.4" stroke="black" stroke-width="3" stroke-miterlimit="10"/>
<path d="M488.15 293.5L479.15 298L481.4 293.5L479.15 289L488.15 293.5Z" fill="black" stroke="black" stroke-width="3" stroke-miterlimit="10"/>
<path d="M373.5 319.5H432.5V352.5H480.4" stroke="black" stroke-width="3" stroke-miterlimit="10"/>
<path d="M487.15 352.5L478.15 357L480.4 352.5L478.15 348L487.15 352.5Z" fill="black" stroke="black" stroke-width="3" stroke-miterlimit="10"/>
<path d="M203.69 299.33C203.87 295.61 206.88 292.69 210.54 292.7H366.48C370.13 292.69 373.15 295.61 373.33 299.33L373.5 339.48C373.5 341.36 372.76 343.16 371.43 344.48C370.11 345.79 368.33 346.51 366.48 346.46H210.54C206.75 346.46 203.69 343.33 203.69 339.48V299.33ZM224.23 333.72C224.23 330.34 221.55 327.61 218.24 327.61C214.93 327.61 212.25 330.34 212.25 333.72C212.25 337.09 214.93 339.83 218.24 339.83C221.55 339.83 224.23 337.09 224.23 333.72ZM326.94 333.19C325.9 333.19 325.06 334.05 325.06 335.11C325.06 336.17 325.9 337.03 326.94 337.03H361.17C362.21 337.03 363.06 336.17 363.06 335.11C363.06 334.05 362.21 333.19 361.17 333.19H326.94ZM326.94 326.56C325.9 326.56 325.06 327.42 325.06 328.48C325.06 329.54 325.9 330.4 326.94 330.4H361.17C362.21 330.4 363.06 329.54 363.06 328.48C363.06 327.42 362.21 326.56 361.17 326.56H326.94ZM326.94 319.75C325.9 319.75 325.06 320.61 325.06 321.67C325.06 322.73 325.9 323.59 326.94 323.59H361.17C362.21 323.59 363.06 322.73 363.06 321.67C363.06 320.61 362.21 319.75 361.17 319.75H326.94ZM203.5 241.13C203.68 237.41 206.7 234.5 210.35 234.5H366.29C369.95 234.5 372.96 237.41 373.14 241.13L373.31 281.28C373.31 283.16 372.57 284.97 371.25 286.28C369.92 287.6 368.14 288.31 366.29 288.26H210.35C206.57 288.26 203.5 285.14 203.5 281.28V241.13ZM224.04 275.52C224.04 272.15 221.36 269.41 218.05 269.41C214.74 269.41 212.06 272.15 212.06 275.52C212.06 278.89 214.74 281.63 218.05 281.63C221.36 281.63 224.04 278.89 224.04 275.52ZM326.75 275C325.71 275 324.87 275.86 324.87 276.92C324.87 277.98 325.71 278.84 326.75 278.84H360.99C362.03 278.84 362.87 277.98 362.87 276.92C362.87 275.86 362.03 275 360.99 275H326.75ZM326.75 268.36C325.71 268.36 324.87 269.22 324.87 270.28C324.87 271.34 325.71 272.2 326.75 272.2H360.99C362.03 272.2 362.87 271.34 362.87 270.28C362.87 269.22 362.03 268.36 360.99 268.36H326.75ZM326.75 261.56C325.71 261.56 324.87 262.42 324.87 263.48C324.87 264.54 325.71 265.4 326.75 265.4H360.99C362.03 265.4 362.87 264.54 362.87 263.48C362.87 262.42 362.03 261.56 360.99 261.56H326.75ZM203.69 357.32C203.87 353.6 206.88 350.68 210.54 350.68H366.48C370.13 350.68 373.15 353.6 373.33 357.32L373.5 397.47C373.5 399.35 372.76 401.15 371.43 402.47C370.11 403.78 368.33 404.49 366.48 404.45H210.54C206.75 404.45 203.69 401.32 203.69 397.47V357.32ZM224.23 391.71C224.23 388.33 221.55 385.6 218.24 385.6C214.93 385.6 212.25 388.33 212.25 391.71C212.25 395.08 214.93 397.81 218.24 397.81C221.55 397.81 224.23 395.08 224.23 391.71ZM326.94 391.18C325.9 391.18 325.06 392.04 325.06 393.1C325.06 394.16 325.9 395.02 326.94 395.02H361.17C362.21 395.02 363.06 394.16 363.06 393.1C363.06 392.04 362.21 391.18 361.17 391.18H326.94ZM326.94 384.55C325.9 384.55 325.06 385.41 325.06 386.47C325.06 387.53 325.9 388.39 326.94 388.39H361.17C362.21 388.39 363.06 387.53 363.06 386.47C363.06 385.41 362.21 384.55 361.17 384.55H326.94ZM326.94 377.74C325.9 377.74 325.06 378.6 325.06 379.66C325.06 380.72 325.9 381.58 326.94 381.58H361.17C362.21 381.58 363.06 380.72 363.06 379.66C363.06 378.6 362.21 377.74 361.17 377.74H326.94Z" fill="#F5F5F5" stroke="#666666" stroke-miterlimit="10"/>
<path d="M373.5 319.5H431.5V409.5H480.4" stroke="black" stroke-width="3" stroke-miterlimit="10"/>
<path d="M487.15 409.5L478.15 414L480.4 409.5L478.15 405L487.15 409.5Z" fill="black" stroke="black" stroke-width="3" stroke-miterlimit="10"/>
<path d="M240.113 11.6484H230.973V37H227.242V11.6484H218.121V8.5625H240.113V11.6484ZM247.379 18.4258C248.98 16.4596 251.064 15.4766 253.629 15.4766C258.095 15.4766 260.348 17.9961 260.387 23.0352V37H256.773V23.0156C256.76 21.4922 256.409 20.3659 255.719 19.6367C255.042 18.9076 253.98 18.543 252.535 18.543C251.363 18.543 250.335 18.8555 249.449 19.4805C248.564 20.1055 247.874 20.9258 247.379 21.9414V37H243.766V7H247.379V18.4258ZM274.566 37.3906C271.702 37.3906 269.371 36.4531 267.574 34.5781C265.777 32.6901 264.879 30.1706 264.879 27.0195V26.3555C264.879 24.2591 265.276 22.3906 266.07 20.75C266.878 19.0964 267.997 17.8073 269.43 16.8828C270.875 15.9453 272.438 15.4766 274.117 15.4766C276.865 15.4766 279 16.3815 280.523 18.1914C282.047 20.0013 282.809 22.5924 282.809 25.9648V27.4688H268.492C268.544 29.5521 269.15 31.2383 270.309 32.5273C271.48 33.8034 272.965 34.4414 274.762 34.4414C276.038 34.4414 277.118 34.181 278.004 33.6602C278.889 33.1393 279.664 32.4492 280.328 31.5898L282.535 33.3086C280.764 36.0299 278.108 37.3906 274.566 37.3906ZM274.117 18.4453C272.659 18.4453 271.435 18.9792 270.445 20.0469C269.456 21.1016 268.844 22.5859 268.609 24.5H279.195V24.2266C279.091 22.3906 278.596 20.9714 277.711 19.9688C276.826 18.9531 275.628 18.4453 274.117 18.4453ZM299.605 9.65625L299.02 16.6484H296.852L296.871 7H299.605V9.65625ZM304.879 9.65625L304.293 16.6484H302.125L302.145 7H304.879V9.65625ZM310.309 37V8.5625H319.605C322.691 8.5625 325.009 9.20052 326.559 10.4766C328.121 11.7526 328.902 13.6406 328.902 16.1406C328.902 17.4688 328.525 18.6471 327.77 19.6758C327.014 20.6914 325.986 21.4792 324.684 22.0391C326.22 22.4688 327.431 23.2891 328.316 24.5C329.215 25.6979 329.664 27.1302 329.664 28.7969C329.664 31.349 328.837 33.3542 327.184 34.8125C325.53 36.2708 323.193 37 320.172 37H310.309ZM314.059 23.6992V33.9336H320.25C321.995 33.9336 323.368 33.4844 324.371 32.5859C325.387 31.6745 325.895 30.4245 325.895 28.8359C325.895 25.4115 324.033 23.6992 320.309 23.6992H314.059ZM314.059 20.6914H319.723C321.363 20.6914 322.672 20.2812 323.648 19.4609C324.638 18.6406 325.133 17.5273 325.133 16.1211C325.133 14.5586 324.677 13.4258 323.766 12.7227C322.854 12.0065 321.467 11.6484 319.605 11.6484H314.059V20.6914ZM343.434 37.3906C340.569 37.3906 338.238 36.4531 336.441 34.5781C334.645 32.6901 333.746 30.1706 333.746 27.0195V26.3555C333.746 24.2591 334.143 22.3906 334.938 20.75C335.745 19.0964 336.865 17.8073 338.297 16.8828C339.742 15.9453 341.305 15.4766 342.984 15.4766C345.732 15.4766 347.867 16.3815 349.391 18.1914C350.914 20.0013 351.676 22.5924 351.676 25.9648V27.4688H337.359C337.411 29.5521 338.017 31.2383 339.176 32.5273C340.348 33.8034 341.832 34.4414 343.629 34.4414C344.905 34.4414 345.986 34.181 346.871 33.6602C347.757 33.1393 348.531 32.4492 349.195 31.5898L351.402 33.3086C349.632 36.0299 346.975 37.3906 343.434 37.3906ZM342.984 18.4453C341.526 18.4453 340.302 18.9792 339.312 20.0469C338.323 21.1016 337.711 22.5859 337.477 24.5H348.062V24.2266C347.958 22.3906 347.464 20.9714 346.578 19.9688C345.693 18.9531 344.495 18.4453 342.984 18.4453ZM368.18 31.3945C368.18 30.418 367.809 29.6628 367.066 29.1289C366.337 28.582 365.055 28.1133 363.219 27.7227C361.396 27.332 359.944 26.8633 358.863 26.3164C357.796 25.7695 357.001 25.1185 356.48 24.3633C355.973 23.6081 355.719 22.7096 355.719 21.668C355.719 19.9362 356.448 18.4714 357.906 17.2734C359.378 16.0755 361.253 15.4766 363.531 15.4766C365.927 15.4766 367.867 16.0951 369.352 17.332C370.849 18.569 371.598 20.151 371.598 22.0781H367.965C367.965 21.0885 367.542 20.2357 366.695 19.5195C365.862 18.8034 364.807 18.4453 363.531 18.4453C362.216 18.4453 361.188 18.7318 360.445 19.3047C359.703 19.8776 359.332 20.6263 359.332 21.5508C359.332 22.4232 359.677 23.0807 360.367 23.5234C361.057 23.9661 362.301 24.3893 364.098 24.793C365.908 25.1966 367.372 25.6784 368.492 26.2383C369.612 26.7982 370.439 27.4753 370.973 28.2695C371.52 29.0508 371.793 30.0078 371.793 31.1406C371.793 33.0286 371.038 34.5456 369.527 35.6914C368.017 36.8242 366.057 37.3906 363.648 37.3906C361.956 37.3906 360.458 37.0911 359.156 36.4922C357.854 35.8932 356.832 35.0599 356.09 33.9922C355.361 32.9115 354.996 31.7461 354.996 30.4961H358.609C358.674 31.707 359.156 32.6706 360.055 33.3867C360.966 34.0898 362.164 34.4414 363.648 34.4414C365.016 34.4414 366.109 34.168 366.93 33.6211C367.763 33.0612 368.18 32.319 368.18 31.3945ZM381.402 10.75V15.8672H385.348V18.6602H381.402V31.7656C381.402 32.612 381.578 33.25 381.93 33.6797C382.281 34.0964 382.88 34.3047 383.727 34.3047C384.143 34.3047 384.716 34.2266 385.445 34.0703V37C384.495 37.2604 383.57 37.3906 382.672 37.3906C381.057 37.3906 379.84 36.9023 379.02 35.9258C378.199 34.9492 377.789 33.5625 377.789 31.7656V18.6602H373.941V15.8672H377.789V10.75H381.402ZM392.262 9.65625L391.676 16.6484H389.508L389.527 7H392.262V9.65625ZM397.535 9.65625L396.949 16.6484H394.781L394.801 7H397.535V9.65625ZM417.73 8.5625L427.027 31.7656L436.324 8.5625H441.188V37H437.438V25.9258L437.789 13.9727L428.453 37H425.582L416.266 14.0312L416.637 25.9258V37H412.887V8.5625H417.73ZM446.285 26.2383C446.285 24.168 446.689 22.306 447.496 20.6523C448.316 18.9987 449.449 17.7227 450.895 16.8242C452.353 15.9258 454.013 15.4766 455.875 15.4766C458.753 15.4766 461.077 16.4727 462.848 18.4648C464.632 20.457 465.523 23.1068 465.523 26.4141V26.668C465.523 28.7253 465.126 30.5742 464.332 32.2148C463.551 33.8424 462.424 35.112 460.953 36.0234C459.495 36.9349 457.815 37.3906 455.914 37.3906C453.049 37.3906 450.725 36.3945 448.941 34.4023C447.171 32.4102 446.285 29.7734 446.285 26.4922V26.2383ZM449.918 26.668C449.918 29.0117 450.458 30.8932 451.539 32.3125C452.633 33.7318 454.091 34.4414 455.914 34.4414C457.75 34.4414 459.208 33.7253 460.289 32.293C461.37 30.8477 461.91 28.8294 461.91 26.2383C461.91 23.9206 461.357 22.0456 460.25 20.6133C459.156 19.168 457.698 18.4453 455.875 18.4453C454.091 18.4453 452.652 19.1549 451.559 20.5742C450.465 21.9935 449.918 24.0247 449.918 26.668ZM469.176 26.2578C469.176 23.0156 469.944 20.4115 471.48 18.4453C473.017 16.4661 475.029 15.4766 477.516 15.4766C479.99 15.4766 481.949 16.3229 483.395 18.0156V7H487.008V37H483.688L483.512 34.7344C482.066 36.5052 480.055 37.3906 477.477 37.3906C475.029 37.3906 473.03 36.388 471.48 34.3828C469.944 32.3776 469.176 29.7604 469.176 26.5312V26.2578ZM472.789 26.668C472.789 29.0638 473.284 30.9388 474.273 32.293C475.263 33.6471 476.63 34.3242 478.375 34.3242C480.667 34.3242 482.34 33.2956 483.395 31.2383V21.5312C482.314 19.5391 480.654 18.543 478.414 18.543C476.643 18.543 475.263 19.2266 474.273 20.5938C473.284 21.9609 472.789 23.9857 472.789 26.668ZM501.402 37.3906C498.538 37.3906 496.207 36.4531 494.41 34.5781C492.613 32.6901 491.715 30.1706 491.715 27.0195V26.3555C491.715 24.2591 492.112 22.3906 492.906 20.75C493.714 19.0964 494.833 17.8073 496.266 16.8828C497.711 15.9453 499.273 15.4766 500.953 15.4766C503.701 15.4766 505.836 16.3815 507.359 18.1914C508.883 20.0013 509.645 22.5924 509.645 25.9648V27.4688H495.328C495.38 29.5521 495.986 31.2383 497.145 32.5273C498.316 33.8034 499.801 34.4414 501.598 34.4414C502.874 34.4414 503.954 34.181 504.84 33.6602C505.725 33.1393 506.5 32.4492 507.164 31.5898L509.371 33.3086C507.6 36.0299 504.944 37.3906 501.402 37.3906ZM500.953 18.4453C499.495 18.4453 498.271 18.9792 497.281 20.0469C496.292 21.1016 495.68 22.5859 495.445 24.5H506.031V24.2266C505.927 22.3906 505.432 20.9714 504.547 19.9688C503.661 18.9531 502.464 18.4453 500.953 18.4453ZM517.77 37H514.156V7H517.77V37Z" fill="black"/>
<path d="M8.4375 117.656H4.32812L3.54688 120H1.05469L5.28906 108.625H7.46094L11.7188 120H9.22656L8.4375 117.656ZM4.96094 115.758H7.80469L6.375 111.5L4.96094 115.758ZM17.3828 113.664C17.0755 113.622 16.8047 113.602 16.5703 113.602C15.7161 113.602 15.1562 113.891 14.8906 114.469V120H12.6328V111.547H14.7656L14.8281 112.555C15.2812 111.779 15.9089 111.391 16.7109 111.391C16.9609 111.391 17.1953 111.424 17.4141 111.492L17.3828 113.664ZM21.5703 109.469V111.547H23.0156V113.203H21.5703V117.422C21.5703 117.734 21.6302 117.958 21.75 118.094C21.8698 118.229 22.099 118.297 22.4375 118.297C22.6875 118.297 22.9089 118.279 23.1016 118.242V119.953C22.6589 120.089 22.2031 120.156 21.7344 120.156C20.151 120.156 19.3438 119.357 19.3125 117.758V113.203H18.0781V111.547H19.3125V109.469H21.5703ZM26.6562 120H24.3906V111.547H26.6562V120ZM24.2578 109.359C24.2578 109.021 24.3698 108.742 24.5938 108.523C24.8229 108.305 25.1328 108.195 25.5234 108.195C25.9089 108.195 26.2161 108.305 26.4453 108.523C26.6745 108.742 26.7891 109.021 26.7891 109.359C26.7891 109.703 26.6719 109.984 26.4375 110.203C26.2083 110.422 25.9036 110.531 25.5234 110.531C25.1432 110.531 24.8359 110.422 24.6016 110.203C24.3724 109.984 24.2578 109.703 24.2578 109.359ZM29.1406 120V113.203H27.8828V111.547H29.1406V110.828C29.1406 109.88 29.4115 109.146 29.9531 108.625C30.5 108.099 31.263 107.836 32.2422 107.836C32.5547 107.836 32.9375 107.888 33.3906 107.992L33.3672 109.742C33.1797 109.695 32.9505 109.672 32.6797 109.672C31.8307 109.672 31.4062 110.07 31.4062 110.867V111.547H33.0859V113.203H31.4062V120H29.1406ZM39.1562 120C39.0521 119.797 38.9766 119.544 38.9297 119.242C38.3828 119.852 37.6719 120.156 36.7969 120.156C35.9688 120.156 35.2812 119.917 34.7344 119.438C34.1927 118.958 33.9219 118.354 33.9219 117.625C33.9219 116.729 34.2526 116.042 34.9141 115.562C35.5807 115.083 36.5417 114.841 37.7969 114.836H38.8359V114.352C38.8359 113.961 38.7344 113.648 38.5312 113.414C38.3333 113.18 38.0182 113.062 37.5859 113.062C37.2057 113.062 36.9062 113.154 36.6875 113.336C36.474 113.518 36.3672 113.768 36.3672 114.086H34.1094C34.1094 113.596 34.2604 113.143 34.5625 112.727C34.8646 112.31 35.2917 111.984 35.8438 111.75C36.3958 111.51 37.0156 111.391 37.7031 111.391C38.7448 111.391 39.5703 111.654 40.1797 112.18C40.7943 112.701 41.1016 113.435 41.1016 114.383V118.047C41.1068 118.849 41.2188 119.456 41.4375 119.867V120H39.1562ZM37.2891 118.43C37.6224 118.43 37.9297 118.357 38.2109 118.211C38.4922 118.06 38.7005 117.859 38.8359 117.609V116.156H37.9922C36.862 116.156 36.2604 116.547 36.1875 117.328L36.1797 117.461C36.1797 117.742 36.2786 117.974 36.4766 118.156C36.6745 118.339 36.9453 118.43 37.2891 118.43ZM46.3516 118.336C46.7682 118.336 47.1068 118.221 47.3672 117.992C47.6276 117.763 47.763 117.458 47.7734 117.078H49.8906C49.8854 117.651 49.7292 118.177 49.4219 118.656C49.1146 119.13 48.6927 119.5 48.1562 119.766C47.625 120.026 47.0365 120.156 46.3906 120.156C45.1823 120.156 44.2292 119.773 43.5312 119.008C42.8333 118.237 42.4844 117.174 42.4844 115.82V115.672C42.4844 114.37 42.8307 113.331 43.5234 112.555C44.2161 111.779 45.1667 111.391 46.375 111.391C47.4323 111.391 48.2786 111.693 48.9141 112.297C49.5547 112.896 49.8802 113.695 49.8906 114.695H47.7734C47.763 114.258 47.6276 113.904 47.3672 113.633C47.1068 113.357 46.763 113.219 46.3359 113.219C45.8099 113.219 45.4115 113.411 45.1406 113.797C44.875 114.177 44.7422 114.797 44.7422 115.656V115.891C44.7422 116.76 44.875 117.385 45.1406 117.766C45.4062 118.146 45.8099 118.336 46.3516 118.336ZM53.8828 109.469V111.547H55.3281V113.203H53.8828V117.422C53.8828 117.734 53.9427 117.958 54.0625 118.094C54.1823 118.229 54.4115 118.297 54.75 118.297C55 118.297 55.2214 118.279 55.4141 118.242V119.953C54.9714 120.089 54.5156 120.156 54.0469 120.156C52.4635 120.156 51.6562 119.357 51.625 117.758V113.203H50.3906V111.547H51.625V109.469H53.8828ZM61.1641 117.664C61.1641 117.388 61.026 117.172 60.75 117.016C60.4792 116.854 60.0417 116.711 59.4375 116.586C57.4271 116.164 56.4219 115.31 56.4219 114.023C56.4219 113.273 56.7318 112.648 57.3516 112.148C57.9766 111.643 58.7917 111.391 59.7969 111.391C60.8698 111.391 61.7266 111.643 62.3672 112.148C63.013 112.654 63.3359 113.31 63.3359 114.117H61.0781C61.0781 113.794 60.974 113.529 60.7656 113.32C60.5573 113.107 60.2318 113 59.7891 113C59.4089 113 59.1146 113.086 58.9062 113.258C58.6979 113.43 58.5938 113.648 58.5938 113.914C58.5938 114.164 58.7109 114.367 58.9453 114.523C59.1849 114.674 59.5859 114.807 60.1484 114.922C60.7109 115.031 61.1849 115.156 61.5703 115.297C62.763 115.734 63.3594 116.492 63.3594 117.57C63.3594 118.341 63.0286 118.966 62.3672 119.445C61.7057 119.919 60.8516 120.156 59.8047 120.156C59.0964 120.156 58.4661 120.031 57.9141 119.781C57.3672 119.526 56.9375 119.18 56.625 118.742C56.3125 118.299 56.1562 117.823 56.1562 117.312H58.2969C58.3177 117.714 58.4661 118.021 58.7422 118.234C59.0182 118.448 59.388 118.555 59.8516 118.555C60.2839 118.555 60.6094 118.474 60.8281 118.312C61.0521 118.146 61.1641 117.93 61.1641 117.664ZM2.32031 139V127.625H6.03906C7.27344 127.625 8.20052 127.88 8.82031 128.391C9.44531 128.901 9.75781 129.656 9.75781 130.656C9.75781 131.188 9.60677 131.659 9.30469 132.07C9.0026 132.477 8.59115 132.792 8.07031 133.016C8.6849 133.188 9.16927 133.516 9.52344 134C9.88281 134.479 10.0625 135.052 10.0625 135.719C10.0625 136.74 9.73177 137.542 9.07031 138.125C8.40885 138.708 7.47396 139 6.26562 139H2.32031ZM3.82031 133.68V137.773H6.29688C6.99479 137.773 7.54427 137.594 7.94531 137.234C8.35156 136.87 8.55469 136.37 8.55469 135.734C8.55469 134.365 7.8099 133.68 6.32031 133.68H3.82031ZM3.82031 132.477H6.08594C6.74219 132.477 7.26562 132.312 7.65625 131.984C8.05208 131.656 8.25 131.211 8.25 130.648C8.25 130.023 8.06771 129.57 7.70312 129.289C7.33854 129.003 6.78385 128.859 6.03906 128.859H3.82031V132.477ZM17.2812 138.164C16.7188 138.826 15.8932 139.156 14.8047 139.156C13.9036 139.156 13.2161 138.896 12.7422 138.375C12.2734 137.849 12.0365 137.073 12.0312 136.047V130.547H13.4766V136.008C13.4766 137.289 13.9974 137.93 15.0391 137.93C16.1432 137.93 16.8776 137.518 17.2422 136.695V130.547H18.6875V139H17.3125L17.2812 138.164ZM22.2578 130.547L22.3047 131.609C22.9505 130.797 23.7943 130.391 24.8359 130.391C26.6224 130.391 27.5234 131.398 27.5391 133.414V139H26.0938V133.406C26.0885 132.797 25.9479 132.346 25.6719 132.055C25.401 131.763 24.9766 131.617 24.3984 131.617C23.9297 131.617 23.5182 131.742 23.1641 131.992C22.8099 132.242 22.5339 132.57 22.3359 132.977V139H20.8906V130.547H22.2578ZM29.3672 134.703C29.3672 133.406 29.6745 132.365 30.2891 131.578C30.9036 130.786 31.7083 130.391 32.7031 130.391C33.6927 130.391 34.4766 130.729 35.0547 131.406V127H36.5V139H35.1719L35.1016 138.094C34.5234 138.802 33.7188 139.156 32.6875 139.156C31.7083 139.156 30.9089 138.755 30.2891 137.953C29.6745 137.151 29.3672 136.104 29.3672 134.812V134.703ZM30.8125 134.867C30.8125 135.826 31.0104 136.576 31.4062 137.117C31.8021 137.659 32.349 137.93 33.0469 137.93C33.9635 137.93 34.6328 137.518 35.0547 136.695V132.812C34.6224 132.016 33.9583 131.617 33.0625 131.617C32.3542 131.617 31.8021 131.891 31.4062 132.438C31.0104 132.984 30.8125 133.794 30.8125 134.867ZM40.3203 139H38.875V127H40.3203V139ZM46.1484 139.156C45.0026 139.156 44.0703 138.781 43.3516 138.031C42.6328 137.276 42.2734 136.268 42.2734 135.008V134.742C42.2734 133.904 42.4323 133.156 42.75 132.5C43.0729 131.839 43.5208 131.323 44.0938 130.953C44.6719 130.578 45.2969 130.391 45.9688 130.391C47.0677 130.391 47.9219 130.753 48.5312 131.477C49.1406 132.201 49.4453 133.237 49.4453 134.586V135.188H43.7188C43.7396 136.021 43.9818 136.695 44.4453 137.211C44.9141 137.721 45.5078 137.977 46.2266 137.977C46.737 137.977 47.1693 137.872 47.5234 137.664C47.8776 137.456 48.1875 137.18 48.4531 136.836L49.3359 137.523C48.6276 138.612 47.5651 139.156 46.1484 139.156ZM45.9688 131.578C45.3854 131.578 44.8958 131.792 44.5 132.219C44.1042 132.641 43.8594 133.234 43.7656 134H48V133.891C47.9583 133.156 47.7604 132.589 47.4062 132.188C47.0521 131.781 46.5729 131.578 45.9688 131.578ZM50.7734 134.703C50.7734 133.406 51.0807 132.365 51.6953 131.578C52.3099 130.786 53.1146 130.391 54.1094 130.391C55.099 130.391 55.8828 130.729 56.4609 131.406V127H57.9062V139H56.5781L56.5078 138.094C55.9297 138.802 55.125 139.156 54.0938 139.156C53.1146 139.156 52.3151 138.755 51.6953 137.953C51.0807 137.151 50.7734 136.104 50.7734 134.812V134.703ZM52.2188 134.867C52.2188 135.826 52.4167 136.576 52.8125 137.117C53.2083 137.659 53.7552 137.93 54.4531 137.93C55.3698 137.93 56.0391 137.518 56.4609 136.695V132.812C56.0286 132.016 55.3646 131.617 54.4688 131.617C53.7604 131.617 53.2083 131.891 52.8125 132.438C52.4167 132.984 52.2188 133.794 52.2188 134.867ZM72.7188 135.391C72.5781 136.594 72.1328 137.523 71.3828 138.18C70.638 138.831 69.6458 139.156 68.4062 139.156C67.0625 139.156 65.9844 138.674 65.1719 137.711C64.3646 136.747 63.9609 135.458 63.9609 133.844V132.75C63.9609 131.693 64.1484 130.763 64.5234 129.961C64.9036 129.159 65.4401 128.544 66.1328 128.117C66.8255 127.685 67.6276 127.469 68.5391 127.469C69.7474 127.469 70.7161 127.807 71.4453 128.484C72.1745 129.156 72.599 130.089 72.7188 131.281H71.2109C71.0807 130.375 70.7969 129.719 70.3594 129.312C69.9271 128.906 69.3203 128.703 68.5391 128.703C67.5807 128.703 66.8281 129.057 66.2812 129.766C65.7396 130.474 65.4688 131.482 65.4688 132.789V133.891C65.4688 135.125 65.7266 136.107 66.2422 136.836C66.7578 137.565 67.4792 137.93 68.4062 137.93C69.2396 137.93 69.8776 137.742 70.3203 137.367C70.7682 136.987 71.0651 136.328 71.2109 135.391H72.7188ZM74.1641 134.695C74.1641 133.867 74.3255 133.122 74.6484 132.461C74.9766 131.799 75.4297 131.289 76.0078 130.93C76.5911 130.57 77.2552 130.391 78 130.391C79.151 130.391 80.0807 130.789 80.7891 131.586C81.5026 132.383 81.8594 133.443 81.8594 134.766V134.867C81.8594 135.69 81.7005 136.43 81.3828 137.086C81.0703 137.737 80.6198 138.245 80.0312 138.609C79.4479 138.974 78.776 139.156 78.0156 139.156C76.8698 139.156 75.9401 138.758 75.2266 137.961C74.5182 137.164 74.1641 136.109 74.1641 134.797V134.695ZM75.6172 134.867C75.6172 135.805 75.8333 136.557 76.2656 137.125C76.7031 137.693 77.2865 137.977 78.0156 137.977C78.75 137.977 79.3333 137.69 79.7656 137.117C80.1979 136.539 80.4141 135.732 80.4141 134.695C80.4141 133.768 80.1927 133.018 79.75 132.445C79.3125 131.867 78.7292 131.578 78 131.578C77.2865 131.578 76.7109 131.862 76.2734 132.43C75.8359 132.997 75.6172 133.81 75.6172 134.867ZM83.3203 134.703C83.3203 133.406 83.6276 132.365 84.2422 131.578C84.8568 130.786 85.6615 130.391 86.6562 130.391C87.6458 130.391 88.4297 130.729 89.0078 131.406V127H90.4531V139H89.125L89.0547 138.094C88.4766 138.802 87.6719 139.156 86.6406 139.156C85.6615 139.156 84.862 138.755 84.2422 137.953C83.6276 137.151 83.3203 136.104 83.3203 134.812V134.703ZM84.7656 134.867C84.7656 135.826 84.9635 136.576 85.3594 137.117C85.7552 137.659 86.3021 137.93 87 137.93C87.9167 137.93 88.5859 137.518 89.0078 136.695V132.812C88.5755 132.016 87.9115 131.617 87.0156 131.617C86.3073 131.617 85.7552 131.891 85.3594 132.438C84.9635 132.984 84.7656 133.794 84.7656 134.867ZM96.2109 139.156C95.0651 139.156 94.1328 138.781 93.4141 138.031C92.6953 137.276 92.3359 136.268 92.3359 135.008V134.742C92.3359 133.904 92.4948 133.156 92.8125 132.5C93.1354 131.839 93.5833 131.323 94.1562 130.953C94.7344 130.578 95.3594 130.391 96.0312 130.391C97.1302 130.391 97.9844 130.753 98.5938 131.477C99.2031 132.201 99.5078 133.237 99.5078 134.586V135.188H93.7812C93.8021 136.021 94.0443 136.695 94.5078 137.211C94.9766 137.721 95.5703 137.977 96.2891 137.977C96.7995 137.977 97.2318 137.872 97.5859 137.664C97.9401 137.456 98.25 137.18 98.5156 136.836L99.3984 137.523C98.6901 138.612 97.6276 139.156 96.2109 139.156ZM96.0312 131.578C95.4479 131.578 94.9583 131.792 94.5625 132.219C94.1667 132.641 93.9219 133.234 93.8281 134H98.0625V133.891C98.0208 133.156 97.8229 132.589 97.4688 132.188C97.1146 131.781 96.6354 131.578 96.0312 131.578Z" fill="black"/>
</svg>
