<svg xmlns="http://www.w3.org/2000/svg" width="945" height="376"  viewBox="0 0 945 376"><linearGradient id="a" x1="50%" x2="50%" y1="8.8%" y2="91.2%"><stop offset="0%" stop-color="#5100b9"/><stop offset="100%" stop-color="#0134b3"/></linearGradient><path fill="#fff" d="M0 0h945v376H0z"/><path fill="#6d8764" stroke="#3a5431" d="M745 210l89 52.8a4 4 0 0 1 2 3.5v105a4 4 0 0 1-6 3.5l-89-53a4 4 0 0 1-2-3.4v-105a4 4 0 0 1 6-3.4zm4.7-17.7l34.4-20.7a4 4 0 0 1 4 0l90 53.2a4 4 0 0 1 0 6.9l-34.7 20.5a4 4 0 0 1-4 0l-89.6-53a4 4 0 0 1 0-6.9zm144.1 26.9l-90-52.8a4 4 0 0 1 0-7l36-20.9a4 4 0 0 1 4 0l89.4 52.9a4 4 0 0 1 0 6.9L897.9 219a4 4 0 0 1-4 0zm50.2-4.8v104.2a4 4 0 0 1-2 3.4l-88 52.7a4 4 0 0 1-6-3.4V267.1a4 4 0 0 1 2-3.4l88-52.7a4 4 0 0 1 6 3.4z"/><path fill="none" stroke="url(#a)" stroke-linejoin="round" stroke-width="30" d="M420 186.3V298a62.1 62.1 0 0 0 62.2 62.1h19.5a57.3 57.3 0 0 0 8-113.9 49.9 49.9 0 0 0 24.9-43.2 50 50 0 0 0-50-49.9h-31.2a33.4 33.4 0 0 0-33.4 33.4z"/><path d="M227.3 269a12.4 12.4 0 0 1-8.8-3.7l-37.8-37.8a12.7 12.7 0 0 1 0-17.8 12.7 12.7 0 0 1 17.8 0l37.8 37.8a12.7 12.7 0 0 1 0 17.8 12.5 12.5 0 0 1-9 3.7z"/><path d="M189.4 307a12.4 12.4 0 0 1-8.7-3.7 12.7 12.7 0 0 1 0-17.8l37.8-37.8a12.7 12.7 0 0 1 17.8 0 12.7 12.7 0 0 1 0 17.8l-38 37.8a12.4 12.4 0 0 1-8.9 3.7zM12.5 269c-3.2 0-6.4-1.2-8.8-3.7a12.6 12.6 0 0 1 0-17.8l37.7-37.8a12.8 12.8 0 0 1 18 0 12.6 12.6 0 0 1 0 17.8l-38 37.6a11.8 11.8 0 0 1-8.9 3.9z"/><path d="M50.3 307a12.4 12.4 0 0 1-8.8-3.7L3.7 265.5a12.7 12.7 0 0 1 0-17.8 12.7 12.7 0 0 1 17.8 0l37.8 37.8a12.7 12.7 0 0 1 0 17.9 12.5 12.5 0 0 1-9 3.6zm38.4 38a11.6 11.6 0 0 1-5-1c-6.3-2.7-9.4-10-6.7-16.4l62.9-151.8a12.5 12.5 0 1 1 23.1 9.6L100.4 337a13 13 0 0 1-11.7 7.9z"/><text fill="#6a6a6a" font-family="Helvetica" font-size="100"><tspan x="293" y="293">+</tspan><tspan x="624.3" y="293">=</tspan></text><text font-family="Helvetica-Bold, Helvetica" font-size="27" font-weight="bold"><tspan x="0" y="20">Your Code</tspan><tspan x="405" y="20">Best</tspan><tspan x="739" y="20">Artifacts</tspan></text><text font-family="Helvetica" font-size="27"><tspan x="0" y="52">With Benchmarks</tspan><tspan x="405" y="52">Runtime</tspan><tspan x="739" y="52">Bundle Code</tspan></text></svg>
