<?xml version="1.0" encoding="UTF-8"?>
<svg width="945px" height="376px" viewBox="0 0 945 376" version="1.1" xmlns="http://www.w3.org/2000/svg" xmlns:xlink="http://www.w3.org/1999/xlink">
    <!-- Generator: Sketch 56.2 (81672) - https://sketch.com -->
    <title>Artboard</title>
    <desc>Created with Sketch.</desc>
    <defs>
        <linearGradient x1="50%" y1="8.82352941%" x2="50%" y2="91.1764706%" id="linearGradient-1">
            <stop stop-color="#5100B9" offset="0%"></stop>
            <stop stop-color="#0134B3" offset="100%"></stop>
        </linearGradient>
    </defs>
    <g id="Artboard" stroke="none" stroke-width="1" fill="none" fill-rule="evenodd">
        <rect fill="#FFFFFF" x="0" y="0" width="945" height="376"></rect>
        <g id="Group-2" transform="translate(0.000000, -6.000000)">
            <path d="M745.043747,215.954027 L834.043747,268.853525 C835.256637,269.574438 836,270.881034 836,272.291998 L836,377.330272 C836,379.539411 834.209139,381.330272 832,381.330272 C831.280526,381.330272 830.574372,381.136218 829.955933,380.768555 L740.955933,327.857855 C739.743224,327.136896 739,325.830403 739,324.419572 L739,219.3925 C739,217.183361 740.790861,215.3925 743,215.3925 C743.719347,215.3925 744.425383,215.586486 745.043747,215.954027 Z M749.737392,198.299223 L784.091457,177.594302 C785.351141,176.835101 786.925852,176.828438 788.191915,177.576953 L878.169232,230.772891 C880.070883,231.897176 880.701064,234.350182 879.576779,236.251834 C879.233,236.833311 878.747562,237.318257 878.165735,237.661445 L843.411088,258.161329 C842.155645,258.901847 840.596779,258.900851 839.342284,258.158729 L749.765549,205.167829 C747.864193,204.043044 747.234658,201.589872 748.359443,199.688516 C748.696658,199.118482 749.170141,198.641101 749.737392,198.299223 Z M893.854129,225.167421 L803.897938,172.373665 C801.99268,171.255502 801.354614,168.804535 802.472777,166.899277 C802.820412,166.306936 803.314712,165.814085 803.908071,165.46819 L839.801542,144.544299 C841.053988,143.814193 842.603443,143.818894 843.851436,144.556587 L933.183682,197.361164 C935.085426,198.485291 935.71581,200.938245 934.591682,202.83999 C934.24948,203.418911 933.766841,203.90221 933.188389,204.245203 L897.918862,225.158274 C896.666579,225.900815 895.109741,225.904319 893.854129,225.167421 Z M944,220.419873 L944,324.600345 C944,326.006549 943.261604,327.309468 942.05521,328.031979 L854.05521,380.735293 C852.159971,381.870354 849.703427,381.254108 848.568366,379.358869 C848.196436,378.737848 848,378.027537 848,377.303659 L848,273.123187 C848,271.716983 848.738396,270.414064 849.94479,269.691553 L937.94479,216.988239 C939.840029,215.853178 942.296573,216.469424 943.431634,218.364663 C943.803564,218.985684 944,219.695995 944,220.419873 Z" id="Fill-5" stroke="#3A5431" fill="#6D8764" fill-rule="nonzero"></path>
            <path d="M420,192.347822 L420,303.9 C420,338.196856 447.840786,366 482.18421,366 L501.692982,366 C533.342917,366 559,340.377662 559,308.770588 C559,279.889827 537.577539,256.005071 509.735474,252.100077 C524.613351,243.451738 534.614035,227.353835 534.614035,208.92353 C534.614035,181.351555 512.231987,159 484.622807,159 L453.393043,159 C434.950608,159 420,173.930301 420,192.347822 Z" id="Path" stroke="url(#linearGradient-1)" stroke-width="30" stroke-linejoin="round"></path>
            <g id="Group" transform="translate(0.000000, 174.000000)" fill="#000000">
                <path d="M227.302334,101 C224.127909,101 220.953503,99.7790697 218.511643,97.3372092 L180.66279,59.4883705 C175.77907,54.6046494 175.77907,46.546512 180.66279,41.6627908 C185.546511,36.7790697 193.604657,36.7790697 198.488377,41.6627908 L236.33721,79.5116295 C241.22093,84.3953506 241.22093,92.453488 236.33721,97.3372092 C233.89535,99.7790697 230.720924,101 227.302334,101 Z" id="Fill-11"></path>
                <path d="M189.453484,139 C186.279056,139 183.10465,137.77907 180.66279,135.337209 C175.77907,130.453488 175.77907,122.395351 180.66279,117.51163 L218.511623,79.6627908 C223.395343,74.7790697 231.453489,74.7790697 236.33721,79.6627908 C241.22093,84.546512 241.22093,92.6046494 236.33721,97.4883705 L198.244176,135.337209 C195.802316,137.77907 192.627891,139 189.453484,139 Z" id="Fill-13"></path>
                <path d="M12.5019457,101 C9.31517469,101 6.12840488,99.7790698 3.67704293,97.3372094 C-1.22568098,92.4534887 -1.22568098,84.3953519 3.67704293,79.5116312 L41.4280173,41.6627906 C46.3307412,36.7790698 54.4202332,36.7790698 59.3229571,41.6627906 C64.225681,46.5465162 64.225681,54.604653 59.3229571,59.4883737 L21.3268497,97.0930161 C18.8754878,99.7790698 15.6887167,101 12.5019457,101 Z" id="Fill-14"></path>
                <path d="M50.3023275,139 C47.1279112,139 43.9534901,137.77907 41.5116295,135.337209 L3.66279084,97.4883705 C-1.22093028,92.6046494 -1.22093028,84.546512 3.66279084,79.6627908 C8.54651196,74.7790697 16.6046523,74.7790697 21.4883734,79.6627908 L59.3372092,117.51163 C64.2209303,122.395351 64.2209303,130.453488 59.3372092,135.337209 C56.8953486,137.77907 53.7209323,139 50.3023275,139 Z" id="Fill-15"></path>
                <path d="M88.6629324,177 C86.9558548,177 85.4926479,176.754827 83.7855679,176.019287 C77.4449988,173.322334 74.2747094,165.967003 76.9572599,159.592387 L139.875261,7.82737515 C142.557809,1.45275475 149.873855,-1.73455361 156.214425,0.962399804 C162.554996,3.65935322 165.72529,11.0146855 163.042742,17.3893061 L100.368617,169.154323 C98.1737982,174.057877 93.540297,177 88.6629324,177 Z" id="Fill-16"></path>
            </g>
            <text id="+" font-family="Helvetica" font-size="100" font-weight="normal" fill="#6A6A6A">
                <tspan x="293" y="299">+</tspan>
            </text>
            <text id="=" font-family="Helvetica" font-size="100" font-weight="normal" fill="#6A6A6A">
                <tspan x="624.300781" y="299">=</tspan>
            </text>
            <text id="Your-Code-With-Bench" font-family="Helvetica-Bold, Helvetica" font-size="27" font-weight="bold" fill="#000000">
                <tspan x="0" y="26">Your Code</tspan>
                <tspan x="0" y="58" font-family="Helvetica" font-weight="normal">With Benchmarks</tspan>
            </text>
            <text id="Best-Runtime" font-family="Helvetica-Bold, Helvetica" font-size="27" font-weight="bold" fill="#000000">
                <tspan x="405" y="26">Best</tspan>
                <tspan x="405" y="58" font-family="Helvetica" font-weight="normal">Runtime</tspan>
            </text>
            <text id="Artifacts-Bundle-Cod" font-family="Helvetica-Bold, Helvetica" font-size="27" font-weight="bold" fill="#000000">
                <tspan x="739" y="26">Artifacts</tspan>
                <tspan x="848.529297" y="26" font-family="Helvetica" font-weight="normal"></tspan>
                <tspan x="739" y="58" font-family="Helvetica" font-weight="normal">Bundle Code</tspan>
            </text>
        </g>
    </g>
</svg>