<svg xmlns="http://www.w3.org/2000/svg" viewBox="0 0 1640 1640"><path d="M542.9.4c-.2.2-4.4.7-9.4 1-4.9.4-9.9.9-11 1.1s-4.2.7-7 1c-2.7.3-10.4 1.7-17 3-102 20.8-188.1 91-228.9 186.8-13.1 30.7-20.9 61.6-24.3 96.2-1 10.2-1.1 848.7 0 862 .8 11.2 1.6 19.5 2.2 24l1 8 2.1 14 2 12c.4 2.7 3 15.5 3.9 19.5 10 43.9 23.5 81.4 43.4 121 25.5 50.6 55.8 92.5 96.6 133.5 30.8 31.1 56.8 51.8 97.7 77.9 3.1 2 6.1 3.6 6.7 3.6s1.1.4 1.1 1c0 .5.4 1 .9 1s4.7 2.2 9.3 4.8c22.3 12.8 47.8 24.5 77.3 35.4 6.8 2.5 33.9 11.2 38.5 12.4l16 3.9 10.5 2.5c9 2.1 32.1 6.2 42.5 7.5l7.1 1c.8.2 5.3.6 10 1l10.1 1c12.4 2.4 196.1 2.4 223.8.1 8.6-.8 18-1.8 23.5-2.6l10.1-1.4c5.9-.8 29.8-5.4 36.9-7.3l7.5-1.8c5.2-1 22.6-6.1 34.5-10 81.6-27 156.2-76.6 213.1-141.5 10.6-12.2 22.7-27.2 28.5-35.5 10.8-15.3 25.5-37.8 27.2-41.5.4-.8 2.5-4.7 4.7-8.5 5.8-10 18.2-35.5 22.5-46l5-12c11.8-27 25.8-82.1 30-118 .3-2.8.8-6.4 1-8 .2-1.7.7-7.3 1-12.5l1.1-13c1-9.4.3-56.8-1-68.5-.4-2.8-.8-7.5-1.1-10.5-.2-3-.7-7.1-.9-9l-2.1-14.5c-3.8-26.3-15.2-70.7-23.6-92-.4-1.1-2.4-6.3-4.5-11.5a397.82 397.82 0 0 0-7-16.8c-1.9-4.1-3.4-7.6-3.4-7.9 0-1-15.2-30.6-20.5-39.8-6.2-10.7-9.7-16.3-18.4-29.3l-6.6-10c-.5-.9-1.2-1.9-1.5-2.2s-3.8-4.9-7.9-10.3l-8.5-11-6-7.2c-37.5-46.3-94.6-92.3-149.4-120.5-7.5-3.8-8.2-4.4-7-6 .7-1 4.2-5.5 7.7-10.1 9.9-12.9 31.1-45.2 31.1-47.5 0-.4.6-1.5 1.4-2.3 1.4-1.6 18.6-35.4 18.6-36.6 0-.3 1-2.7 2.1-5.2 11.7-25.8 26.4-75.8 29.5-100.8.2-2.2.6-4.7.9-5.5.2-.8.7-4.3 1-7.7s.8-7 1-8.1.6-5.7 1-10.3l1.1-11.9c.6-5.3.6-49.8 0-55.5-.3-2.8-.8-8.4-1.1-12.5a191 191 0 0 0-1-10c-.2-1.4-.7-5-1-8l-1.1-7.5c-.2-1-.6-3.7-1-6-7-47.6-27.5-103.9-54.6-149.8-7.1-12.1-22.9-35.5-29.5-43.7-.6-.8-3.3-4.2-5.9-7.5-18.3-23.1-45.4-50-68.9-68.5-4.4-3.4-8.2-6.5-8.5-6.9-1.7-2.1-33.6-23-47-30.8-12.5-7.3-37.8-19.5-51-24.8l-12.5-5c-15.8-6.7-61.6-19.1-77.5-21l-5.5-.8c-9.2-1.6-14.3-2.3-23.5-3.2-3.6-.4-7.8-.9-9.5-1.2C818.2.6 543.6-.2 542.9.4zM807.5 161c15.4 1.5 20.1 2.2 32.5 4.7 51.9 10.4 101.7 37 139 74.3 16.6 16.6 24.5 26.2 36.7 44.5a271.6 271.6 0 0 1 41.2 103.5c3.4 19.4 4.3 30.3 4.2 50 0 19.4-.8 28.5-4.2 47.5-8.2 46.6-28.7 90.7-59.3 127.5-19.7 23.7-45.8 46-73.1 62.3-16.7 10-30 25.4-35.5 41.1-10.3 29.2-4.1 60.7 16.5 83.4 11.8 13.1 31.1 22.5 51 24.8 2.8.4 5.3.8 5.6 1 .3.1 2.8.6 5.5 1 2.7.3 5.2.8 5.5 1 .4.2 2.3.6 4.4 1 2 .3 8.5 1.9 14.4 3.6l12.1 3.3c.8.2 4.7 1.5 8.5 2.8 30 10.5 58.5 25.1 83.7 42.8 9.8 7 25.2 19.2 29.9 23.8l7 6.7c2.4 2.3 8 7.9 12.4 12.5 6.8 7.1 10.3 11.1 18.8 21.4.5.5 4 5.3 7.8 10.5l7.7 10.5c.4.5 3.7 5.7 7.2 11.5 12 19.8 24.3 45.7 30.5 64.5 2 6.1 6.6 21.2 7 23.2.1 1 1 4.5 1.8 7.8 2 7.6 4.6 21.5 5.3 28 .3 2.7.7 5.2.9 5.5s.7 4.8 1.2 10c1.5 17.7.9 62.5-1.1 75-.2 1.4-.8 4.7-1.2 7.5-.4 2.7-.8 5.4-1 6a113.3 113.3 0 0 0-.8 5.2c-1 6.4-6.1 26.6-9.5 37.5-9.3 30.1-24.8 61.8-42.9 87.8-3.8 5.5-17.5 23.4-20.5 26.8-19.3 22-35.2 36.5-57.5 53-16.3 12.1-39.3 25.3-58.2 33.6l-11.9 5.3c-4.1 1.9-34.8 12-38.1 12.6-1.4.3-4.5 1-7 1.7s-5.4 1.4-6.5 1.6c-10.4 2.1-18 3.4-22.1 3.9l-10.9 1.5c-12.3 1.8-30.8 2.2-107.4 2.3-68.1 0-94.7-.5-105.1-1.8-1.4-.2-5.2-.6-8.5-1-14.1-1.5-40.7-6.8-54-10.6-75.7-21.9-140-65-188-125.9-19.8-25.2-38.3-56.9-49.7-85l-3.9-9.5c-5.7-12.6-16.1-50.8-18.5-67.5-.2-1.9-.6-4.4-.9-5.5a127.21 127.21 0 0 1-1-7c-.3-2.8-.8-5.9-1-7.1-.3-1.1-.8-6.5-1.2-12-1.1-13.2-1-841.4 0-848.4 4.2-28.7 17.2-58.4 34.6-79l6.1-7.3c3.7-4.7 20.4-18.6 29.1-24.3 15.3-10.1 29.3-16.4 46.3-21 9.3-2.4 10.9-2.7 21.1-4 2.8-.4 5.2-.8 5.4-1 .8-.8 251.8-.2 259.6.6z"/></svg>
