<?xml version="1.0" standalone="no"?>
<!DOCTYPE svg PUBLIC "-//W3C//DTD SVG 20010904//EN"
 "http://www.w3.org/TR/2001/REC-SVG-20010904/DTD/svg10.dtd">
<svg version="1.0" xmlns="http://www.w3.org/2000/svg"
 width="1640.000000pt" height="1640.000000pt" viewBox="0 0 1640.000000 1640.000000"
 preserveAspectRatio="xMidYMid meet">
<metadata>
Created by potrace 1.11, written by Peter Selinger 2001-2013
</metadata>
<g transform="translate(0.000000,1640.000000) scale(0.100000,-0.100000)"
fill="#000000" stroke="none">
<path d="M5429 16396 c-2 -2 -44 -7 -94 -10 -49 -4 -99 -9 -110 -11 -11 -2
-42 -7 -70 -10 -27 -3 -104 -17 -170 -30 -1020 -208 -1881 -910 -2289 -1868
-131 -307 -209 -616 -243 -962 -10 -102 -11 -8487 0 -8620 8 -112 16 -195 22
-240 2 -16 7 -52 10 -80 4 -27 13 -90 21 -140 8 -49 17 -103 20 -120 4 -27 30
-155 39 -195 100 -439 235 -814 434 -1210 255 -506 558 -925 966 -1335 308
-311 568 -518 977 -779 31 -20 61 -36 67 -36 6 0 11 -4 11 -10 0 -5 4 -10 9
-10 5 0 47 -22 93 -48 223 -128 478 -245 773 -354 68 -25 339 -112 385 -124
90 -22 148 -36 160 -39 8 -2 56 -13 105 -25 90 -21 321 -62 425 -75 30 -4 62
-9 71 -10 8 -2 53 -6 100 -10 46 -4 92 -9 101 -10 124 -24 1961 -24 2238 -1
86 8 180 18 235 26 33 5 78 12 101 14 59 8 298 54 369 73 33 8 67 16 75 18 52
10 226 61 345 100 816 270 1562 766 2131 1415 106 122 227 272 285 355 108
153 255 378 272 415 4 8 25 47 47 85 58 100 182 355 225 460 20 50 42 104 50
120 118 270 258 821 300 1180 3 28 8 64 10 80 2 17 7 73 10 125 4 52 9 111 11
130 10 94 3 568 -10 685 -4 28 -8 75 -11 105 -2 30 -7 71 -9 90 -3 19 -13 85
-21 145 -38 263 -152 707 -236 920 -4 11 -24 63 -45 115 -20 52 -52 128 -70
168 -19 41 -34 76 -34 79 0 10 -152 306 -205 398 -62 107 -97 163 -184 293
-31 46 -60 91 -66 100 -5 9 -12 19 -15 22 -3 3 -38 49 -79 103 -41 54 -79 104
-85 110 -6 7 -33 39 -60 72 -375 463 -946 923 -1494 1205 -75 38 -82 44 -70
60 7 10 42 55 77 101 99 129 311 452 311 475 0 4 6 15 14 23 14 16 186 354
186 366 0 3 10 27 21 52 117 258 264 758 295 1008 2 22 6 47 9 55 2 8 7 43 10
77 3 34 8 70 10 81 2 11 6 57 10 103 4 46 9 100 11 119 6 53 6 498 0 555 -3
28 -8 84 -11 125 -3 41 -8 86 -10 100 -2 14 -7 50 -10 80 -4 30 -9 64 -11 75
-2 10 -6 37 -10 60 -70 476 -275 1039 -546 1498 -71 121 -229 355 -295 437 -6
8 -33 42 -59 75 -183 231 -454 500 -689 685 -44 34 -82 65 -85 69 -17 21 -336
230 -470 308 -125 73 -378 195 -510 248 -52 21 -108 43 -125 50 -158 67 -616
191 -775 210 -14 2 -38 5 -55 8 -92 16 -143 23 -235 32 -36 4 -78 9 -95 12
-33 7 -2779 15 -2786 9z m2646 -1606 c154 -15 201 -22 325 -47 519 -104 1017
-370 1390 -743 166 -166 245 -262 367 -445 205 -307 348 -666 412 -1035 34
-194 43 -303 42 -500 0 -194 -8 -285 -42 -475 -82 -466 -287 -907 -593 -1275
-197 -237 -458 -460 -731 -623 -167 -100 -300 -254 -355 -411 -103 -292 -41
-607 165 -834 118 -131 311 -225 510 -248 28 -4 53 -8 56 -10 3 -1 28 -6 55
-10 27 -3 52 -8 55 -10 4 -2 23 -6 44 -10 20 -3 85 -19 144 -36 58 -16 113
-31 121 -33 8 -2 47 -15 85 -28 300 -105 585 -251 837 -428 98 -70 252 -192
299 -238 15 -14 46 -45 70 -67 24 -23 80 -79 124 -125 68 -71 103 -111 188
-214 5 -5 40 -53 78 -105 38 -52 72 -99 77 -105 4 -5 37 -57 72 -115 120 -198
243 -457 305 -645 20 -61 66 -212 70 -232 1 -10 10 -45 18 -78 20 -76 46 -215
53 -280 3 -27 7 -52 9 -55 2 -3 7 -48 12 -100 15 -177 9 -625 -11 -750 -2 -14
-8 -47 -12 -75 -4 -27 -8 -54 -10 -60 -1 -5 -5 -29 -8 -52 -10 -64 -61 -266
-95 -375 -93 -301 -248 -618 -429 -878 -38 -55 -175 -234 -205 -268 -193 -220
-352 -365 -575 -530 -163 -121 -393 -253 -582 -336 -47 -21 -100 -45 -119 -53
-41 -19 -348 -120 -381 -126 -14 -3 -45 -10 -70 -17 -25 -7 -54 -14 -65 -16
-104 -21 -180 -34 -221 -39 -27 -4 -76 -10 -109 -15 -123 -18 -308 -22 -1074
-23 -681 0 -947 5 -1051 18 -14 2 -52 6 -85 10 -141 15 -407 68 -540 106 -757
219 -1400 650 -1880 1259 -198 252 -383 569 -497 850 -17 41 -34 84 -39 95
-57 126 -161 508 -185 675 -2 19 -6 44 -9 55 -2 11 -7 43 -10 70 -3 28 -8 59
-10 71 -3 11 -8 65 -12 120 -11 132 -10 8414 0 8484 42 287 172 584 346 790
25 30 53 63 61 73 37 47 204 186 291 243 153 101 293 164 463 210 93 24 109
27 211 40 28 4 52 8 54 10 8 8 2518 2 2596 -6z"/>
</g>
</svg>
