<svg xmlns="http://www.w3.org/2000/svg" width="201" height="141"><path fill="#00a1e0" d="M83.73 15.77a35.05 35.05 0 0 1 25.36-10.9c13.2 0 24.72 7.37 30.85 18.3a42.64 42.64 0 0 1 17.44-3.7c23.82 0 43.12 19.47 43.12 43.5s-19.3 43.5-43.12 43.5c-2.9 0-5.74-.3-8.5-.85a31.51 31.51 0 0 1-41.3 12.97 35.97 35.97 0 0 1-66.85-1.63 32.9 32.9 0 0 1-6.86.72C15.45 117.67.5 102.57.5 83.94a33.78 33.78 0 0 1 16.7-29.22A38.82 38.82 0 0 1 52.84.5a38.8 38.8 0 0 1 30.88 15.27"/><g fill="#fff"><path d="M29.47 73.1c-.13.32.04.4.08.45.38.27.76.47 1.15.7a12.18 12.18 0 0 0 5.98 1.4c4.1 0 6.65-2.2 6.65-5.7v-.07c0-3.25-2.88-4.42-5.58-5.28l-.35-.1c-2.03-.66-3.8-1.23-3.8-2.57v-.07c0-1.15 1.03-2 2.62-2a11.9 11.9 0 0 1 5.21 1.33s.4.26.54-.13l.84-2.24c.08-.22-.06-.38-.2-.46a11.63 11.63 0 0 0-5.88-1.58h-.4c-3.76 0-6.38 2.27-6.38 5.52v.07c0 3.43 2.9 4.54 5.6 5.3l.43.14c1.98.6 3.68 1.13 3.68 2.52v.06c0 1.27-1.1 2.22-2.9 2.22-.68 0-2.9-.01-5.28-1.52l-.67-.43c-.12-.07-.4-.2-.54.2l-.8 2.24zm60.06 0c-.13.32.04.4.08.45.38.27.76.47 1.15.7a12.18 12.18 0 0 0 5.98 1.4c4.1 0 6.65-2.2 6.65-5.7v-.07c0-3.25-2.88-4.42-5.58-5.28l-.35-.1c-2.03-.66-3.8-1.23-3.8-2.57v-.07c0-1.15 1.03-2 2.62-2a11.9 11.9 0 0 1 5.21 1.33s.4.26.54-.13l.84-2.24c.08-.22-.06-.38-.2-.46a11.63 11.63 0 0 0-5.88-1.58h-.4c-3.76 0-6.38 2.27-6.38 5.52v.07c0 3.43 2.9 4.54 5.6 5.3l.43.14c1.98.6 3.68 1.13 3.68 2.52v.06c0 1.27-1.1 2.22-2.9 2.22-.68 0-2.9-.01-5.28-1.52l-.67-.43c-.08-.04-.42-.18-.54.2l-.8 2.24zm41-6.9c0 2-.37 3.55-1.1 4.66-.72 1.1-1.8 1.63-3.33 1.63s-2.6-.53-3.32-1.63-1.1-2.67-1.1-4.66c0-1.98.37-3.54 1.1-4.63.7-1.1 1.8-1.6 3.32-1.6s2.6.52 3.33 1.6c.73 1.1 1.1 2.66 1.1 4.64m3.42-3.68a8.24 8.24 0 0 0-1.55-2.97 7.53 7.53 0 0 0-2.63-2 8.65 8.65 0 0 0-3.67-.74c-1.4 0-2.63.25-3.68.74a7.57 7.57 0 0 0-4.19 4.97c-.33 1.13-.5 2.37-.5 3.68a13 13 0 0 0 .5 3.68 8.3 8.3 0 0 0 1.56 2.98c.7.84 1.6 1.5 2.63 1.98 1.05.48 2.3.72 3.68.72a8.8 8.8 0 0 0 3.67-.72 7.35 7.35 0 0 0 2.63-1.98 8.24 8.24 0 0 0 1.55-2.98 12.8 12.8 0 0 0 .5-3.68c0-1.3-.16-2.55-.5-3.68m28.13 9.44c-.12-.34-.44-.2-.44-.2a7.4 7.4 0 0 1-1.6.45c-.57.1-1.2.14-1.87.14-1.66 0-2.98-.5-3.92-1.47s-1.47-2.55-1.47-4.68c0-1.94.47-3.4 1.32-4.5.83-1.1 2.1-1.67 3.8-1.67 1.4 0 2.5.16 3.6.52 0 0 .27.1.4-.24l.84-2.34c.1-.26-.13-.37-.2-.4a13.35 13.35 0 0 0-4.86-.75c-1.44 0-2.72.24-3.82.73a7.9 7.9 0 0 0-4.42 4.97 11.84 11.84 0 0 0-.56 3.69c0 2.84.76 5.14 2.28 6.82 1.5 1.68 3.8 2.54 6.76 2.54a14 14 0 0 0 4.85-.87s.24-.1.14-.4l-.84-2.32zm6-7.66c.16-1.1.46-2.02.93-2.73a3.69 3.69 0 0 1 3.32-1.68 3.6 3.6 0 0 1 3.25 1.68c.47.7.68 1.67.76 2.73h-8.26zm11.53-2.42a7.2 7.2 0 0 0-3.69-4.4 8.48 8.48 0 0 0-3.32-.67 9.1 9.1 0 0 0-3.83.75 7.61 7.61 0 0 0-2.66 2.03 8.35 8.35 0 0 0-1.57 3.01 13.01 13.01 0 0 0-.51 3.7c0 1.34.17 2.6.52 3.7a7.65 7.65 0 0 0 1.68 2.95 7.62 7.62 0 0 0 2.92 1.93 11.5 11.5 0 0 0 4.2.68c3.35 0 5.12-.75 5.84-1.16.13-.07.25-.2.1-.55l-.76-2.12c-.1-.32-.43-.2-.43-.2-.83.3-2 .86-4.76.85-1.8 0-3.13-.53-3.97-1.36-.85-.85-1.27-2.1-1.35-3.86l11.6.01s.3 0 .33-.3c.01-.12.4-2.38-.34-5M75.23 64.3c.16-1.1.46-2.02.93-2.73a3.69 3.69 0 0 1 3.32-1.68 3.6 3.6 0 0 1 3.25 1.68c.47.7.68 1.67.76 2.73h-8.26zm11.52-2.42a7.2 7.2 0 0 0-1.48-2.72 6.81 6.81 0 0 0-2.2-1.67 8.48 8.48 0 0 0-3.32-.68c-1.44 0-2.76.25-3.82.75a7.61 7.61 0 0 0-2.67 2.03 8.35 8.35 0 0 0-1.57 3.01 13.11 13.11 0 0 0-.51 3.7c0 1.34.17 2.6.52 3.7a7.65 7.65 0 0 0 1.68 2.95 7.62 7.62 0 0 0 2.92 1.93 11.5 11.5 0 0 0 4.2.68c3.35 0 5.12-.75 5.84-1.16.13-.07.25-.2.1-.55l-.75-2.12c-.12-.32-.44-.2-.44-.2-.83.3-2 .86-4.76.85-1.8 0-3.13-.53-3.97-1.36-.85-.85-1.27-2.1-1.35-3.86l11.6.01s.3 0 .33-.3c.01-.12.4-2.38-.35-5M50.17 71.9a2.35 2.35 0 0 1-.67-.68 2.8 2.8 0 0 1-.34-1.51c0-1.02.33-1.75 1.03-2.25 0 0 1-.87 3.36-.83a24.2 24.2 0 0 1 3.15.26v5.27s-1.47.32-3.13.42c-2.36.14-3.4-.68-3.4-.68m4.6-8.14l-1.8-.06a11 11 0 0 0-2.86.37c-.9.24-1.72.62-2.42 1.12a5.6 5.6 0 0 0-1.68 1.91 5.59 5.59 0 0 0-.62 2.68c0 1.02.17 1.9.53 2.64a4.7 4.7 0 0 0 1.51 1.82c.64.47 1.44.8 2.36 1.02.9.2 1.94.3 3.07.3 1.2 0 2.37-.1 3.52-.3a73.6 73.6 0 0 0 2.92-.56l.8-.2c.3-.08.27-.38.27-.38v-10.6c0-2.33-.63-4.05-1.85-5.12s-3-1.6-5.32-1.6c-.87 0-2.27.1-3.1.28 0 0-2.53.5-3.58 1.3 0 0-.22.15-.1.47l.82 2.2c.1.3.38.2.38.2l.2-.1c2.22-1.22 5.04-1.18 5.04-1.18 1.26 0 2.22.25 2.87.75.63.5.95 1.22.95 2.76v.5l-1.9-.23"/><path d="M148.28 57.78a.31.31 0 0 0-.17-.41 9.8 9.8 0 0 0-1.95-.34 5.77 5.77 0 0 0-4.94 1.93v-1.4c0-.2-.14-.35-.34-.35h-2.97c-.2 0-.33.15-.33.35v17.3c0 .2.16.35.35.35h3.05c.2 0 .35-.16.35-.35V66.2c0-1.16.13-2.3.38-3.04.25-.72.6-1.3 1.02-1.7a3.5 3.5 0 0 1 1.43-.87 5.59 5.59 0 0 1 2.83-.06c.22.03.35-.1.42-.3l.87-2.44m-28.58-8a9.07 9.07 0 0 0-2.72-.4c-2.1 0-3.76.6-4.92 1.77-1.15 1.16-1.93 2.93-2.33 5.26l-.14.78h-2.63s-.32-.01-.4.34l-.43 2.4c-.03.24.07.38.38.38h2.56l-2.6 14.5c-.2 1.17-.44 2.13-.7 2.86-.25.72-.5 1.25-.8 1.65a2.2 2.2 0 0 1-1.06.81 4.31 4.31 0 0 1-2.92-.1s-.3-.12-.42.18l-.86 2.36c-.08.23.03.4.18.46a7.03 7.03 0 0 0 2.76.47 8.5 8.5 0 0 0 2.84-.44c.8-.3 1.52-.8 2.14-1.5a7.65 7.65 0 0 0 1.5-2.59 22.5 22.5 0 0 0 1.03-3.89l2.6-14.78h3.83s.32.01.38-.34l.44-2.4c.03-.24-.07-.38-.38-.38h-3.7c.01-.08.18-1.4.6-2.62.2-.52.53-.94.82-1.23a2.2 2.2 0 0 1 .97-.6 4.86 4.86 0 0 1 2.79.06c.38.1.43 0 .5-.18l.9-2.44c.1-.26-.14-.37-.22-.4M67.9 74.84c0 .2-.13.35-.33.35H64.5c-.2 0-.33-.15-.33-.35V50.1c0-.2.14-.35.33-.35h3.07c.2 0 .34.16.34.35v24.74z"/></g></svg>